# MagicaVoxel @ Ephtracy

# group
o 

# material
mtllib cat.mtl
usemtl palette

# normals
vn -1 0 0
vn 1 0 0
vn 0 0 1
vn 0 0 -1
vn 0 -1 0
vn 0 1 0

# texcoords
vt 0.908203 0.5
vt 0.912109 0.5
vt 0.970703 0.5
vt 0.974609 0.5
vt 0.978516 0.5
vt 0.982422 0.5

# verts
v -0.5 0 0.7
v -0.5 0 0.5
v -0.5 0 -0.3
v -0.5 0 -0.5
v -0.5 0.2 0.5
v -0.5 0.2 -0.3
v -0.5 0.9 0.4
v -0.5 0.9 -0.5
v -0.5 1.3 0.7
v -0.5 1.3 0.4
v -0.2 1 0.7
v -0.2 1 0.6
v -0.2 1.2 0.7
v -0.2 1.2 0.6
v -0.1 0.4 0.8
v -0.1 0.4 0.7
v -0.1 0.6 0.8
v -0.1 0.6 0.7
v 0 0.6 -0.5
v 0 0.6 -0.7
v 0 0.9 -0.5
v 0 1 -0.3
v 0 1 -0.5
v 0 1.2 -0.3
v 0 1.2 -0.7
v 0.2 0.4 0.8
v 0.2 0.4 0.7
v 0.2 0.5 0.8
v 0.2 0.5 0.7
v 0.3 0.9 0.7
v 0.3 0.9 0.4
v 0.3 1.3 0.7
v 0.3 1.3 0.4
v 0.5 0 0.7
v 0.5 0 0.5
v 0.5 0 -0.3
v 0.5 0 -0.5
v 0.5 0.2 0.7
v 0.5 0.2 0.5
v 0.5 0.2 -0.3
v 0.5 0.2 -0.5
v 0.6 1 0.7
v 0.6 1 0.6
v 0.6 1.2 0.7
v 0.6 1.2 0.6
v -0.4 1 0.7
v -0.4 1 0.6
v -0.4 1.2 0.7
v -0.4 1.2 0.6
v -0.3 0 0.7
v -0.3 0 0.5
v -0.3 0 -0.3
v -0.3 0 -0.5
v -0.3 0.2 0.7
v -0.3 0.2 0.5
v -0.3 0.2 -0.3
v -0.3 0.2 -0.5
v -0.1 0.9 0.7
v -0.1 0.9 0.4
v -0.1 1.3 0.7
v -0.1 1.3 0.4
v 0 0.4 0.8
v 0 0.4 0.7
v 0 0.5 0.8
v 0 0.5 0.7
v 0.2 0.6 -0.5
v 0.2 0.6 -0.7
v 0.2 0.9 -0.5
v 0.2 1 -0.3
v 0.2 1 -0.5
v 0.2 1.2 -0.3
v 0.2 1.2 -0.7
v 0.3 0.4 0.8
v 0.3 0.4 0.7
v 0.3 0.6 0.8
v 0.3 0.6 0.7
v 0.4 1 0.7
v 0.4 1 0.6
v 0.4 1.2 0.7
v 0.4 1.2 0.6
v 0.7 0 0.7
v 0.7 0 0.5
v 0.7 0 -0.3
v 0.7 0 -0.5
v 0.7 0.2 0.5
v 0.7 0.2 -0.3
v 0.7 0.9 0.4
v 0.7 0.9 -0.5
v 0.7 1.3 0.7
v 0.7 1.3 0.4
v -0.1 0.4 0.8
v -0.1 0.6 0.8
v 0 0.4 0.8
v 0 0.5 0.8
v 0 0.6 0.8
v 0.2 0.4 0.8
v 0.2 0.5 0.8
v 0.2 0.6 0.8
v 0.3 0.4 0.8
v 0.3 0.6 0.8
v -0.5 0 0.7
v -0.5 1.3 0.7
v -0.4 0.6 0.7
v -0.4 0.9 0.7
v -0.4 1 0.7
v -0.4 1.2 0.7
v -0.3 0 0.7
v -0.3 0.2 0.7
v -0.3 0.7 0.7
v -0.3 0.9 0.7
v -0.2 0.8 0.7
v -0.2 0.9 0.7
v -0.2 1 0.7
v -0.2 1.2 0.7
v -0.1 0.4 0.7
v -0.1 0.6 0.7
v -0.1 0.7 0.7
v -0.1 0.8 0.7
v -0.1 0.9 0.7
v -0.1 1.3 0.7
v 0 0.4 0.7
v 0 0.5 0.7
v 0 0.6 0.7
v 0.2 0.4 0.7
v 0.2 0.5 0.7
v 0.2 0.6 0.7
v 0.3 0.4 0.7
v 0.3 0.6 0.7
v 0.3 0.9 0.7
v 0.3 1.3 0.7
v 0.4 0.7 0.7
v 0.4 0.9 0.7
v 0.4 1 0.7
v 0.4 1.2 0.7
v 0.5 0 0.7
v 0.5 0.2 0.7
v 0.5 0.8 0.7
v 0.5 0.9 0.7
v 0.6 0.6 0.7
v 0.6 0.7 0.7
v 0.6 0.8 0.7
v 0.6 0.9 0.7
v 0.6 1 0.7
v 0.6 1.2 0.7
v 0.7 0 0.7
v 0.7 1.3 0.7
v -0.4 1 0.6
v -0.4 1.2 0.6
v -0.2 1 0.6
v -0.2 1.2 0.6
v 0.4 1 0.6
v 0.4 1.2 0.6
v 0.6 1 0.6
v 0.6 1.2 0.6
v -0.5 0 -0.3
v -0.5 0.2 -0.3
v -0.3 0 -0.3
v -0.3 0.2 -0.3
v 0 1 -0.3
v 0 1.2 -0.3
v 0.2 1 -0.3
v 0.2 1.2 -0.3
v 0.5 0 -0.3
v 0.5 0.2 -0.3
v 0.7 0 -0.3
v 0.7 0.2 -0.3
v 0 0.9 -0.5
v 0 1 -0.5
v 0.2 0.9 -0.5
v 0.2 1 -0.5
v -0.5 0 0.5
v -0.5 0.2 0.5
v -0.3 0 0.5
v -0.3 0.2 0.5
v 0.5 0 0.5
v 0.5 0.2 0.5
v 0.7 0 0.5
v 0.7 0.2 0.5
v -0.5 0.9 0.4
v -0.5 1.3 0.4
v -0.1 0.9 0.4
v -0.1 1.3 0.4
v 0.3 0.9 0.4
v 0.3 1.3 0.4
v 0.7 0.9 0.4
v 0.7 1.3 0.4
v -0.5 0 -0.5
v -0.5 0.9 -0.5
v -0.3 0 -0.5
v -0.3 0.2 -0.5
v 0 0.6 -0.5
v 0 0.9 -0.5
v 0.2 0.6 -0.5
v 0.2 0.9 -0.5
v 0.5 0 -0.5
v 0.5 0.2 -0.5
v 0.7 0 -0.5
v 0.7 0.9 -0.5
v 0 0.6 -0.7
v 0 1.2 -0.7
v 0.2 0.6 -0.7
v 0.2 1.2 -0.7
v -0.5 0 0.7
v -0.3 0 0.7
v 0.5 0 0.7
v 0.7 0 0.7
v -0.5 0 0.5
v -0.3 0 0.5
v 0.5 0 0.5
v 0.7 0 0.5
v -0.5 0 -0.3
v -0.3 0 -0.3
v 0.5 0 -0.3
v 0.7 0 -0.3
v -0.5 0 -0.5
v -0.3 0 -0.5
v 0.5 0 -0.5
v 0.7 0 -0.5
v -0.3 0.2 0.7
v 0.5 0.2 0.7
v -0.5 0.2 0.5
v -0.3 0.2 0.5
v 0.5 0.2 0.5
v 0.7 0.2 0.5
v -0.5 0.2 -0.3
v -0.3 0.2 -0.3
v 0.5 0.2 -0.3
v 0.7 0.2 -0.3
v -0.3 0.2 -0.5
v 0.5 0.2 -0.5
v -0.1 0.4 0.8
v 0 0.4 0.8
v 0.2 0.4 0.8
v 0.3 0.4 0.8
v -0.1 0.4 0.7
v 0 0.4 0.7
v 0.2 0.4 0.7
v 0.3 0.4 0.7
v 0 0.5 0.8
v 0.2 0.5 0.8
v 0 0.5 0.7
v 0.2 0.5 0.7
v 0 0.6 -0.5
v 0.2 0.6 -0.5
v 0 0.6 -0.7
v 0.2 0.6 -0.7
v 0 1 -0.3
v 0.2 1 -0.3
v 0 1 -0.5
v 0.2 1 -0.5
v -0.4 1.2 0.7
v -0.2 1.2 0.7
v 0.4 1.2 0.7
v 0.6 1.2 0.7
v -0.4 1.2 0.6
v -0.2 1.2 0.6
v 0.4 1.2 0.6
v 0.6 1.2 0.6
v -0.1 0.6 0.8
v 0 0.6 0.8
v 0.2 0.6 0.8
v 0.3 0.6 0.8
v -0.1 0.6 0.7
v 0 0.6 0.7
v 0.2 0.6 0.7
v 0.3 0.6 0.7
v -0.1 0.9 0.7
v 0.3 0.9 0.7
v -0.5 0.9 0.4
v -0.1 0.9 0.4
v 0.3 0.9 0.4
v 0.7 0.9 0.4
v -0.5 0.9 -0.5
v 0 0.9 -0.5
v 0.2 0.9 -0.5
v 0.7 0.9 -0.5
v -0.4 1 0.7
v -0.2 1 0.7
v 0.4 1 0.7
v 0.6 1 0.7
v -0.4 1 0.6
v -0.2 1 0.6
v 0.4 1 0.6
v 0.6 1 0.6
v 0 1.2 -0.3
v 0.2 1.2 -0.3
v 0 1.2 -0.7
v 0.2 1.2 -0.7
v -0.5 1.3 0.7
v -0.1 1.3 0.7
v 0.3 1.3 0.7
v 0.7 1.3 0.7
v -0.5 1.3 0.4
v -0.1 1.3 0.4
v 0.3 1.3 0.4
v 0.7 1.3 0.4

# faces
f 5/5/1 2/5/1 1/5/1
f 6/5/1 4/5/1 3/5/1
f 7/5/1 6/5/1 5/5/1
f 8/5/1 4/5/1 6/5/1
f 8/5/1 6/5/1 7/5/1
f 9/5/1 5/5/1 1/5/1
f 9/5/1 7/5/1 5/5/1
f 10/5/1 7/5/1 9/5/1
f 13/5/1 12/5/1 11/5/1
f 14/5/1 12/5/1 13/5/1
f 17/2/1 16/2/1 15/2/1
f 18/2/1 16/2/1 17/2/1
f 21/1/1 20/1/1 19/1/1
f 23/1/1 20/1/1 21/1/1
f 24/1/1 23/1/1 22/1/1
f 25/1/1 20/1/1 23/1/1
f 25/1/1 23/1/1 24/1/1
f 28/2/1 27/2/1 26/2/1
f 29/2/1 27/2/1 28/2/1
f 32/5/1 31/5/1 30/5/1
f 33/5/1 31/5/1 32/5/1
f 38/5/1 35/5/1 34/5/1
f 39/5/1 35/5/1 38/5/1
f 40/5/1 37/5/1 36/5/1
f 41/5/1 37/5/1 40/5/1
f 44/5/1 43/5/1 42/5/1
f 45/5/1 43/5/1 44/5/1
f 46/5/2 47/5/2 48/5/2
f 48/5/2 47/5/2 49/5/2
f 50/5/2 51/5/2 54/5/2
f 54/5/2 51/5/2 55/5/2
f 52/5/2 53/5/2 56/5/2
f 56/5/2 53/5/2 57/5/2
f 58/5/2 59/5/2 60/5/2
f 60/5/2 59/5/2 61/5/2
f 62/2/2 63/2/2 64/2/2
f 64/2/2 63/2/2 65/2/2
f 66/1/2 67/1/2 68/1/2
f 68/1/2 67/1/2 70/1/2
f 69/1/2 70/1/2 71/1/2
f 70/1/2 67/1/2 72/1/2
f 71/1/2 70/1/2 72/1/2
f 73/2/2 74/2/2 75/2/2
f 75/2/2 74/2/2 76/2/2
f 77/5/2 78/5/2 79/5/2
f 79/5/2 78/5/2 80/5/2
f 81/5/2 82/5/2 85/5/2
f 83/5/2 84/5/2 86/5/2
f 85/5/2 86/5/2 87/5/2
f 86/5/2 84/5/2 88/5/2
f 87/5/2 86/5/2 88/5/2
f 81/5/2 85/5/2 89/5/2
f 85/5/2 87/5/2 89/5/2
f 89/5/2 87/5/2 90/5/2
f 93/2/3 92/2/3 91/2/3
f 94/2/3 92/2/3 93/2/3
f 95/2/3 92/2/3 94/2/3
f 97/6/3 95/6/3 94/6/3
f 98/6/3 95/6/3 97/6/3
f 99/2/3 97/2/3 96/2/3
f 99/2/3 98/2/3 97/2/3
f 100/2/3 98/2/3 99/2/3
f 103/5/3 102/5/3 101/5/3
f 104/5/3 102/5/3 103/5/3
f 105/5/3 102/5/3 104/5/3
f 106/5/3 102/5/3 105/5/3
f 107/5/3 103/5/3 101/5/3
f 108/5/3 103/5/3 107/5/3
f 109/3/3 104/3/3 103/3/3
f 110/5/3 105/5/3 104/5/3
f 110/3/3 104/3/3 109/3/3
f 111/4/3 110/4/3 109/4/3
f 112/5/3 105/5/3 110/5/3
f 112/4/3 110/4/3 111/4/3
f 113/5/3 105/5/3 112/5/3
f 114/5/3 102/5/3 106/5/3
f 115/5/3 103/5/3 108/5/3
f 116/3/3 109/3/3 103/3/3
f 116/5/3 103/5/3 115/5/3
f 117/4/3 111/4/3 109/4/3
f 117/3/3 109/3/3 116/3/3
f 118/3/3 112/3/3 111/3/3
f 118/4/3 111/4/3 117/4/3
f 119/5/3 113/5/3 112/5/3
f 119/3/3 112/3/3 118/3/3
f 119/5/3 114/5/3 113/5/3
f 120/5/3 102/5/3 114/5/3
f 120/5/3 114/5/3 119/5/3
f 121/5/3 115/5/3 108/5/3
f 123/5/3 118/5/3 117/5/3
f 123/5/3 119/5/3 118/5/3
f 123/5/3 117/5/3 116/5/3
f 124/5/3 122/5/3 121/5/3
f 124/5/3 121/5/3 108/5/3
f 125/5/3 122/5/3 124/5/3
f 126/5/3 119/5/3 123/5/3
f 127/5/3 124/5/3 108/5/3
f 128/5/3 119/5/3 126/5/3
f 129/5/3 119/5/3 128/5/3
f 131/3/3 129/3/3 128/3/3
f 132/5/3 130/5/3 129/5/3
f 132/3/3 129/3/3 131/3/3
f 133/5/3 130/5/3 132/5/3
f 134/5/3 130/5/3 133/5/3
f 136/5/3 127/5/3 108/5/3
f 136/5/3 128/5/3 127/5/3
f 137/4/3 132/4/3 131/4/3
f 138/5/3 133/5/3 132/5/3
f 138/4/3 132/4/3 137/4/3
f 139/3/3 131/3/3 128/3/3
f 139/5/3 136/5/3 135/5/3
f 139/5/3 128/5/3 136/5/3
f 140/4/3 137/4/3 131/4/3
f 140/3/3 131/3/3 139/3/3
f 141/3/3 138/3/3 137/3/3
f 141/4/3 137/4/3 140/4/3
f 142/5/3 133/5/3 138/5/3
f 142/3/3 138/3/3 141/3/3
f 143/5/3 133/5/3 142/5/3
f 144/5/3 130/5/3 134/5/3
f 145/5/3 143/5/3 142/5/3
f 145/5/3 144/5/3 143/5/3
f 145/5/3 139/5/3 135/5/3
f 145/5/3 141/5/3 140/5/3
f 145/5/3 142/5/3 141/5/3
f 145/5/3 140/5/3 139/5/3
f 146/5/3 130/5/3 144/5/3
f 146/5/3 144/5/3 145/5/3
f 149/6/3 148/6/3 147/6/3
f 150/6/3 148/6/3 149/6/3
f 153/6/3 152/6/3 151/6/3
f 154/6/3 152/6/3 153/6/3
f 157/5/3 156/5/3 155/5/3
f 158/5/3 156/5/3 157/5/3
f 161/1/3 160/1/3 159/1/3
f 162/1/3 160/1/3 161/1/3
f 165/5/3 164/5/3 163/5/3
f 166/5/3 164/5/3 165/5/3
f 169/1/3 168/1/3 167/1/3
f 170/1/3 168/1/3 169/1/3
f 171/5/4 172/5/4 173/5/4
f 173/5/4 172/5/4 174/5/4
f 175/5/4 176/5/4 177/5/4
f 177/5/4 176/5/4 178/5/4
f 179/5/4 180/5/4 181/5/4
f 181/5/4 180/5/4 182/5/4
f 183/5/4 184/5/4 185/5/4
f 185/5/4 184/5/4 186/5/4
f 187/5/4 188/5/4 189/5/4
f 189/5/4 188/5/4 190/5/4
f 190/5/4 188/5/4 191/5/4
f 191/5/4 188/5/4 192/5/4
f 190/5/4 191/5/4 193/5/4
f 190/5/4 193/5/4 196/5/4
f 193/5/4 194/5/4 196/5/4
f 195/5/4 196/5/4 197/5/4
f 196/5/4 194/5/4 198/5/4
f 197/5/4 196/5/4 198/5/4
f 199/1/4 200/1/4 201/1/4
f 201/1/4 200/1/4 202/1/4
f 207/5/5 204/5/5 203/5/5
f 208/5/5 204/5/5 207/5/5
f 209/5/5 206/5/5 205/5/5
f 210/5/5 206/5/5 209/5/5
f 215/5/5 212/5/5 211/5/5
f 216/5/5 212/5/5 215/5/5
f 217/5/5 214/5/5 213/5/5
f 218/5/5 214/5/5 217/5/5
f 222/5/5 220/5/5 219/5/5
f 223/5/5 220/5/5 222/5/5
f 225/5/5 222/5/5 221/5/5
f 225/5/5 224/5/5 223/5/5
f 225/5/5 223/5/5 222/5/5
f 226/5/5 224/5/5 225/5/5
f 227/5/5 224/5/5 226/5/5
f 228/5/5 224/5/5 227/5/5
f 229/5/5 227/5/5 226/5/5
f 230/5/5 227/5/5 229/5/5
f 235/2/5 232/2/5 231/2/5
f 236/2/5 232/2/5 235/2/5
f 237/2/5 234/2/5 233/2/5
f 238/2/5 234/2/5 237/2/5
f 241/6/5 240/6/5 239/6/5
f 242/6/5 240/6/5 241/6/5
f 245/1/5 244/1/5 243/1/5
f 246/1/5 244/1/5 245/1/5
f 249/1/5 248/1/5 247/1/5
f 250/1/5 248/1/5 249/1/5
f 255/5/5 252/5/5 251/5/5
f 256/5/5 252/5/5 255/5/5
f 257/5/5 254/5/5 253/5/5
f 258/5/5 254/5/5 257/5/5
f 259/2/6 260/2/6 263/2/6
f 260/6/6 261/6/6 264/6/6
f 263/2/6 260/2/6 264/2/6
f 261/2/6 262/2/6 265/2/6
f 264/6/6 261/6/6 265/6/6
f 265/2/6 262/2/6 266/2/6
f 267/5/6 268/5/6 270/5/6
f 270/5/6 268/5/6 271/5/6
f 269/5/6 270/5/6 273/5/6
f 271/5/6 272/5/6 273/5/6
f 270/5/6 271/5/6 273/5/6
f 273/5/6 272/5/6 274/5/6
f 274/5/6 272/5/6 275/5/6
f 275/5/6 272/5/6 276/5/6
f 277/5/6 278/5/6 281/5/6
f 281/5/6 278/5/6 282/5/6
f 279/5/6 280/5/6 283/5/6
f 283/5/6 280/5/6 284/5/6
f 285/1/6 286/1/6 287/1/6
f 287/1/6 286/1/6 288/1/6
f 289/5/6 290/5/6 293/5/6
f 293/5/6 290/5/6 294/5/6
f 291/5/6 292/5/6 295/5/6
f 295/5/6 292/5/6 296/5/6
