# MagicaVoxel @ Ephtracy

# group
o 

# material
mtllib duck.mtl
usemtl palette

# normals
vn -1 0 0
vn 1 0 0
vn 0 0 1
vn 0 0 -1
vn 0 -1 0
vn 0 1 0

# texcoords
vt 0.908203 0.5
vt 0.939453 0.5
vt 0.970703 0.5
vt 0.974609 0.5
vt 0.978516 0.5

# verts
v -0.4 0 0.2
v -0.4 0 -0.4
v -0.4 0.1 0.2
v -0.4 0.1 -0.4
v -0.4 0.6 0.0999999
v -0.4 0.6 -0.7
v -0.4 1 0.0999999
v -0.4 1 -0.7
v -0.3 0.1 -0.2
v -0.3 0.1 -0.3
v -0.3 0.5 0.3
v -0.3 0.5 -0.2
v -0.3 0.5 -0.3
v -0.3 0.5 -0.9
v -0.3 0.6 0.0999999
v -0.3 0.6 -0.7
v -0.3 1 0.0999999
v -0.3 1 -0.7
v -0.3 1.1 0.3
v -0.3 1.1 -0.3
v -0.3 1.1 -0.9
v -0.3 1.2 0.3
v -0.3 1.2 -0.3
v -0.3 1.4 0.0999999
v -0.3 1.4 -5.96046e-08
v -0.3 1.5 0.0999999
v -0.3 1.5 -5.96046e-08
v -0.3 1.7 0.3
v -0.3 1.7 -0.3
v -0.2 0 0.2
v -0.2 0 -0.1
v -0.2 0.1 0.2
v -0.2 0.1 -0.1
v -0.1 1.3 0.6
v -0.1 1.3 0.3
v -0.1 1.5 0.6
v -0.1 1.5 0.3
v 0.1 0 0.2
v 0.1 0 -0.4
v 0.1 0.1 0.2
v 0.1 0.1 -0.4
v 0.2 0.1 -0.2
v 0.2 0.1 -0.3
v 0.2 0.5 -0.2
v 0.2 0.5 -0.3
v 0.3 0 0.2
v 0.3 0 -0.1
v 0.3 0.1 0.2
v 0.3 0.1 -0.1
v -0.3 0 0.2
v -0.3 0 -0.1
v -0.3 0.1 0.2
v -0.3 0.1 -0.1
v -0.2 0.1 -0.2
v -0.2 0.1 -0.3
v -0.2 0.5 -0.2
v -0.2 0.5 -0.3
v -0.1 0 0.2
v -0.1 0 -0.4
v -0.1 0.1 0.2
v -0.1 0.1 -0.4
v 0.1 1.3 0.6
v 0.1 1.3 0.3
v 0.1 1.5 0.6
v 0.1 1.5 0.3
v 0.2 0 0.2
v 0.2 0 -0.1
v 0.2 0.1 0.2
v 0.2 0.1 -0.1
v 0.3 0.1 -0.2
v 0.3 0.1 -0.3
v 0.3 0.5 0.3
v 0.3 0.5 -0.2
v 0.3 0.5 -0.3
v 0.3 0.5 -0.9
v 0.3 0.6 0.0999999
v 0.3 0.6 -0.7
v 0.3 1 0.0999999
v 0.3 1 -0.7
v 0.3 1.1 0.3
v 0.3 1.1 -0.3
v 0.3 1.1 -0.9
v 0.3 1.2 0.3
v 0.3 1.2 -0.3
v 0.3 1.4 0.0999999
v 0.3 1.4 -5.96046e-08
v 0.3 1.5 0.0999999
v 0.3 1.5 -5.96046e-08
v 0.3 1.7 0.3
v 0.3 1.7 -0.3
v 0.4 0 0.2
v 0.4 0 -0.4
v 0.4 0.1 0.2
v 0.4 0.1 -0.4
v 0.5 0.6 0.0999999
v 0.5 0.6 -0.7
v 0.5 1 0.0999999
v 0.5 1 -0.7
v -0.1 1.3 0.6
v -0.1 1.5 0.6
v 0.1 1.3 0.6
v 0.1 1.5 0.6
v -0.3 0.5 0.3
v -0.3 1.1 0.3
v -0.3 1.2 0.3
v -0.3 1.7 0.3
v -0.1 1.3 0.3
v -0.1 1.5 0.3
v 0.1 1.3 0.3
v 0.1 1.5 0.3
v 0.3 0.5 0.3
v 0.3 1.1 0.3
v 0.3 1.2 0.3
v 0.3 1.7 0.3
v -0.4 0 0.2
v -0.4 0.1 0.2
v -0.3 0 0.2
v -0.3 0.1 0.2
v -0.2 0 0.2
v -0.2 0.1 0.2
v -0.1 0 0.2
v -0.1 0.1 0.2
v 0.1 0 0.2
v 0.1 0.1 0.2
v 0.2 0 0.2
v 0.2 0.1 0.2
v 0.3 0 0.2
v 0.3 0.1 0.2
v 0.4 0 0.2
v 0.4 0.1 0.2
v -0.4 0.6 0.0999999
v -0.4 1 0.0999999
v -0.3 0.6 0.0999999
v -0.3 1 0.0999999
v 0.3 0.6 0.0999999
v 0.3 1 0.0999999
v 0.5 0.6 0.0999999
v 0.5 1 0.0999999
v -0.3 0 -0.1
v -0.3 0.1 -0.1
v -0.2 0 -0.1
v -0.2 0.1 -0.1
v 0.2 0 -0.1
v 0.2 0.1 -0.1
v 0.3 0 -0.1
v 0.3 0.1 -0.1
v -0.3 0.1 -0.2
v -0.3 0.5 -0.2
v -0.2 0.1 -0.2
v -0.2 0.5 -0.2
v 0.2 0.1 -0.2
v 0.2 0.5 -0.2
v 0.3 0.1 -0.2
v 0.3 0.5 -0.2
v -0.3 0.1 -0.3
v -0.3 0.5 -0.3
v -0.3 1.1 -0.3
v -0.3 1.2 -0.3
v -0.3 1.7 -0.3
v -0.2 0.1 -0.3
v -0.2 0.5 -0.3
v 0.2 0.1 -0.3
v 0.2 0.5 -0.3
v 0.3 0.1 -0.3
v 0.3 0.5 -0.3
v 0.3 1.1 -0.3
v 0.3 1.2 -0.3
v 0.3 1.7 -0.3
v -0.4 0 -0.4
v -0.4 0.1 -0.4
v -0.1 0 -0.4
v -0.1 0.1 -0.4
v 0.1 0 -0.4
v 0.1 0.1 -0.4
v 0.4 0 -0.4
v 0.4 0.1 -0.4
v -0.4 0.6 -0.7
v -0.4 1 -0.7
v -0.3 0.6 -0.7
v -0.3 1 -0.7
v 0.3 0.6 -0.7
v 0.3 1 -0.7
v 0.5 0.6 -0.7
v 0.5 1 -0.7
v -0.3 0.5 -0.9
v -0.3 1.1 -0.9
v 0.3 0.5 -0.9
v 0.3 1.1 -0.9
v -0.4 0 0.2
v -0.3 0 0.2
v -0.2 0 0.2
v -0.1 0 0.2
v 0.1 0 0.2
v 0.2 0 0.2
v 0.3 0 0.2
v 0.4 0 0.2
v -0.3 0 -0.1
v -0.2 0 -0.1
v 0.2 0 -0.1
v 0.3 0 -0.1
v -0.4 0 -0.4
v -0.1 0 -0.4
v 0.1 0 -0.4
v 0.4 0 -0.4
v -0.3 0.5 0.3
v 0.3 0.5 0.3
v -0.3 0.5 -0.2
v -0.2 0.5 -0.2
v 0.2 0.5 -0.2
v 0.3 0.5 -0.2
v -0.3 0.5 -0.3
v -0.2 0.5 -0.3
v 0.2 0.5 -0.3
v 0.3 0.5 -0.3
v -0.3 0.5 -0.9
v 0.3 0.5 -0.9
v -0.4 0.6 0.0999999
v -0.3 0.6 0.0999999
v 0.3 0.6 0.0999999
v 0.5 0.6 0.0999999
v -0.4 0.6 -0.7
v -0.3 0.6 -0.7
v 0.3 0.6 -0.7
v 0.5 0.6 -0.7
v -0.1 1.3 0.6
v 0.1 1.3 0.6
v -0.1 1.3 0.3
v 0.1 1.3 0.3
v -0.4 0.1 0.2
v -0.3 0.1 0.2
v -0.2 0.1 0.2
v -0.1 0.1 0.2
v 0.1 0.1 0.2
v 0.2 0.1 0.2
v 0.3 0.1 0.2
v 0.4 0.1 0.2
v -0.3 0.1 -0.1
v -0.2 0.1 -0.1
v 0.2 0.1 -0.1
v 0.3 0.1 -0.1
v -0.3 0.1 -0.2
v -0.2 0.1 -0.2
v 0.2 0.1 -0.2
v 0.3 0.1 -0.2
v -0.3 0.1 -0.3
v -0.2 0.1 -0.3
v 0.2 0.1 -0.3
v 0.3 0.1 -0.3
v -0.4 0.1 -0.4
v -0.1 0.1 -0.4
v 0.1 0.1 -0.4
v 0.4 0.1 -0.4
v -0.4 1 0.0999999
v -0.3 1 0.0999999
v 0.3 1 0.0999999
v 0.5 1 0.0999999
v -0.4 1 -0.7
v -0.3 1 -0.7
v 0.3 1 -0.7
v 0.5 1 -0.7
v -0.3 1.1 -0.3
v 0.3 1.1 -0.3
v -0.3 1.1 -0.9
v 0.3 1.1 -0.9
v -0.1 1.5 0.6
v 0.1 1.5 0.6
v -0.1 1.5 0.3
v 0.1 1.5 0.3
v -0.3 1.7 0.3
v 0.3 1.7 0.3
v -0.3 1.7 -0.3
v 0.3 1.7 -0.3

# faces
f 3/3/1 2/3/1 1/3/1
f 4/3/1 2/3/1 3/3/1
f 7/1/1 6/1/1 5/1/1
f 8/1/1 6/1/1 7/1/1
f 12/3/1 10/3/1 9/3/1
f 13/3/1 10/3/1 12/3/1
f 15/1/1 12/1/1 11/1/1
f 15/1/1 14/1/1 13/1/1
f 15/1/1 13/1/1 12/1/1
f 16/1/1 14/1/1 15/1/1
f 17/1/1 15/1/1 11/1/1
f 18/1/1 14/1/1 16/1/1
f 19/1/1 17/1/1 11/1/1
f 19/1/1 18/1/1 17/1/1
f 20/1/1 18/1/1 19/1/1
f 21/1/1 14/1/1 18/1/1
f 21/1/1 18/1/1 20/1/1
f 22/4/1 20/4/1 19/4/1
f 23/4/1 20/4/1 22/4/1
f 24/2/1 23/2/1 22/2/1
f 25/2/1 23/2/1 24/2/1
f 26/2/1 24/2/1 22/2/1
f 26/5/1 25/5/1 24/5/1
f 27/2/1 23/2/1 25/2/1
f 27/5/1 25/5/1 26/5/1
f 28/2/1 26/2/1 22/2/1
f 28/2/1 27/2/1 26/2/1
f 29/2/1 23/2/1 27/2/1
f 29/2/1 27/2/1 28/2/1
f 32/3/1 31/3/1 30/3/1
f 33/3/1 31/3/1 32/3/1
f 36/3/1 35/3/1 34/3/1
f 37/3/1 35/3/1 36/3/1
f 40/3/1 39/3/1 38/3/1
f 41/3/1 39/3/1 40/3/1
f 44/3/1 43/3/1 42/3/1
f 45/3/1 43/3/1 44/3/1
f 48/3/1 47/3/1 46/3/1
f 49/3/1 47/3/1 48/3/1
f 50/3/2 51/3/2 52/3/2
f 52/3/2 51/3/2 53/3/2
f 54/3/2 55/3/2 56/3/2
f 56/3/2 55/3/2 57/3/2
f 58/3/2 59/3/2 60/3/2
f 60/3/2 59/3/2 61/3/2
f 62/3/2 63/3/2 64/3/2
f 64/3/2 63/3/2 65/3/2
f 66/3/2 67/3/2 68/3/2
f 68/3/2 67/3/2 69/3/2
f 70/3/2 71/3/2 73/3/2
f 73/3/2 71/3/2 74/3/2
f 72/1/2 73/1/2 76/1/2
f 74/1/2 75/1/2 76/1/2
f 73/1/2 74/1/2 76/1/2
f 76/1/2 75/1/2 77/1/2
f 72/1/2 76/1/2 78/1/2
f 77/1/2 75/1/2 79/1/2
f 72/1/2 78/1/2 80/1/2
f 78/1/2 79/1/2 80/1/2
f 80/1/2 79/1/2 81/1/2
f 79/1/2 75/1/2 82/1/2
f 81/1/2 79/1/2 82/1/2
f 80/4/2 81/4/2 83/4/2
f 83/4/2 81/4/2 84/4/2
f 83/2/2 84/2/2 85/2/2
f 85/2/2 84/2/2 86/2/2
f 83/2/2 85/2/2 87/2/2
f 85/5/2 86/5/2 87/5/2
f 86/2/2 84/2/2 88/2/2
f 87/5/2 86/5/2 88/5/2
f 83/2/2 87/2/2 89/2/2
f 87/2/2 88/2/2 89/2/2
f 88/2/2 84/2/2 90/2/2
f 89/2/2 88/2/2 90/2/2
f 91/3/2 92/3/2 93/3/2
f 93/3/2 92/3/2 94/3/2
f 95/1/2 96/1/2 97/1/2
f 97/1/2 96/1/2 98/1/2
f 101/3/3 100/3/3 99/3/3
f 102/3/3 100/3/3 101/3/3
f 107/2/3 106/2/3 105/2/3
f 108/2/3 106/2/3 107/2/3
f 109/2/3 107/2/3 105/2/3
f 110/2/3 106/2/3 108/2/3
f 111/1/3 104/1/3 103/1/3
f 112/4/3 105/4/3 104/4/3
f 112/1/3 104/1/3 111/1/3
f 113/2/3 110/2/3 109/2/3
f 113/4/3 105/4/3 112/4/3
f 113/2/3 109/2/3 105/2/3
f 114/2/3 106/2/3 110/2/3
f 114/2/3 110/2/3 113/2/3
f 117/3/3 116/3/3 115/3/3
f 118/3/3 116/3/3 117/3/3
f 121/3/3 120/3/3 119/3/3
f 122/3/3 120/3/3 121/3/3
f 125/3/3 124/3/3 123/3/3
f 126/3/3 124/3/3 125/3/3
f 129/3/3 128/3/3 127/3/3
f 130/3/3 128/3/3 129/3/3
f 133/1/3 132/1/3 131/1/3
f 134/1/3 132/1/3 133/1/3
f 137/1/3 136/1/3 135/1/3
f 138/1/3 136/1/3 137/1/3
f 141/3/3 140/3/3 139/3/3
f 142/3/3 140/3/3 141/3/3
f 145/3/3 144/3/3 143/3/3
f 146/3/3 144/3/3 145/3/3
f 149/3/3 148/3/3 147/3/3
f 150/3/3 148/3/3 149/3/3
f 153/3/3 152/3/3 151/3/3
f 154/3/3 152/3/3 153/3/3
f 155/3/4 156/3/4 160/3/4
f 160/3/4 156/3/4 161/3/4
f 162/3/4 163/3/4 164/3/4
f 164/3/4 163/3/4 165/3/4
f 157/4/4 158/4/4 166/4/4
f 158/2/4 159/2/4 167/2/4
f 166/4/4 158/4/4 167/4/4
f 167/2/4 159/2/4 168/2/4
f 169/3/4 170/3/4 171/3/4
f 171/3/4 170/3/4 172/3/4
f 173/3/4 174/3/4 175/3/4
f 175/3/4 174/3/4 176/3/4
f 177/1/4 178/1/4 179/1/4
f 179/1/4 178/1/4 180/1/4
f 181/1/4 182/1/4 183/1/4
f 183/1/4 182/1/4 184/1/4
f 185/1/4 186/1/4 187/1/4
f 187/1/4 186/1/4 188/1/4
f 197/3/5 190/3/5 189/3/5
f 198/3/5 192/3/5 191/3/5
f 199/3/5 194/3/5 193/3/5
f 200/3/5 196/3/5 195/3/5
f 201/3/5 197/3/5 189/3/5
f 201/3/5 198/3/5 197/3/5
f 202/3/5 192/3/5 198/3/5
f 202/3/5 198/3/5 201/3/5
f 203/3/5 199/3/5 193/3/5
f 203/3/5 200/3/5 199/3/5
f 204/3/5 196/3/5 200/3/5
f 204/3/5 200/3/5 203/3/5
f 207/1/5 206/1/5 205/1/5
f 208/1/5 206/1/5 207/1/5
f 209/1/5 206/1/5 208/1/5
f 210/1/5 206/1/5 209/1/5
f 212/1/5 209/1/5 208/1/5
f 213/1/5 209/1/5 212/1/5
f 215/1/5 212/1/5 211/1/5
f 215/1/5 214/1/5 213/1/5
f 215/1/5 213/1/5 212/1/5
f 216/1/5 214/1/5 215/1/5
f 221/1/5 218/1/5 217/1/5
f 222/1/5 218/1/5 221/1/5
f 223/1/5 220/1/5 219/1/5
f 224/1/5 220/1/5 223/1/5
f 227/3/5 226/3/5 225/3/5
f 228/3/5 226/3/5 227/3/5
f 229/3/6 230/3/6 237/3/6
f 231/3/6 232/3/6 238/3/6
f 233/3/6 234/3/6 239/3/6
f 235/3/6 236/3/6 240/3/6
f 229/3/6 237/3/6 241/3/6
f 237/3/6 238/3/6 241/3/6
f 238/3/6 232/3/6 242/3/6
f 241/3/6 238/3/6 242/3/6
f 233/3/6 239/3/6 243/3/6
f 239/3/6 240/3/6 243/3/6
f 240/3/6 236/3/6 244/3/6
f 243/3/6 240/3/6 244/3/6
f 229/3/6 241/3/6 245/3/6
f 242/3/6 232/3/6 246/3/6
f 233/3/6 243/3/6 247/3/6
f 244/3/6 236/3/6 248/3/6
f 229/3/6 245/3/6 249/3/6
f 245/3/6 246/3/6 249/3/6
f 246/3/6 232/3/6 250/3/6
f 249/3/6 246/3/6 250/3/6
f 247/3/6 248/3/6 251/3/6
f 233/3/6 247/3/6 251/3/6
f 248/3/6 236/3/6 252/3/6
f 251/3/6 248/3/6 252/3/6
f 253/1/6 254/1/6 257/1/6
f 257/1/6 254/1/6 258/1/6
f 255/1/6 256/1/6 259/1/6
f 259/1/6 256/1/6 260/1/6
f 261/1/6 262/1/6 263/1/6
f 263/1/6 262/1/6 264/1/6
f 265/3/6 266/3/6 267/3/6
f 267/3/6 266/3/6 268/3/6
f 269/2/6 270/2/6 271/2/6
f 271/2/6 270/2/6 272/2/6
