# MagicaVoxel @ Ephtracy

# group
o 

# material
mtllib frog.mtl
usemtl palette

# normals
vn -1 0 0
vn 1 0 0
vn 0 0 1
vn 0 0 -1
vn 0 -1 0
vn 0 1 0

# texcoords
vt 0.939453 0.5
vt 0.970703 0.5
vt 0.974609 0.5
vt 0.978516 0.5
vt 0.982422 0.5

# verts
v -0.6 0.6 0.7
v -0.6 0.6 -0.3
v -0.6 0.7 0.5
v -0.6 0.7 0.4
v -0.6 0.7 0.2
v -0.6 0.7 0.1
v -0.6 0.7 -0.1
v -0.6 0.7 -0.2
v -0.6 0.8 0.5
v -0.6 0.8 0.4
v -0.6 0.8 0.2
v -0.6 0.8 0.1
v -0.6 0.8 -0.1
v -0.6 0.8 -0.2
v -0.6 0.9 0.7
v -0.6 0.9 0.4
v -0.6 0.9 0.3
v -0.6 0.9 0.2
v -0.6 0.9 -5.96046e-08
v -0.6 0.9 -0.1
v -0.6 1 0.3
v -0.6 1 0.2
v -0.6 1 -5.96046e-08
v -0.6 1 -0.1
v -0.6 1.1 0.2
v -0.6 1.1 0.1
v -0.6 1.1 -0.1
v -0.6 1.1 -0.2
v -0.6 1.2 0.7
v -0.6 1.2 0.4
v -0.6 1.2 0.2
v -0.6 1.2 0.1
v -0.6 1.2 -0.1
v -0.6 1.2 -0.2
v -0.6 1.3 0.7
v -0.6 1.3 -0.3
v -0.5 0.2 0.7
v -0.5 0.2 0.4
v -0.5 0.2 0.1
v -0.5 0.2 -0.2
v -0.5 0.3 0.7
v -0.5 0.3 0.6
v -0.5 0.3 0.1
v -0.5 0.3 -5.96046e-08
v -0.5 0.6 0.6
v -0.5 0.6 0.4
v -0.5 0.6 -5.96046e-08
v -0.5 0.6 -0.2
v -0.5 0.9 0.6
v -0.5 0.9 0.4
v -0.5 1.2 0.6
v -0.5 1.2 0.4
v -0.5 1.3 0.6
v -0.5 1.3 0.3
v -0.5 1.5 0.4
v -0.5 1.5 0.3
v -0.5 1.6 0.6
v -0.5 1.6 0.4
v 0.1 1.3 0.6
v 0.1 1.3 0.3
v 0.1 1.5 0.4
v 0.1 1.5 0.3
v 0.1 1.6 0.6
v 0.1 1.6 0.4
v 0.2 0.2 0.7
v 0.2 0.2 0.4
v 0.2 0.2 0.1
v 0.2 0.2 -0.2
v 0.2 0.3 0.7
v 0.2 0.3 0.6
v 0.2 0.3 0.1
v 0.2 0.3 -5.96046e-08
v 0.2 0.6 0.6
v 0.2 0.6 0.4
v 0.2 0.6 -5.96046e-08
v 0.2 0.6 -0.2
v -0.2 0.2 0.7
v -0.2 0.2 0.4
v -0.2 0.2 0.1
v -0.2 0.2 -0.2
v -0.2 0.3 0.7
v -0.2 0.3 0.6
v -0.2 0.3 0.1
v -0.2 0.3 -5.96046e-08
v -0.2 0.6 0.6
v -0.2 0.6 0.4
v -0.2 0.6 -5.96046e-08
v -0.2 0.6 -0.2
v -0.0999999 1.3 0.6
v -0.0999999 1.3 0.3
v -0.0999999 1.5 0.4
v -0.0999999 1.5 0.3
v -0.0999999 1.6 0.6
v -0.0999999 1.6 0.4
v 0.5 0.2 0.7
v 0.5 0.2 0.4
v 0.5 0.2 0.1
v 0.5 0.2 -0.2
v 0.5 0.3 0.7
v 0.5 0.3 0.6
v 0.5 0.3 0.1
v 0.5 0.3 -5.96046e-08
v 0.5 0.6 0.6
v 0.5 0.6 0.4
v 0.5 0.6 -5.96046e-08
v 0.5 0.6 -0.2
v 0.5 0.9 0.6
v 0.5 0.9 0.4
v 0.5 1.2 0.6
v 0.5 1.2 0.4
v 0.5 1.3 0.6
v 0.5 1.3 0.3
v 0.5 1.5 0.4
v 0.5 1.5 0.3
v 0.5 1.6 0.6
v 0.5 1.6 0.4
v 0.6 0.6 0.7
v 0.6 0.6 -0.3
v 0.6 0.7 0.5
v 0.6 0.7 0.4
v 0.6 0.7 0.2
v 0.6 0.7 0.1
v 0.6 0.7 -0.1
v 0.6 0.7 -0.2
v 0.6 0.8 0.5
v 0.6 0.8 0.4
v 0.6 0.8 0.2
v 0.6 0.8 0.1
v 0.6 0.8 -0.1
v 0.6 0.8 -0.2
v 0.6 0.9 0.7
v 0.6 0.9 0.4
v 0.6 0.9 0.3
v 0.6 0.9 0.2
v 0.6 0.9 -5.96046e-08
v 0.6 0.9 -0.1
v 0.6 1 0.3
v 0.6 1 0.2
v 0.6 1 -5.96046e-08
v 0.6 1 -0.1
v 0.6 1.1 0.2
v 0.6 1.1 0.1
v 0.6 1.1 -0.1
v 0.6 1.1 -0.2
v 0.6 1.2 0.7
v 0.6 1.2 0.4
v 0.6 1.2 0.2
v 0.6 1.2 0.1
v 0.6 1.2 -0.1
v 0.6 1.2 -0.2
v 0.6 1.3 0.7
v 0.6 1.3 -0.3
v -0.6 0.6 0.7
v -0.6 0.9 0.7
v -0.6 1.2 0.7
v -0.6 1.3 0.7
v -0.5 0.2 0.7
v -0.5 0.3 0.7
v -0.5 0.8 0.7
v -0.5 0.9 0.7
v -0.4 0.6 0.7
v -0.4 0.7 0.7
v -0.4 0.8 0.7
v -0.4 0.9 0.7
v -0.3 0.6 0.7
v -0.3 0.7 0.7
v -0.2 0.2 0.7
v -0.2 0.3 0.7
v -0.2 0.8 0.7
v -0.2 0.9 0.7
v -0.0999999 0.8 0.7
v -0.0999999 0.9 0.7
v 5.96046e-08 0.6 0.7
v 5.96046e-08 0.7 0.7
v 0.1 0.6 0.7
v 0.1 0.7 0.7
v 0.1 0.8 0.7
v 0.1 0.9 0.7
v 0.2 0.2 0.7
v 0.2 0.3 0.7
v 0.2 0.8 0.7
v 0.2 0.9 0.7
v 0.3 0.6 0.7
v 0.3 0.7 0.7
v 0.4 0.6 0.7
v 0.4 0.7 0.7
v 0.4 0.8 0.7
v 0.4 0.9 0.7
v 0.5 0.2 0.7
v 0.5 0.3 0.7
v 0.5 0.8 0.7
v 0.5 0.9 0.7
v 0.6 0.6 0.7
v 0.6 0.9 0.7
v 0.6 1.2 0.7
v 0.6 1.3 0.7
v -0.5 0.3 0.6
v -0.5 0.6 0.6
v -0.5 0.9 0.6
v -0.5 1.2 0.6
v -0.5 1.3 0.6
v -0.5 1.6 0.6
v -0.4 0.6 0.6
v -0.4 0.9 0.6
v -0.4 1.3 0.6
v -0.4 1.4 0.6
v -0.4 1.5 0.6
v -0.3 0.6 0.6
v -0.3 1.4 0.6
v -0.3 1.5 0.6
v -0.2 0.3 0.6
v -0.2 0.6 0.6
v -0.2 0.9 0.6
v -0.2 1.3 0.6
v -0.2 1.5 0.6
v -0.0999999 0.9 0.6
v -0.0999999 1.3 0.6
v -0.0999999 1.6 0.6
v 0.1 0.9 0.6
v 0.1 1.3 0.6
v 0.1 1.6 0.6
v 0.2 0.3 0.6
v 0.2 0.6 0.6
v 0.2 0.9 0.6
v 0.2 1.3 0.6
v 0.2 1.4 0.6
v 0.2 1.5 0.6
v 0.3 0.6 0.6
v 0.3 1.4 0.6
v 0.3 1.5 0.6
v 0.4 0.6 0.6
v 0.4 0.9 0.6
v 0.4 1.3 0.6
v 0.4 1.5 0.6
v 0.5 0.3 0.6
v 0.5 0.6 0.6
v 0.5 0.9 0.6
v 0.5 1.2 0.6
v 0.5 1.3 0.6
v 0.5 1.6 0.6
v -0.6 0.9 0.4
v -0.6 1.2 0.4
v -0.5 0.9 0.4
v -0.5 1.2 0.4
v 0.5 0.9 0.4
v 0.5 1.2 0.4
v 0.6 0.9 0.4
v 0.6 1.2 0.4
v -0.5 0.2 0.1
v -0.5 0.3 0.1
v -0.2 0.2 0.1
v -0.2 0.3 0.1
v 0.2 0.2 0.1
v 0.2 0.3 0.1
v 0.5 0.2 0.1
v 0.5 0.3 0.1
v -0.5 0.3 -5.96046e-08
v -0.5 0.6 -5.96046e-08
v -0.2 0.3 -5.96046e-08
v -0.2 0.6 -5.96046e-08
v 0.2 0.3 -5.96046e-08
v 0.2 0.6 -5.96046e-08
v 0.5 0.3 -5.96046e-08
v 0.5 0.6 -5.96046e-08
v -0.5 0.2 0.4
v -0.5 0.6 0.4
v -0.5 1.5 0.4
v -0.5 1.6 0.4
v -0.2 0.2 0.4
v -0.2 0.6 0.4
v -0.0999999 1.5 0.4
v -0.0999999 1.6 0.4
v 0.1 1.5 0.4
v 0.1 1.6 0.4
v 0.2 0.2 0.4
v 0.2 0.6 0.4
v 0.5 0.2 0.4
v 0.5 0.6 0.4
v 0.5 1.5 0.4
v 0.5 1.6 0.4
v -0.5 1.3 0.3
v -0.5 1.5 0.3
v -0.0999999 1.3 0.3
v -0.0999999 1.5 0.3
v 0.1 1.3 0.3
v 0.1 1.5 0.3
v 0.5 1.3 0.3
v 0.5 1.5 0.3
v -0.5 0.2 -0.2
v -0.5 0.6 -0.2
v -0.2 0.2 -0.2
v -0.2 0.6 -0.2
v 0.2 0.2 -0.2
v 0.2 0.6 -0.2
v 0.5 0.2 -0.2
v 0.5 0.6 -0.2
v -0.6 0.6 -0.3
v -0.6 1.3 -0.3
v -0.5 0.9 -0.3
v -0.5 1 -0.3
v -0.4 0.7 -0.3
v -0.4 0.8 -0.3
v -0.4 0.9 -0.3
v -0.4 1 -0.3
v -0.3 0.7 -0.3
v -0.3 0.8 -0.3
v -0.3 1.1 -0.3
v -0.3 1.2 -0.3
v -0.2 1.1 -0.3
v -0.2 1.2 -0.3
v -0.0999999 0.9 -0.3
v -0.0999999 1 -0.3
v 5.96046e-08 0.9 -0.3
v 5.96046e-08 1 -0.3
v 0.2 0.7 -0.3
v 0.2 0.8 -0.3
v 0.2 1.1 -0.3
v 0.2 1.2 -0.3
v 0.3 0.7 -0.3
v 0.3 0.8 -0.3
v 0.3 1.1 -0.3
v 0.3 1.2 -0.3
v 0.4 0.9 -0.3
v 0.4 1 -0.3
v 0.5 0.9 -0.3
v 0.5 1 -0.3
v 0.6 0.6 -0.3
v 0.6 1.3 -0.3
v -0.5 0.2 0.7
v -0.2 0.2 0.7
v 0.2 0.2 0.7
v 0.5 0.2 0.7
v -0.5 0.2 0.4
v -0.2 0.2 0.4
v 0.2 0.2 0.4
v 0.5 0.2 0.4
v -0.5 0.2 0.1
v -0.2 0.2 0.1
v 0.2 0.2 0.1
v 0.5 0.2 0.1
v -0.5 0.2 -0.2
v -0.2 0.2 -0.2
v 0.2 0.2 -0.2
v 0.5 0.2 -0.2
v -0.6 0.6 0.7
v -0.4 0.6 0.7
v -0.3 0.6 0.7
v 5.96046e-08 0.6 0.7
v 0.1 0.6 0.7
v 0.3 0.6 0.7
v 0.4 0.6 0.7
v 0.6 0.6 0.7
v -0.5 0.6 0.6
v -0.4 0.6 0.6
v -0.3 0.6 0.6
v -0.2 0.6 0.6
v 5.96046e-08 0.6 0.6
v 0.1 0.6 0.6
v 0.2 0.6 0.6
v 0.3 0.6 0.6
v 0.4 0.6 0.6
v 0.5 0.6 0.6
v -0.5 0.6 0.4
v -0.2 0.6 0.4
v 0.2 0.6 0.4
v 0.5 0.6 0.4
v -0.5 0.6 -5.96046e-08
v -0.2 0.6 -5.96046e-08
v 0.2 0.6 -5.96046e-08
v 0.5 0.6 -5.96046e-08
v -0.5 0.6 -0.2
v -0.2 0.6 -0.2
v 0.2 0.6 -0.2
v 0.5 0.6 -0.2
v -0.6 0.6 -0.3
v 0.6 0.6 -0.3
v -0.6 1.2 0.7
v 0.6 1.2 0.7
v -0.5 1.2 0.6
v 0.5 1.2 0.6
v -0.6 1.2 0.4
v -0.5 1.2 0.4
v 0.5 1.2 0.4
v 0.6 1.2 0.4
v -0.5 0.3 0.7
v -0.2 0.3 0.7
v 0.2 0.3 0.7
v 0.5 0.3 0.7
v -0.5 0.3 0.6
v -0.2 0.3 0.6
v 0.2 0.3 0.6
v 0.5 0.3 0.6
v -0.5 0.3 0.1
v -0.2 0.3 0.1
v 0.2 0.3 0.1
v 0.5 0.3 0.1
v -0.5 0.3 -5.96046e-08
v -0.2 0.3 -5.96046e-08
v 0.2 0.3 -5.96046e-08
v 0.5 0.3 -5.96046e-08
v -0.6 0.9 0.7
v -0.5 0.9 0.7
v -0.4 0.9 0.7
v -0.2 0.9 0.7
v -0.0999999 0.9 0.7
v 0.1 0.9 0.7
v 0.2 0.9 0.7
v 0.4 0.9 0.7
v 0.5 0.9 0.7
v 0.6 0.9 0.7
v -0.5 0.9 0.6
v -0.4 0.9 0.6
v -0.2 0.9 0.6
v -0.0999999 0.9 0.6
v 0.1 0.9 0.6
v 0.2 0.9 0.6
v 0.4 0.9 0.6
v 0.5 0.9 0.6
v -0.6 0.9 0.4
v -0.5 0.9 0.4
v 0.5 0.9 0.4
v 0.6 0.9 0.4
v -0.6 1.3 0.7
v 0.6 1.3 0.7
v -0.5 1.3 0.6
v -0.4 1.3 0.6
v -0.2 1.3 0.6
v -0.0999999 1.3 0.6
v 0.1 1.3 0.6
v 0.2 1.3 0.6
v 0.4 1.3 0.6
v 0.5 1.3 0.6
v -0.5 1.3 0.3
v -0.0999999 1.3 0.3
v 0.1 1.3 0.3
v 0.5 1.3 0.3
v -0.2 1.3 0.2
v -0.0999999 1.3 0.2
v 0.3 1.3 0.2
v 0.4 1.3 0.2
v -0.2 1.3 0.1
v -0.0999999 1.3 0.1
v 0.3 1.3 0.1
v 0.4 1.3 0.1
v -0.5 1.3 -5.96046e-08
v -0.4 1.3 -5.96046e-08
v -0.5 1.3 -0.1
v -0.4 1.3 -0.1
v 5.96046e-08 1.3 -0.1
v 0.1 1.3 -0.1
v 0.4 1.3 -0.1
v 0.5 1.3 -0.1
v 5.96046e-08 1.3 -0.2
v 0.1 1.3 -0.2
v 0.4 1.3 -0.2
v 0.5 1.3 -0.2
v -0.6 1.3 -0.3
v 0.6 1.3 -0.3
v -0.5 1.5 0.4
v -0.0999999 1.5 0.4
v 0.1 1.5 0.4
v 0.5 1.5 0.4
v -0.5 1.5 0.3
v -0.0999999 1.5 0.3
v 0.1 1.5 0.3
v 0.5 1.5 0.3
v -0.5 1.6 0.6
v -0.0999999 1.6 0.6
v 0.1 1.6 0.6
v 0.5 1.6 0.6
v -0.5 1.6 0.4
v -0.0999999 1.6 0.4
v 0.1 1.6 0.4
v 0.5 1.6 0.4

# faces
f 3/2/1 2/2/1 1/2/1
f 4/2/1 2/2/1 3/2/1
f 5/2/1 2/2/1 4/2/1
f 6/2/1 2/2/1 5/2/1
f 7/2/1 2/2/1 6/2/1
f 8/2/1 2/2/1 7/2/1
f 9/2/1 3/2/1 1/2/1
f 9/1/1 4/1/1 3/1/1
f 10/2/1 5/2/1 4/2/1
f 10/1/1 4/1/1 9/1/1
f 11/1/1 6/1/1 5/1/1
f 11/2/1 5/2/1 10/2/1
f 12/2/1 7/2/1 6/2/1
f 12/1/1 6/1/1 11/1/1
f 13/1/1 8/1/1 7/1/1
f 13/2/1 7/2/1 12/2/1
f 14/2/1 2/2/1 8/2/1
f 14/1/1 8/1/1 13/1/1
f 15/2/1 13/2/1 12/2/1
f 15/2/1 12/2/1 11/2/1
f 15/2/1 14/2/1 13/2/1
f 15/2/1 11/2/1 10/2/1
f 15/2/1 10/2/1 9/2/1
f 15/2/1 9/2/1 1/2/1
f 16/2/1 14/2/1 15/2/1
f 17/2/1 14/2/1 16/2/1
f 18/2/1 14/2/1 17/2/1
f 19/2/1 14/2/1 18/2/1
f 20/2/1 14/2/1 19/2/1
f 21/2/1 17/2/1 16/2/1
f 21/1/1 18/1/1 17/1/1
f 22/2/1 19/2/1 18/2/1
f 22/1/1 18/1/1 21/1/1
f 23/1/1 20/1/1 19/1/1
f 23/2/1 19/2/1 22/2/1
f 24/2/1 14/2/1 20/2/1
f 24/1/1 20/1/1 23/1/1
f 25/2/1 23/2/1 22/2/1
f 25/2/1 22/2/1 21/2/1
f 25/2/1 24/2/1 23/2/1
f 26/2/1 24/2/1 25/2/1
f 27/2/1 14/2/1 24/2/1
f 27/2/1 24/2/1 26/2/1
f 28/2/1 2/2/1 14/2/1
f 28/2/1 14/2/1 27/2/1
f 30/2/1 21/2/1 16/2/1
f 30/2/1 25/2/1 21/2/1
f 31/1/1 26/1/1 25/1/1
f 31/2/1 25/2/1 30/2/1
f 32/2/1 27/2/1 26/2/1
f 32/1/1 26/1/1 31/1/1
f 33/1/1 28/1/1 27/1/1
f 33/2/1 27/2/1 32/2/1
f 34/2/1 2/2/1 28/2/1
f 34/1/1 28/1/1 33/1/1
f 35/2/1 31/2/1 30/2/1
f 35/2/1 30/2/1 29/2/1
f 35/2/1 34/2/1 33/2/1
f 35/2/1 33/2/1 32/2/1
f 35/2/1 32/2/1 31/2/1
f 36/2/1 2/2/1 34/2/1
f 36/2/1 34/2/1 35/2/1
f 41/2/1 38/2/1 37/2/1
f 42/2/1 38/2/1 41/2/1
f 43/2/1 40/2/1 39/2/1
f 44/2/1 40/2/1 43/2/1
f 45/2/1 38/2/1 42/2/1
f 46/2/1 38/2/1 45/2/1
f 47/2/1 40/2/1 44/2/1
f 48/2/1 40/2/1 47/2/1
f 51/5/1 50/5/1 49/5/1
f 52/5/1 50/5/1 51/5/1
f 55/2/1 54/2/1 53/2/1
f 56/2/1 54/2/1 55/2/1
f 57/2/1 55/2/1 53/2/1
f 58/2/1 55/2/1 57/2/1
f 61/2/1 60/2/1 59/2/1
f 62/2/1 60/2/1 61/2/1
f 63/2/1 61/2/1 59/2/1
f 64/2/1 61/2/1 63/2/1
f 69/2/1 66/2/1 65/2/1
f 70/2/1 66/2/1 69/2/1
f 71/2/1 68/2/1 67/2/1
f 72/2/1 68/2/1 71/2/1
f 73/2/1 66/2/1 70/2/1
f 74/2/1 66/2/1 73/2/1
f 75/2/1 68/2/1 72/2/1
f 76/2/1 68/2/1 75/2/1
f 77/2/2 78/2/2 81/2/2
f 81/2/2 78/2/2 82/2/2
f 79/2/2 80/2/2 83/2/2
f 83/2/2 80/2/2 84/2/2
f 82/2/2 78/2/2 85/2/2
f 85/2/2 78/2/2 86/2/2
f 84/2/2 80/2/2 87/2/2
f 87/2/2 80/2/2 88/2/2
f 89/2/2 90/2/2 91/2/2
f 91/2/2 90/2/2 92/2/2
f 89/2/2 91/2/2 93/2/2
f 93/2/2 91/2/2 94/2/2
f 95/2/2 96/2/2 99/2/2
f 99/2/2 96/2/2 100/2/2
f 97/2/2 98/2/2 101/2/2
f 101/2/2 98/2/2 102/2/2
f 100/2/2 96/2/2 103/2/2
f 103/2/2 96/2/2 104/2/2
f 102/2/2 98/2/2 105/2/2
f 105/2/2 98/2/2 106/2/2
f 107/5/2 108/5/2 109/5/2
f 109/5/2 108/5/2 110/5/2
f 111/2/2 112/2/2 113/2/2
f 113/2/2 112/2/2 114/2/2
f 111/2/2 113/2/2 115/2/2
f 115/2/2 113/2/2 116/2/2
f 117/2/2 118/2/2 119/2/2
f 119/2/2 118/2/2 120/2/2
f 120/2/2 118/2/2 121/2/2
f 121/2/2 118/2/2 122/2/2
f 122/2/2 118/2/2 123/2/2
f 123/2/2 118/2/2 124/2/2
f 117/2/2 119/2/2 125/2/2
f 119/1/2 120/1/2 125/1/2
f 120/2/2 121/2/2 126/2/2
f 125/1/2 120/1/2 126/1/2
f 121/1/2 122/1/2 127/1/2
f 126/2/2 121/2/2 127/2/2
f 122/2/2 123/2/2 128/2/2
f 127/1/2 122/1/2 128/1/2
f 123/1/2 124/1/2 129/1/2
f 128/2/2 123/2/2 129/2/2
f 124/2/2 118/2/2 130/2/2
f 129/1/2 124/1/2 130/1/2
f 128/2/2 129/2/2 131/2/2
f 127/2/2 128/2/2 131/2/2
f 129/2/2 130/2/2 131/2/2
f 126/2/2 127/2/2 131/2/2
f 125/2/2 126/2/2 131/2/2
f 117/2/2 125/2/2 131/2/2
f 131/2/2 130/2/2 132/2/2
f 132/2/2 130/2/2 133/2/2
f 133/2/2 130/2/2 134/2/2
f 134/2/2 130/2/2 135/2/2
f 135/2/2 130/2/2 136/2/2
f 132/2/2 133/2/2 137/2/2
f 133/1/2 134/1/2 137/1/2
f 134/2/2 135/2/2 138/2/2
f 137/1/2 134/1/2 138/1/2
f 135/1/2 136/1/2 139/1/2
f 138/2/2 135/2/2 139/2/2
f 136/2/2 130/2/2 140/2/2
f 139/1/2 136/1/2 140/1/2
f 138/2/2 139/2/2 141/2/2
f 137/2/2 138/2/2 141/2/2
f 139/2/2 140/2/2 141/2/2
f 141/2/2 140/2/2 142/2/2
f 140/2/2 130/2/2 143/2/2
f 142/2/2 140/2/2 143/2/2
f 130/2/2 118/2/2 144/2/2
f 143/2/2 130/2/2 144/2/2
f 132/2/2 137/2/2 146/2/2
f 137/2/2 141/2/2 146/2/2
f 141/1/2 142/1/2 147/1/2
f 146/2/2 141/2/2 147/2/2
f 142/2/2 143/2/2 148/2/2
f 147/1/2 142/1/2 148/1/2
f 143/1/2 144/1/2 149/1/2
f 148/2/2 143/2/2 149/2/2
f 144/2/2 118/2/2 150/2/2
f 149/1/2 144/1/2 150/1/2
f 146/2/2 147/2/2 151/2/2
f 145/2/2 146/2/2 151/2/2
f 149/2/2 150/2/2 151/2/2
f 148/2/2 149/2/2 151/2/2
f 147/2/2 148/2/2 151/2/2
f 150/2/2 118/2/2 152/2/2
f 151/2/2 150/2/2 152/2/2
f 159/2/3 154/2/3 153/2/3
f 160/2/3 154/2/3 159/2/3
f 161/2/3 159/2/3 153/2/3
f 162/2/3 159/2/3 161/2/3
f 163/1/3 160/1/3 159/1/3
f 163/2/3 159/2/3 162/2/3
f 164/1/3 160/1/3 163/1/3
f 165/1/3 162/1/3 161/1/3
f 166/2/3 163/2/3 162/2/3
f 166/1/3 162/1/3 165/1/3
f 166/2/3 164/2/3 163/2/3
f 167/2/3 158/2/3 157/2/3
f 168/2/3 158/2/3 167/2/3
f 169/2/3 164/2/3 166/2/3
f 169/2/3 166/2/3 165/2/3
f 170/2/3 164/2/3 169/2/3
f 171/2/3 169/2/3 165/2/3
f 171/1/3 170/1/3 169/1/3
f 172/1/3 170/1/3 171/1/3
f 173/2/3 171/2/3 165/2/3
f 173/2/3 172/2/3 171/2/3
f 174/2/3 172/2/3 173/2/3
f 175/1/3 174/1/3 173/1/3
f 176/2/3 172/2/3 174/2/3
f 176/1/3 174/1/3 175/1/3
f 177/2/3 172/2/3 176/2/3
f 178/2/3 172/2/3 177/2/3
f 181/2/3 176/2/3 175/2/3
f 181/2/3 177/2/3 176/2/3
f 181/1/3 178/1/3 177/1/3
f 182/1/3 178/1/3 181/1/3
f 183/2/3 181/2/3 175/2/3
f 183/2/3 182/2/3 181/2/3
f 184/2/3 182/2/3 183/2/3
f 185/1/3 184/1/3 183/1/3
f 186/2/3 182/2/3 184/2/3
f 186/1/3 184/1/3 185/1/3
f 187/2/3 182/2/3 186/2/3
f 188/2/3 182/2/3 187/2/3
f 189/2/3 180/2/3 179/2/3
f 190/2/3 180/2/3 189/2/3
f 191/2/3 186/2/3 185/2/3
f 191/2/3 187/2/3 186/2/3
f 191/1/3 188/1/3 187/1/3
f 192/1/3 188/1/3 191/1/3
f 193/2/3 191/2/3 185/2/3
f 193/2/3 192/2/3 191/2/3
f 194/2/3 192/2/3 193/2/3
f 195/2/3 156/2/3 155/2/3
f 196/2/3 156/2/3 195/2/3
f 203/2/3 198/2/3 197/2/3
f 204/5/3 200/5/3 199/5/3
f 205/2/3 202/2/3 201/2/3
f 206/2/3 202/2/3 205/2/3
f 207/2/3 202/2/3 206/2/3
f 208/2/3 203/2/3 197/2/3
f 209/4/3 206/4/3 205/4/3
f 209/3/3 207/3/3 206/3/3
f 210/2/3 202/2/3 207/2/3
f 210/3/3 207/3/3 209/3/3
f 211/2/3 208/2/3 197/2/3
f 212/2/3 208/2/3 211/2/3
f 213/5/3 200/5/3 204/5/3
f 214/4/3 209/4/3 205/4/3
f 214/4/3 210/4/3 209/4/3
f 215/2/3 202/2/3 210/2/3
f 215/4/3 210/4/3 214/4/3
f 216/5/3 200/5/3 213/5/3
f 217/2/3 215/2/3 214/2/3
f 218/2/3 202/2/3 215/2/3
f 218/2/3 215/2/3 217/2/3
f 219/5/3 200/5/3 216/5/3
f 224/5/3 200/5/3 219/5/3
f 225/2/3 221/2/3 220/2/3
f 226/2/3 221/2/3 225/2/3
f 227/2/3 221/2/3 226/2/3
f 228/2/3 223/2/3 222/2/3
f 229/4/3 226/4/3 225/4/3
f 229/3/3 227/3/3 226/3/3
f 230/2/3 221/2/3 227/2/3
f 230/3/3 227/3/3 229/3/3
f 231/2/3 228/2/3 222/2/3
f 232/5/3 200/5/3 224/5/3
f 233/4/3 229/4/3 225/4/3
f 233/4/3 230/4/3 229/4/3
f 234/2/3 221/2/3 230/2/3
f 234/4/3 230/4/3 233/4/3
f 235/2/3 231/2/3 222/2/3
f 236/2/3 231/2/3 235/2/3
f 237/5/3 200/5/3 232/5/3
f 238/5/3 200/5/3 237/5/3
f 239/2/3 234/2/3 233/2/3
f 240/2/3 221/2/3 234/2/3
f 240/2/3 234/2/3 239/2/3
f 243/2/3 242/2/3 241/2/3
f 244/2/3 242/2/3 243/2/3
f 247/2/3 246/2/3 245/2/3
f 248/2/3 246/2/3 247/2/3
f 251/2/3 250/2/3 249/2/3
f 252/2/3 250/2/3 251/2/3
f 255/2/3 254/2/3 253/2/3
f 256/2/3 254/2/3 255/2/3
f 259/2/3 258/2/3 257/2/3
f 260/2/3 258/2/3 259/2/3
f 263/2/3 262/2/3 261/2/3
f 264/2/3 262/2/3 263/2/3
f 265/2/4 266/2/4 269/2/4
f 269/2/4 266/2/4 270/2/4
f 267/2/4 268/2/4 271/2/4
f 271/2/4 268/2/4 272/2/4
f 275/2/4 276/2/4 277/2/4
f 277/2/4 276/2/4 278/2/4
f 273/2/4 274/2/4 279/2/4
f 279/2/4 274/2/4 280/2/4
f 281/2/4 282/2/4 283/2/4
f 283/2/4 282/2/4 284/2/4
f 285/2/4 286/2/4 287/2/4
f 287/2/4 286/2/4 288/2/4
f 289/2/4 290/2/4 291/2/4
f 291/2/4 290/2/4 292/2/4
f 293/2/4 294/2/4 295/2/4
f 295/2/4 294/2/4 296/2/4
f 297/2/4 298/2/4 299/2/4
f 299/2/4 298/2/4 300/2/4
f 297/2/4 299/2/4 301/2/4
f 301/2/4 299/2/4 302/2/4
f 299/1/4 300/1/4 303/1/4
f 302/2/4 299/2/4 303/2/4
f 300/2/4 298/2/4 304/2/4
f 303/1/4 300/1/4 304/1/4
f 301/1/4 302/1/4 305/1/4
f 297/2/4 301/2/4 305/2/4
f 302/2/4 303/2/4 306/2/4
f 305/1/4 302/1/4 306/1/4
f 303/2/4 304/2/4 306/2/4
f 304/2/4 298/2/4 307/2/4
f 306/2/4 304/2/4 307/2/4
f 307/2/4 298/2/4 308/2/4
f 305/2/4 306/2/4 309/2/4
f 306/2/4 307/2/4 309/2/4
f 307/1/4 308/1/4 309/1/4
f 308/2/4 298/2/4 310/2/4
f 309/1/4 308/1/4 310/1/4
f 305/2/4 309/2/4 311/2/4
f 309/2/4 310/2/4 311/2/4
f 311/2/4 310/2/4 312/2/4
f 305/2/4 311/2/4 313/2/4
f 311/1/4 312/1/4 313/1/4
f 312/2/4 310/2/4 314/2/4
f 313/1/4 312/1/4 314/1/4
f 297/2/4 305/2/4 315/2/4
f 305/2/4 313/2/4 315/2/4
f 313/2/4 314/2/4 315/2/4
f 315/2/4 314/2/4 316/2/4
f 314/2/4 310/2/4 317/2/4
f 316/2/4 314/2/4 317/2/4
f 310/2/4 298/2/4 318/2/4
f 317/2/4 310/2/4 318/2/4
f 315/1/4 316/1/4 319/1/4
f 297/2/4 315/2/4 319/2/4
f 316/2/4 317/2/4 320/2/4
f 319/1/4 316/1/4 320/1/4
f 317/1/4 318/1/4 321/1/4
f 320/2/4 317/2/4 321/2/4
f 318/2/4 298/2/4 322/2/4
f 321/1/4 318/1/4 322/1/4
f 320/2/4 321/2/4 323/2/4
f 319/2/4 320/2/4 323/2/4
f 321/2/4 322/2/4 323/2/4
f 323/2/4 322/2/4 324/2/4
f 319/2/4 323/2/4 325/2/4
f 323/1/4 324/1/4 325/1/4
f 324/2/4 322/2/4 326/2/4
f 325/1/4 324/1/4 326/1/4
f 297/2/4 319/2/4 327/2/4
f 319/2/4 325/2/4 327/2/4
f 325/2/4 326/2/4 327/2/4
f 322/2/4 298/2/4 328/2/4
f 327/2/4 326/2/4 328/2/4
f 326/2/4 322/2/4 328/2/4
f 333/2/5 330/2/5 329/2/5
f 334/2/5 330/2/5 333/2/5
f 335/2/5 332/2/5 331/2/5
f 336/2/5 332/2/5 335/2/5
f 341/2/5 338/2/5 337/2/5
f 342/2/5 338/2/5 341/2/5
f 343/2/5 340/2/5 339/2/5
f 344/2/5 340/2/5 343/2/5
f 353/2/5 346/2/5 345/2/5
f 354/1/5 347/1/5 346/1/5
f 354/2/5 346/2/5 353/2/5
f 355/2/5 348/2/5 347/2/5
f 355/1/5 347/1/5 354/1/5
f 356/2/5 348/2/5 355/2/5
f 357/1/5 349/1/5 348/1/5
f 357/2/5 348/2/5 356/2/5
f 358/2/5 350/2/5 349/2/5
f 358/1/5 349/1/5 357/1/5
f 359/2/5 350/2/5 358/2/5
f 360/1/5 351/1/5 350/1/5
f 360/2/5 350/2/5 359/2/5
f 361/2/5 352/2/5 351/2/5
f 361/1/5 351/1/5 360/1/5
f 362/2/5 352/2/5 361/2/5
f 363/2/5 353/2/5 345/2/5
f 364/2/5 358/2/5 357/2/5
f 364/2/5 359/2/5 358/2/5
f 364/2/5 357/2/5 356/2/5
f 365/2/5 359/2/5 364/2/5
f 366/2/5 352/2/5 362/2/5
f 367/2/5 365/2/5 364/2/5
f 367/2/5 366/2/5 365/2/5
f 367/2/5 363/2/5 345/2/5
f 367/2/5 364/2/5 363/2/5
f 368/2/5 366/2/5 367/2/5
f 369/2/5 366/2/5 368/2/5
f 370/2/5 352/2/5 366/2/5
f 370/2/5 366/2/5 369/2/5
f 371/2/5 367/2/5 345/2/5
f 372/2/5 369/2/5 368/2/5
f 373/2/5 369/2/5 372/2/5
f 374/2/5 352/2/5 370/2/5
f 375/2/5 371/2/5 345/2/5
f 375/2/5 374/2/5 373/2/5
f 375/2/5 373/2/5 372/2/5
f 375/2/5 372/2/5 371/2/5
f 376/2/5 352/2/5 374/2/5
f 376/2/5 374/2/5 375/2/5
f 379/2/5 378/2/5 377/2/5
f 380/2/5 378/2/5 379/2/5
f 381/2/5 379/2/5 377/2/5
f 382/2/5 379/2/5 381/2/5
f 383/2/5 378/2/5 380/2/5
f 384/2/5 378/2/5 383/2/5
f 385/2/6 386/2/6 389/2/6
f 389/2/6 386/2/6 390/2/6
f 387/2/6 388/2/6 391/2/6
f 391/2/6 388/2/6 392/2/6
f 393/2/6 394/2/6 397/2/6
f 397/2/6 394/2/6 398/2/6
f 395/2/6 396/2/6 399/2/6
f 399/2/6 396/2/6 400/2/6
f 401/2/6 402/2/6 411/2/6
f 402/1/6 403/1/6 411/1/6
f 403/2/6 404/2/6 412/2/6
f 411/1/6 403/1/6 412/1/6
f 404/1/6 405/1/6 413/1/6
f 412/2/6 404/2/6 413/2/6
f 405/2/6 406/2/6 414/2/6
f 413/1/6 405/1/6 414/1/6
f 406/1/6 407/1/6 415/1/6
f 414/2/6 406/2/6 415/2/6
f 407/2/6 408/2/6 416/2/6
f 415/1/6 407/1/6 416/1/6
f 408/1/6 409/1/6 417/1/6
f 416/2/6 408/2/6 417/2/6
f 409/2/6 410/2/6 418/2/6
f 417/1/6 409/1/6 418/1/6
f 401/2/6 411/2/6 419/2/6
f 419/2/6 411/2/6 420/2/6
f 418/2/6 410/2/6 421/2/6
f 421/2/6 410/2/6 422/2/6
f 423/2/6 424/2/6 425/2/6
f 425/2/6 424/2/6 426/2/6
f 426/2/6 424/2/6 427/2/6
f 427/2/6 424/2/6 428/2/6
f 428/2/6 424/2/6 429/2/6
f 429/2/6 424/2/6 430/2/6
f 430/2/6 424/2/6 431/2/6
f 431/2/6 424/2/6 432/2/6
f 423/2/6 425/2/6 433/2/6
f 428/2/6 429/2/6 434/2/6
f 434/2/6 429/2/6 435/2/6
f 432/2/6 424/2/6 436/2/6
f 434/2/6 435/2/6 437/2/6
f 435/2/6 436/2/6 437/2/6
f 433/2/6 434/2/6 437/2/6
f 437/2/6 436/2/6 438/2/6
f 438/2/6 436/2/6 439/2/6
f 439/2/6 436/2/6 440/2/6
f 433/2/6 437/2/6 441/2/6
f 437/1/6 438/1/6 441/1/6
f 438/2/6 439/2/6 442/2/6
f 441/1/6 438/1/6 442/1/6
f 439/1/6 440/1/6 443/1/6
f 442/2/6 439/2/6 443/2/6
f 440/2/6 436/2/6 444/2/6
f 443/1/6 440/1/6 444/1/6
f 423/2/6 433/2/6 445/2/6
f 442/2/6 443/2/6 445/2/6
f 443/2/6 444/2/6 445/2/6
f 433/2/6 441/2/6 445/2/6
f 441/2/6 442/2/6 445/2/6
f 445/2/6 444/2/6 446/2/6
f 423/2/6 445/2/6 447/2/6
f 445/1/6 446/1/6 447/1/6
f 446/2/6 444/2/6 448/2/6
f 447/1/6 446/1/6 448/1/6
f 448/2/6 444/2/6 449/2/6
f 449/2/6 444/2/6 450/2/6
f 444/2/6 436/2/6 451/2/6
f 450/2/6 444/2/6 451/2/6
f 436/2/6 424/2/6 452/2/6
f 451/2/6 436/2/6 452/2/6
f 449/1/6 450/1/6 453/1/6
f 447/2/6 448/2/6 453/2/6
f 448/2/6 449/2/6 453/2/6
f 450/2/6 451/2/6 454/2/6
f 453/1/6 450/1/6 454/1/6
f 451/1/6 452/1/6 455/1/6
f 454/2/6 451/2/6 455/2/6
f 452/2/6 424/2/6 456/2/6
f 455/1/6 452/1/6 456/1/6
f 447/2/6 453/2/6 457/2/6
f 454/2/6 455/2/6 457/2/6
f 455/2/6 456/2/6 457/2/6
f 453/2/6 454/2/6 457/2/6
f 423/2/6 447/2/6 457/2/6
f 456/2/6 424/2/6 458/2/6
f 457/2/6 456/2/6 458/2/6
f 459/2/6 460/2/6 463/2/6
f 463/2/6 460/2/6 464/2/6
f 461/2/6 462/2/6 465/2/6
f 465/2/6 462/2/6 466/2/6
f 467/2/6 468/2/6 471/2/6
f 471/2/6 468/2/6 472/2/6
f 469/2/6 470/2/6 473/2/6
f 473/2/6 470/2/6 474/2/6
