# MagicaVoxel @ Ephtracy

# group
o 

# material
mtllib chicken.mtl
usemtl palette

# normals
vn -1 0 0
vn 1 0 0
vn 0 0 1
vn 0 0 -1
vn 0 -1 0
vn 0 1 0

# texcoords
vt 0.970703 0.5
vt 0.974609 0.5
vt 0.978516 0.5
vt 0.982422 0.5

# verts
v -0.5 0.6 0.3
v -0.5 0.6 -0.5
v -0.5 1 0.3
v -0.5 1 -0.5
v -0.4 0 0.4
v -0.4 0 -0.2
v -0.4 0.1 0.4
v -0.4 0.1 -0.2
v -0.3 0.1 -5.96046e-08
v -0.3 0.1 -0.1
v -0.3 0.5 0.5
v -0.3 0.5 -5.96046e-08
v -0.3 0.5 -0.1
v -0.3 0.5 -0.7
v -0.3 0.6 0.3
v -0.3 0.6 -0.5
v -0.3 1 0.3
v -0.3 1 -0.5
v -0.3 1.1 -0.1
v -0.3 1.1 -0.7
v -0.3 1.4 0.3
v -0.3 1.4 0.2
v -0.3 1.5 0.3
v -0.3 1.5 0.2
v -0.3 1.7 0.5
v -0.3 1.7 -0.1
v -0.2 0 0.4
v -0.2 0 0.1
v -0.2 0.1 0.4
v -0.2 0.1 0.1
v -0.2 0.6 -0.7
v -0.2 0.6 -0.8
v -0.2 1 -0.7
v -0.2 1 -0.8
v -0.1 1.1 0.7
v -0.1 1.1 0.5
v -0.1 1.3 0.8
v -0.1 1.3 0.7
v -0.1 1.3 0.5
v -0.1 1.5 0.8
v -0.1 1.5 0.5
v -0.1 1.7 0.4
v -0.1 1.7 -5.96046e-08
v -0.1 1.9 0.4
v -0.1 1.9 -5.96046e-08
v 0.1 0 0.4
v 0.1 0 -0.2
v 0.1 0.1 0.4
v 0.1 0.1 -0.2
v 0.2 0.1 -5.96046e-08
v 0.2 0.1 -0.1
v 0.2 0.5 -5.96046e-08
v 0.2 0.5 -0.1
v 0.3 0 0.4
v 0.3 0 0.1
v 0.3 0.1 0.4
v 0.3 0.1 0.1
v -0.3 0 0.4
v -0.3 0 0.1
v -0.3 0.1 0.4
v -0.3 0.1 0.1
v -0.2 0.1 -5.96046e-08
v -0.2 0.1 -0.1
v -0.2 0.5 -5.96046e-08
v -0.2 0.5 -0.1
v -0.1 0 0.4
v -0.1 0 -0.2
v -0.1 0.1 0.4
v -0.1 0.1 -0.2
v 0.1 1.1 0.7
v 0.1 1.1 0.5
v 0.1 1.3 0.8
v 0.1 1.3 0.7
v 0.1 1.3 0.5
v 0.1 1.5 0.8
v 0.1 1.5 0.5
v 0.1 1.7 0.4
v 0.1 1.7 -5.96046e-08
v 0.1 1.9 0.4
v 0.1 1.9 -5.96046e-08
v 0.2 0 0.4
v 0.2 0 0.1
v 0.2 0.1 0.4
v 0.2 0.1 0.1
v 0.2 0.6 -0.7
v 0.2 0.6 -0.8
v 0.2 1 -0.7
v 0.2 1 -0.8
v 0.3 0.1 -5.96046e-08
v 0.3 0.1 -0.1
v 0.3 0.5 0.5
v 0.3 0.5 -5.96046e-08
v 0.3 0.5 -0.1
v 0.3 0.5 -0.7
v 0.3 0.6 0.3
v 0.3 0.6 -0.5
v 0.3 1 0.3
v 0.3 1 -0.5
v 0.3 1.1 -0.1
v 0.3 1.1 -0.7
v 0.3 1.4 0.3
v 0.3 1.4 0.2
v 0.3 1.5 0.3
v 0.3 1.5 0.2
v 0.3 1.7 0.5
v 0.3 1.7 -0.1
v 0.4 0 0.4
v 0.4 0 -0.2
v 0.4 0.1 0.4
v 0.4 0.1 -0.2
v 0.5 0.6 0.3
v 0.5 0.6 -0.5
v 0.5 1 0.3
v 0.5 1 -0.5
v -0.1 1.3 0.8
v -0.1 1.5 0.8
v 0.1 1.3 0.8
v 0.1 1.5 0.8
v -0.1 1.1 0.7
v -0.1 1.3 0.7
v 0.1 1.1 0.7
v 0.1 1.3 0.7
v -0.3 0.5 0.5
v -0.3 1.7 0.5
v -0.1 1.1 0.5
v -0.1 1.3 0.5
v -0.1 1.5 0.5
v 0.1 1.1 0.5
v 0.1 1.3 0.5
v 0.1 1.5 0.5
v 0.3 0.5 0.5
v 0.3 1.7 0.5
v -0.4 0 0.4
v -0.4 0.1 0.4
v -0.3 0 0.4
v -0.3 0.1 0.4
v -0.2 0 0.4
v -0.2 0.1 0.4
v -0.1 0 0.4
v -0.1 0.1 0.4
v -0.1 1.7 0.4
v -0.1 1.9 0.4
v 0.1 0 0.4
v 0.1 0.1 0.4
v 0.1 1.7 0.4
v 0.1 1.9 0.4
v 0.2 0 0.4
v 0.2 0.1 0.4
v 0.3 0 0.4
v 0.3 0.1 0.4
v 0.4 0 0.4
v 0.4 0.1 0.4
v -0.5 0.6 0.3
v -0.5 1 0.3
v -0.3 0.6 0.3
v -0.3 1 0.3
v 0.3 0.6 0.3
v 0.3 1 0.3
v 0.5 0.6 0.3
v 0.5 1 0.3
v -0.3 0 0.1
v -0.3 0.1 0.1
v -0.2 0 0.1
v -0.2 0.1 0.1
v 0.2 0 0.1
v 0.2 0.1 0.1
v 0.3 0 0.1
v 0.3 0.1 0.1
v -0.3 0.1 -5.96046e-08
v -0.3 0.5 -5.96046e-08
v -0.2 0.1 -5.96046e-08
v -0.2 0.5 -5.96046e-08
v 0.2 0.1 -5.96046e-08
v 0.2 0.5 -5.96046e-08
v 0.3 0.1 -5.96046e-08
v 0.3 0.5 -5.96046e-08
v -0.1 1.7 -5.96046e-08
v -0.1 1.9 -5.96046e-08
v 0.1 1.7 -5.96046e-08
v 0.1 1.9 -5.96046e-08
v -0.3 0.1 -0.1
v -0.3 0.5 -0.1
v -0.3 1.1 -0.1
v -0.3 1.7 -0.1
v -0.2 0.1 -0.1
v -0.2 0.5 -0.1
v 0.2 0.1 -0.1
v 0.2 0.5 -0.1
v 0.3 0.1 -0.1
v 0.3 0.5 -0.1
v 0.3 1.1 -0.1
v 0.3 1.7 -0.1
v -0.4 0 -0.2
v -0.4 0.1 -0.2
v -0.1 0 -0.2
v -0.1 0.1 -0.2
v 0.1 0 -0.2
v 0.1 0.1 -0.2
v 0.4 0 -0.2
v 0.4 0.1 -0.2
v -0.5 0.6 -0.5
v -0.5 1 -0.5
v -0.3 0.6 -0.5
v -0.3 1 -0.5
v 0.3 0.6 -0.5
v 0.3 1 -0.5
v 0.5 0.6 -0.5
v 0.5 1 -0.5
v -0.3 0.5 -0.7
v -0.3 1.1 -0.7
v -0.2 0.6 -0.7
v -0.2 1 -0.7
v 0.2 0.6 -0.7
v 0.2 1 -0.7
v 0.3 0.5 -0.7
v 0.3 1.1 -0.7
v -0.2 0.6 -0.8
v -0.2 1 -0.8
v 0.2 0.6 -0.8
v 0.2 1 -0.8
v -0.4 0 0.4
v -0.3 0 0.4
v -0.2 0 0.4
v -0.1 0 0.4
v 0.1 0 0.4
v 0.2 0 0.4
v 0.3 0 0.4
v 0.4 0 0.4
v -0.3 0 0.1
v -0.2 0 0.1
v 0.2 0 0.1
v 0.3 0 0.1
v -0.4 0 -0.2
v -0.1 0 -0.2
v 0.1 0 -0.2
v 0.4 0 -0.2
v -0.3 0.5 0.5
v 0.3 0.5 0.5
v -0.3 0.5 -5.96046e-08
v -0.2 0.5 -5.96046e-08
v 0.2 0.5 -5.96046e-08
v 0.3 0.5 -5.96046e-08
v -0.3 0.5 -0.1
v -0.2 0.5 -0.1
v 0.2 0.5 -0.1
v 0.3 0.5 -0.1
v -0.3 0.5 -0.7
v 0.3 0.5 -0.7
v -0.5 0.6 0.3
v -0.3 0.6 0.3
v 0.3 0.6 0.3
v 0.5 0.6 0.3
v -0.5 0.6 -0.5
v -0.3 0.6 -0.5
v 0.3 0.6 -0.5
v 0.5 0.6 -0.5
v -0.2 0.6 -0.7
v 0.2 0.6 -0.7
v -0.2 0.6 -0.8
v 0.2 0.6 -0.8
v -0.1 1.1 0.7
v 0.1 1.1 0.7
v -0.1 1.1 0.5
v 0.1 1.1 0.5
v -0.1 1.3 0.8
v 0.1 1.3 0.8
v -0.1 1.3 0.7
v 0.1 1.3 0.7
v -0.4 0.1 0.4
v -0.3 0.1 0.4
v -0.2 0.1 0.4
v -0.1 0.1 0.4
v 0.1 0.1 0.4
v 0.2 0.1 0.4
v 0.3 0.1 0.4
v 0.4 0.1 0.4
v -0.3 0.1 0.1
v -0.2 0.1 0.1
v 0.2 0.1 0.1
v 0.3 0.1 0.1
v -0.3 0.1 -5.96046e-08
v -0.2 0.1 -5.96046e-08
v 0.2 0.1 -5.96046e-08
v 0.3 0.1 -5.96046e-08
v -0.3 0.1 -0.1
v -0.2 0.1 -0.1
v 0.2 0.1 -0.1
v 0.3 0.1 -0.1
v -0.4 0.1 -0.2
v -0.1 0.1 -0.2
v 0.1 0.1 -0.2
v 0.4 0.1 -0.2
v -0.5 1 0.3
v -0.3 1 0.3
v 0.3 1 0.3
v 0.5 1 0.3
v -0.5 1 -0.5
v -0.3 1 -0.5
v 0.3 1 -0.5
v 0.5 1 -0.5
v -0.2 1 -0.7
v 0.2 1 -0.7
v -0.2 1 -0.8
v 0.2 1 -0.8
v -0.3 1.1 -0.1
v 0.3 1.1 -0.1
v -0.3 1.1 -0.7
v 0.3 1.1 -0.7
v -0.1 1.5 0.8
v 0.1 1.5 0.8
v -0.1 1.5 0.5
v 0.1 1.5 0.5
v -0.3 1.7 0.5
v 0.3 1.7 0.5
v -0.1 1.7 0.4
v 0.1 1.7 0.4
v -0.1 1.7 -5.96046e-08
v 0.1 1.7 -5.96046e-08
v -0.3 1.7 -0.1
v 0.3 1.7 -0.1
v -0.1 1.9 0.4
v 0.1 1.9 0.4
v -0.1 1.9 -5.96046e-08
v 0.1 1.9 -5.96046e-08

# faces
f 3/2/1 2/2/1 1/2/1
f 4/2/1 2/2/1 3/2/1
f 7/1/1 6/1/1 5/1/1
f 8/1/1 6/1/1 7/1/1
f 12/1/1 10/1/1 9/1/1
f 13/1/1 10/1/1 12/1/1
f 15/2/1 12/2/1 11/2/1
f 15/2/1 14/2/1 13/2/1
f 15/2/1 13/2/1 12/2/1
f 16/2/1 14/2/1 15/2/1
f 17/2/1 15/2/1 11/2/1
f 18/2/1 14/2/1 16/2/1
f 19/2/1 18/2/1 17/2/1
f 20/2/1 14/2/1 18/2/1
f 20/2/1 18/2/1 19/2/1
f 21/2/1 17/2/1 11/2/1
f 21/2/1 19/2/1 17/2/1
f 22/2/1 19/2/1 21/2/1
f 23/2/1 21/2/1 11/2/1
f 23/3/1 22/3/1 21/3/1
f 24/2/1 19/2/1 22/2/1
f 24/3/1 22/3/1 23/3/1
f 25/2/1 23/2/1 11/2/1
f 25/2/1 24/2/1 23/2/1
f 26/2/1 19/2/1 24/2/1
f 26/2/1 24/2/1 25/2/1
f 29/1/1 28/1/1 27/1/1
f 30/1/1 28/1/1 29/1/1
f 33/2/1 32/2/1 31/2/1
f 34/2/1 32/2/1 33/2/1
f 38/4/1 36/4/1 35/4/1
f 39/4/1 36/4/1 38/4/1
f 40/1/1 38/1/1 37/1/1
f 40/1/1 39/1/1 38/1/1
f 41/1/1 39/1/1 40/1/1
f 44/4/1 43/4/1 42/4/1
f 45/4/1 43/4/1 44/4/1
f 48/1/1 47/1/1 46/1/1
f 49/1/1 47/1/1 48/1/1
f 52/1/1 51/1/1 50/1/1
f 53/1/1 51/1/1 52/1/1
f 56/1/1 55/1/1 54/1/1
f 57/1/1 55/1/1 56/1/1
f 58/1/2 59/1/2 60/1/2
f 60/1/2 59/1/2 61/1/2
f 62/1/2 63/1/2 64/1/2
f 64/1/2 63/1/2 65/1/2
f 66/1/2 67/1/2 68/1/2
f 68/1/2 67/1/2 69/1/2
f 70/4/2 71/4/2 73/4/2
f 73/4/2 71/4/2 74/4/2
f 72/1/2 73/1/2 75/1/2
f 73/1/2 74/1/2 75/1/2
f 75/1/2 74/1/2 76/1/2
f 77/4/2 78/4/2 79/4/2
f 79/4/2 78/4/2 80/4/2
f 81/1/2 82/1/2 83/1/2
f 83/1/2 82/1/2 84/1/2
f 85/2/2 86/2/2 87/2/2
f 87/2/2 86/2/2 88/2/2
f 89/1/2 90/1/2 92/1/2
f 92/1/2 90/1/2 93/1/2
f 91/2/2 92/2/2 95/2/2
f 93/2/2 94/2/2 95/2/2
f 92/2/2 93/2/2 95/2/2
f 95/2/2 94/2/2 96/2/2
f 91/2/2 95/2/2 97/2/2
f 96/2/2 94/2/2 98/2/2
f 97/2/2 98/2/2 99/2/2
f 98/2/2 94/2/2 100/2/2
f 99/2/2 98/2/2 100/2/2
f 91/2/2 97/2/2 101/2/2
f 97/2/2 99/2/2 101/2/2
f 101/2/2 99/2/2 102/2/2
f 91/2/2 101/2/2 103/2/2
f 101/3/2 102/3/2 103/3/2
f 102/2/2 99/2/2 104/2/2
f 103/3/2 102/3/2 104/3/2
f 91/2/2 103/2/2 105/2/2
f 103/2/2 104/2/2 105/2/2
f 104/2/2 99/2/2 106/2/2
f 105/2/2 104/2/2 106/2/2
f 107/1/2 108/1/2 109/1/2
f 109/1/2 108/1/2 110/1/2
f 111/2/2 112/2/2 113/2/2
f 113/2/2 112/2/2 114/2/2
f 117/1/3 116/1/3 115/1/3
f 118/1/3 116/1/3 117/1/3
f 121/4/3 120/4/3 119/4/3
f 122/4/3 120/4/3 121/4/3
f 125/2/3 124/2/3 123/2/3
f 126/2/3 124/2/3 125/2/3
f 127/2/3 124/2/3 126/2/3
f 128/2/3 125/2/3 123/2/3
f 130/2/3 124/2/3 127/2/3
f 131/2/3 129/2/3 128/2/3
f 131/2/3 130/2/3 129/2/3
f 131/2/3 128/2/3 123/2/3
f 132/2/3 124/2/3 130/2/3
f 132/2/3 130/2/3 131/2/3
f 135/1/3 134/1/3 133/1/3
f 136/1/3 134/1/3 135/1/3
f 139/1/3 138/1/3 137/1/3
f 140/1/3 138/1/3 139/1/3
f 145/4/3 142/4/3 141/4/3
f 146/4/3 142/4/3 145/4/3
f 147/1/3 144/1/3 143/1/3
f 148/1/3 144/1/3 147/1/3
f 151/1/3 150/1/3 149/1/3
f 152/1/3 150/1/3 151/1/3
f 155/2/3 154/2/3 153/2/3
f 156/2/3 154/2/3 155/2/3
f 159/2/3 158/2/3 157/2/3
f 160/2/3 158/2/3 159/2/3
f 163/1/3 162/1/3 161/1/3
f 164/1/3 162/1/3 163/1/3
f 167/1/3 166/1/3 165/1/3
f 168/1/3 166/1/3 167/1/3
f 171/1/3 170/1/3 169/1/3
f 172/1/3 170/1/3 171/1/3
f 175/1/3 174/1/3 173/1/3
f 176/1/3 174/1/3 175/1/3
f 177/4/4 178/4/4 179/4/4
f 179/4/4 178/4/4 180/4/4
f 181/1/4 182/1/4 185/1/4
f 185/1/4 182/1/4 186/1/4
f 187/1/4 188/1/4 189/1/4
f 189/1/4 188/1/4 190/1/4
f 183/2/4 184/2/4 191/2/4
f 191/2/4 184/2/4 192/2/4
f 193/1/4 194/1/4 195/1/4
f 195/1/4 194/1/4 196/1/4
f 197/1/4 198/1/4 199/1/4
f 199/1/4 198/1/4 200/1/4
f 201/2/4 202/2/4 203/2/4
f 203/2/4 202/2/4 204/2/4
f 205/2/4 206/2/4 207/2/4
f 207/2/4 206/2/4 208/2/4
f 209/2/4 210/2/4 211/2/4
f 211/2/4 210/2/4 212/2/4
f 209/2/4 211/2/4 213/2/4
f 212/2/4 210/2/4 214/2/4
f 209/2/4 213/2/4 215/2/4
f 213/2/4 214/2/4 215/2/4
f 214/2/4 210/2/4 216/2/4
f 215/2/4 214/2/4 216/2/4
f 217/2/4 218/2/4 219/2/4
f 219/2/4 218/2/4 220/2/4
f 229/1/5 222/1/5 221/1/5
f 230/1/5 224/1/5 223/1/5
f 231/1/5 226/1/5 225/1/5
f 232/1/5 228/1/5 227/1/5
f 233/1/5 229/1/5 221/1/5
f 233/1/5 230/1/5 229/1/5
f 234/1/5 224/1/5 230/1/5
f 234/1/5 230/1/5 233/1/5
f 235/1/5 231/1/5 225/1/5
f 235/1/5 232/1/5 231/1/5
f 236/1/5 228/1/5 232/1/5
f 236/1/5 232/1/5 235/1/5
f 239/2/5 238/2/5 237/2/5
f 240/2/5 238/2/5 239/2/5
f 241/2/5 238/2/5 240/2/5
f 242/2/5 238/2/5 241/2/5
f 244/2/5 241/2/5 240/2/5
f 245/2/5 241/2/5 244/2/5
f 247/2/5 244/2/5 243/2/5
f 247/2/5 246/2/5 245/2/5
f 247/2/5 245/2/5 244/2/5
f 248/2/5 246/2/5 247/2/5
f 253/2/5 250/2/5 249/2/5
f 254/2/5 250/2/5 253/2/5
f 255/2/5 252/2/5 251/2/5
f 256/2/5 252/2/5 255/2/5
f 259/2/5 258/2/5 257/2/5
f 260/2/5 258/2/5 259/2/5
f 263/4/5 262/4/5 261/4/5
f 264/4/5 262/4/5 263/4/5
f 267/1/5 266/1/5 265/1/5
f 268/1/5 266/1/5 267/1/5
f 269/1/6 270/1/6 277/1/6
f 271/1/6 272/1/6 278/1/6
f 273/1/6 274/1/6 279/1/6
f 275/1/6 276/1/6 280/1/6
f 269/1/6 277/1/6 281/1/6
f 277/1/6 278/1/6 281/1/6
f 278/1/6 272/1/6 282/1/6
f 281/1/6 278/1/6 282/1/6
f 273/1/6 279/1/6 283/1/6
f 279/1/6 280/1/6 283/1/6
f 280/1/6 276/1/6 284/1/6
f 283/1/6 280/1/6 284/1/6
f 269/1/6 281/1/6 285/1/6
f 282/1/6 272/1/6 286/1/6
f 273/1/6 283/1/6 287/1/6
f 284/1/6 276/1/6 288/1/6
f 269/1/6 285/1/6 289/1/6
f 285/1/6 286/1/6 289/1/6
f 286/1/6 272/1/6 290/1/6
f 289/1/6 286/1/6 290/1/6
f 287/1/6 288/1/6 291/1/6
f 273/1/6 287/1/6 291/1/6
f 288/1/6 276/1/6 292/1/6
f 291/1/6 288/1/6 292/1/6
f 293/2/6 294/2/6 297/2/6
f 297/2/6 294/2/6 298/2/6
f 295/2/6 296/2/6 299/2/6
f 299/2/6 296/2/6 300/2/6
f 301/2/6 302/2/6 303/2/6
f 303/2/6 302/2/6 304/2/6
f 305/2/6 306/2/6 307/2/6
f 307/2/6 306/2/6 308/2/6
f 309/1/6 310/1/6 311/1/6
f 311/1/6 310/1/6 312/1/6
f 313/2/6 314/2/6 315/2/6
f 315/2/6 314/2/6 316/2/6
f 313/2/6 315/2/6 317/2/6
f 316/2/6 314/2/6 318/2/6
f 313/2/6 317/2/6 319/2/6
f 317/2/6 318/2/6 319/2/6
f 318/2/6 314/2/6 320/2/6
f 319/2/6 318/2/6 320/2/6
f 321/4/6 322/4/6 323/4/6
f 323/4/6 322/4/6 324/4/6
