# MagicaVoxel @ Ephtracy

# group
o 

# material
mtllib shield.mtl
usemtl palette

# normals
vn -1 0 0
vn 1 0 0
vn 0 0 1
vn 0 0 -1
vn 0 -1 0
vn 0 1 0

# texcoords
vt 0.970703 0.5
vt 0.974609 0.5
vt 0.978516 0.5
vt 0.982422 0.5
vt 0.986328 0.5

# verts
v -0.7 0.4 0.0999999
v -0.7 0.4 -7.45058e-08
v -0.7 1.2 0.0999999
v -0.7 1.2 -7.45058e-08
v -0.6 0.3 0.0999999
v -0.6 0.3 -7.45058e-08
v -0.6 0.4 0.0999999
v -0.6 0.4 -7.45058e-08
v -0.5 0.2 0.0999999
v -0.5 0.2 -7.45058e-08
v -0.5 0.3 0.0999999
v -0.5 0.3 -7.45058e-08
v -0.4 0.1 0.0999999
v -0.4 0.1 -7.45058e-08
v -0.4 0.2 0.0999999
v -0.4 0.2 -7.45058e-08
v -0.4 1.2 0.0999999
v -0.4 1.2 -7.45058e-08
v -0.4 1.3 0.0999999
v -0.4 1.3 -7.45058e-08
v -0.3 0 0.0999999
v -0.3 0 -7.45058e-08
v -0.3 0.1 0.0999999
v -0.3 0.1 -7.45058e-08
v -0.2 1.3 0.0999999
v -0.2 1.3 -7.45058e-08
v -0.2 1.4 0.0999999
v -0.2 1.4 -7.45058e-08
v 5.96046e-08 1.3 0.0999999
v 5.96046e-08 1.3 -7.45058e-08
v 5.96046e-08 1.4 0.0999999
v 5.96046e-08 1.4 -7.45058e-08
v 0.1 0 0.0999999
v 0.1 0 -7.45058e-08
v 0.1 0.1 0.0999999
v 0.1 0.1 -7.45058e-08
v 0.2 0.1 0.0999999
v 0.2 0.1 -7.45058e-08
v 0.2 0.2 0.0999999
v 0.2 0.2 -7.45058e-08
v 0.2 1.2 0.0999999
v 0.2 1.2 -7.45058e-08
v 0.2 1.3 0.0999999
v 0.2 1.3 -7.45058e-08
v 0.3 0.2 0.0999999
v 0.3 0.2 -7.45058e-08
v 0.3 0.3 0.0999999
v 0.3 0.3 -7.45058e-08
v 0.4 0.3 0.0999999
v 0.4 0.3 -7.45058e-08
v 0.4 0.4 0.0999999
v 0.4 0.4 -7.45058e-08
v 0.5 0.4 0.0999999
v 0.5 0.4 -7.45058e-08
v 0.5 1.2 0.0999999
v 0.5 1.2 -7.45058e-08
v -0.7 0.4 0.0999999
v -0.7 1.2 0.0999999
v -0.6 0.3 0.0999999
v -0.6 0.4 0.0999999
v -0.6 0.5 0.0999999
v -0.6 0.7 0.0999999
v -0.6 1 0.0999999
v -0.6 1.1 0.0999999
v -0.5 0.2 0.0999999
v -0.5 0.3 0.0999999
v -0.5 0.4 0.0999999
v -0.5 0.5 0.0999999
v -0.4 0.1 0.0999999
v -0.4 0.2 0.0999999
v -0.4 0.3 0.0999999
v -0.4 0.4 0.0999999
v -0.4 1 0.0999999
v -0.4 1.1 0.0999999
v -0.4 1.2 0.0999999
v -0.4 1.3 0.0999999
v -0.3 0 0.0999999
v -0.3 0.1 0.0999999
v -0.3 0.2 0.0999999
v -0.3 0.3 0.0999999
v -0.2 1.1 0.0999999
v -0.2 1.2 0.0999999
v -0.2 1.3 0.0999999
v -0.2 1.4 0.0999999
v -0.1 0.1 0.0999999
v -0.1 0.2 0.0999999
v -0.1 0.7 0.0999999
v -0.1 1.2 0.0999999
v -0.1 1.3 0.0999999
v 5.96046e-08 1.1 0.0999999
v 5.96046e-08 1.2 0.0999999
v 5.96046e-08 1.3 0.0999999
v 5.96046e-08 1.4 0.0999999
v 0.1 0 0.0999999
v 0.1 0.1 0.0999999
v 0.1 0.2 0.0999999
v 0.1 0.3 0.0999999
v 0.2 0.1 0.0999999
v 0.2 0.2 0.0999999
v 0.2 0.3 0.0999999
v 0.2 0.4 0.0999999
v 0.2 1 0.0999999
v 0.2 1.1 0.0999999
v 0.2 1.2 0.0999999
v 0.2 1.3 0.0999999
v 0.3 0.2 0.0999999
v 0.3 0.3 0.0999999
v 0.3 0.4 0.0999999
v 0.3 0.5 0.0999999
v 0.4 0.3 0.0999999
v 0.4 0.4 0.0999999
v 0.4 0.5 0.0999999
v 0.4 0.7 0.0999999
v 0.4 1 0.0999999
v 0.4 1.1 0.0999999
v 0.5 0.4 0.0999999
v 0.5 1.2 0.0999999
v -0.7 0.4 -7.45058e-08
v -0.7 1.2 -7.45058e-08
v -0.6 0.3 -7.45058e-08
v -0.6 0.4 -7.45058e-08
v -0.6 0.5 -7.45058e-08
v -0.6 0.7 -7.45058e-08
v -0.6 1 -7.45058e-08
v -0.6 1.1 -7.45058e-08
v -0.5 0.2 -7.45058e-08
v -0.5 0.3 -7.45058e-08
v -0.5 0.4 -7.45058e-08
v -0.5 0.5 -7.45058e-08
v -0.4 0.1 -7.45058e-08
v -0.4 0.2 -7.45058e-08
v -0.4 0.3 -7.45058e-08
v -0.4 0.4 -7.45058e-08
v -0.4 1 -7.45058e-08
v -0.4 1.1 -7.45058e-08
v -0.4 1.2 -7.45058e-08
v -0.4 1.3 -7.45058e-08
v -0.3 0 -7.45058e-08
v -0.3 0.1 -7.45058e-08
v -0.3 0.2 -7.45058e-08
v -0.3 0.3 -7.45058e-08
v -0.2 1.1 -7.45058e-08
v -0.2 1.2 -7.45058e-08
v -0.2 1.3 -7.45058e-08
v -0.2 1.4 -7.45058e-08
v -0.1 0.1 -7.45058e-08
v -0.1 0.2 -7.45058e-08
v -0.1 0.7 -7.45058e-08
v -0.1 1.2 -7.45058e-08
v -0.1 1.3 -7.45058e-08
v 5.96046e-08 1.1 -7.45058e-08
v 5.96046e-08 1.2 -7.45058e-08
v 5.96046e-08 1.3 -7.45058e-08
v 5.96046e-08 1.4 -7.45058e-08
v 0.1 0 -7.45058e-08
v 0.1 0.1 -7.45058e-08
v 0.1 0.2 -7.45058e-08
v 0.1 0.3 -7.45058e-08
v 0.2 0.1 -7.45058e-08
v 0.2 0.2 -7.45058e-08
v 0.2 0.3 -7.45058e-08
v 0.2 0.4 -7.45058e-08
v 0.2 1 -7.45058e-08
v 0.2 1.1 -7.45058e-08
v 0.2 1.2 -7.45058e-08
v 0.2 1.3 -7.45058e-08
v 0.3 0.2 -7.45058e-08
v 0.3 0.3 -7.45058e-08
v 0.3 0.4 -7.45058e-08
v 0.3 0.5 -7.45058e-08
v 0.4 0.3 -7.45058e-08
v 0.4 0.4 -7.45058e-08
v 0.4 0.5 -7.45058e-08
v 0.4 0.7 -7.45058e-08
v 0.4 1 -7.45058e-08
v 0.4 1.1 -7.45058e-08
v 0.5 0.4 -7.45058e-08
v 0.5 1.2 -7.45058e-08
v -0.3 0 0.0999999
v 0.1 0 0.0999999
v -0.3 0 -7.45058e-08
v 0.1 0 -7.45058e-08
v -0.4 0.1 0.0999999
v -0.3 0.1 0.0999999
v 0.1 0.1 0.0999999
v 0.2 0.1 0.0999999
v -0.4 0.1 -7.45058e-08
v -0.3 0.1 -7.45058e-08
v 0.1 0.1 -7.45058e-08
v 0.2 0.1 -7.45058e-08
v -0.5 0.2 0.0999999
v -0.4 0.2 0.0999999
v 0.2 0.2 0.0999999
v 0.3 0.2 0.0999999
v -0.5 0.2 -7.45058e-08
v -0.4 0.2 -7.45058e-08
v 0.2 0.2 -7.45058e-08
v 0.3 0.2 -7.45058e-08
v -0.6 0.3 0.0999999
v -0.5 0.3 0.0999999
v 0.3 0.3 0.0999999
v 0.4 0.3 0.0999999
v -0.6 0.3 -7.45058e-08
v -0.5 0.3 -7.45058e-08
v 0.3 0.3 -7.45058e-08
v 0.4 0.3 -7.45058e-08
v -0.7 0.4 0.0999999
v -0.6 0.4 0.0999999
v 0.4 0.4 0.0999999
v 0.5 0.4 0.0999999
v -0.7 0.4 -7.45058e-08
v -0.6 0.4 -7.45058e-08
v 0.4 0.4 -7.45058e-08
v 0.5 0.4 -7.45058e-08
v -0.7 1.2 0.0999999
v -0.4 1.2 0.0999999
v 0.2 1.2 0.0999999
v 0.5 1.2 0.0999999
v -0.7 1.2 -7.45058e-08
v -0.4 1.2 -7.45058e-08
v 0.2 1.2 -7.45058e-08
v 0.5 1.2 -7.45058e-08
v -0.4 1.3 0.0999999
v -0.2 1.3 0.0999999
v 5.96046e-08 1.3 0.0999999
v 0.2 1.3 0.0999999
v -0.4 1.3 -7.45058e-08
v -0.2 1.3 -7.45058e-08
v 5.96046e-08 1.3 -7.45058e-08
v 0.2 1.3 -7.45058e-08
v -0.2 1.4 0.0999999
v 5.96046e-08 1.4 0.0999999
v -0.2 1.4 -7.45058e-08
v 5.96046e-08 1.4 -7.45058e-08

# faces
f 3/1/1 2/1/1 1/1/1
f 4/1/1 2/1/1 3/1/1
f 7/1/1 6/1/1 5/1/1
f 8/1/1 6/1/1 7/1/1
f 11/1/1 10/1/1 9/1/1
f 12/1/1 10/1/1 11/1/1
f 15/1/1 14/1/1 13/1/1
f 16/1/1 14/1/1 15/1/1
f 19/1/1 18/1/1 17/1/1
f 20/1/1 18/1/1 19/1/1
f 23/1/1 22/1/1 21/1/1
f 24/1/1 22/1/1 23/1/1
f 27/1/1 26/1/1 25/1/1
f 28/1/1 26/1/1 27/1/1
f 29/1/2 30/1/2 31/1/2
f 31/1/2 30/1/2 32/1/2
f 33/1/2 34/1/2 35/1/2
f 35/1/2 34/1/2 36/1/2
f 37/1/2 38/1/2 39/1/2
f 39/1/2 38/1/2 40/1/2
f 41/1/2 42/1/2 43/1/2
f 43/1/2 42/1/2 44/1/2
f 45/1/2 46/1/2 47/1/2
f 47/1/2 46/1/2 48/1/2
f 49/1/2 50/1/2 51/1/2
f 51/1/2 50/1/2 52/1/2
f 53/1/2 54/1/2 55/1/2
f 55/1/2 54/1/2 56/1/2
f 60/1/3 58/1/3 57/1/3
f 61/1/3 58/1/3 60/1/3
f 62/1/3 58/1/3 61/1/3
f 63/1/3 58/1/3 62/1/3
f 64/1/3 58/1/3 63/1/3
f 66/1/3 60/1/3 59/1/3
f 67/5/3 61/5/3 60/5/3
f 67/1/3 60/1/3 66/1/3
f 68/3/3 62/3/3 61/3/3
f 68/5/3 61/5/3 67/5/3
f 70/1/3 66/1/3 65/1/3
f 71/5/3 67/5/3 66/5/3
f 71/1/3 66/1/3 70/1/3
f 72/3/3 68/3/3 67/3/3
f 72/5/3 67/5/3 71/5/3
f 73/2/3 63/2/3 62/2/3
f 73/4/3 64/4/3 63/4/3
f 74/1/3 58/1/3 64/1/3
f 74/4/3 64/4/3 73/4/3
f 75/1/3 58/1/3 74/1/3
f 78/1/3 70/1/3 69/1/3
f 79/5/3 71/5/3 70/5/3
f 79/1/3 70/1/3 78/1/3
f 80/3/3 72/3/3 71/3/3
f 80/5/3 71/5/3 79/5/3
f 81/2/3 74/2/3 73/2/3
f 81/4/3 75/4/3 74/4/3
f 82/1/3 76/1/3 75/1/3
f 82/4/3 75/4/3 81/4/3
f 83/1/3 76/1/3 82/1/3
f 85/5/3 79/5/3 78/5/3
f 85/1/3 78/1/3 77/1/3
f 86/3/3 80/3/3 79/3/3
f 86/5/3 79/5/3 85/5/3
f 87/2/3 73/2/3 62/2/3
f 87/3/3 80/3/3 86/3/3
f 87/3/3 62/3/3 68/3/3
f 87/2/3 82/2/3 81/2/3
f 87/2/3 81/2/3 73/2/3
f 87/3/3 68/3/3 72/3/3
f 87/3/3 72/3/3 80/3/3
f 88/4/3 83/4/3 82/4/3
f 88/2/3 82/2/3 87/2/3
f 89/1/3 84/1/3 83/1/3
f 89/4/3 83/4/3 88/4/3
f 90/3/3 88/3/3 87/3/3
f 91/5/3 89/5/3 88/5/3
f 91/3/3 88/3/3 90/3/3
f 92/1/3 84/1/3 89/1/3
f 92/5/3 89/5/3 91/5/3
f 93/1/3 84/1/3 92/1/3
f 94/1/3 85/1/3 77/1/3
f 95/4/3 86/4/3 85/4/3
f 95/1/3 85/1/3 94/1/3
f 96/2/3 87/2/3 86/2/3
f 96/4/3 86/4/3 95/4/3
f 97/2/3 87/2/3 96/2/3
f 98/1/3 96/1/3 95/1/3
f 99/4/3 97/4/3 96/4/3
f 99/1/3 96/1/3 98/1/3
f 100/2/3 87/2/3 97/2/3
f 100/4/3 97/4/3 99/4/3
f 101/2/3 87/2/3 100/2/3
f 102/3/3 90/3/3 87/3/3
f 103/5/3 91/5/3 90/5/3
f 103/3/3 90/3/3 102/3/3
f 104/1/3 92/1/3 91/1/3
f 104/5/3 91/5/3 103/5/3
f 105/1/3 92/1/3 104/1/3
f 106/1/3 100/1/3 99/1/3
f 107/4/3 101/4/3 100/4/3
f 107/1/3 100/1/3 106/1/3
f 108/2/3 87/2/3 101/2/3
f 108/4/3 101/4/3 107/4/3
f 109/2/3 87/2/3 108/2/3
f 110/1/3 108/1/3 107/1/3
f 111/4/3 109/4/3 108/4/3
f 111/1/3 108/1/3 110/1/3
f 112/2/3 87/2/3 109/2/3
f 112/4/3 109/4/3 111/4/3
f 113/3/3 102/3/3 87/3/3
f 113/2/3 87/2/3 112/2/3
f 114/5/3 103/5/3 102/5/3
f 114/3/3 102/3/3 113/3/3
f 115/1/3 104/1/3 103/1/3
f 115/5/3 103/5/3 114/5/3
f 116/1/3 112/1/3 111/1/3
f 116/1/3 115/1/3 114/1/3
f 116/1/3 113/1/3 112/1/3
f 116/1/3 114/1/3 113/1/3
f 117/1/3 104/1/3 115/1/3
f 117/1/3 115/1/3 116/1/3
f 118/1/4 119/1/4 121/1/4
f 121/1/4 119/1/4 122/1/4
f 122/1/4 119/1/4 123/1/4
f 123/1/4 119/1/4 124/1/4
f 124/1/4 119/1/4 125/1/4
f 120/1/4 121/1/4 127/1/4
f 121/5/4 122/5/4 128/5/4
f 127/1/4 121/1/4 128/1/4
f 122/3/4 123/3/4 129/3/4
f 128/5/4 122/5/4 129/5/4
f 126/1/4 127/1/4 131/1/4
f 127/5/4 128/5/4 132/5/4
f 131/1/4 127/1/4 132/1/4
f 128/3/4 129/3/4 133/3/4
f 132/5/4 128/5/4 133/5/4
f 123/2/4 124/2/4 134/2/4
f 124/4/4 125/4/4 134/4/4
f 125/1/4 119/1/4 135/1/4
f 134/4/4 125/4/4 135/4/4
f 135/1/4 119/1/4 136/1/4
f 130/1/4 131/1/4 139/1/4
f 131/5/4 132/5/4 140/5/4
f 139/1/4 131/1/4 140/1/4
f 132/3/4 133/3/4 141/3/4
f 140/5/4 132/5/4 141/5/4
f 134/2/4 135/2/4 142/2/4
f 135/4/4 136/4/4 142/4/4
f 136/1/4 137/1/4 143/1/4
f 142/4/4 136/4/4 143/4/4
f 143/1/4 137/1/4 144/1/4
f 139/5/4 140/5/4 146/5/4
f 138/1/4 139/1/4 146/1/4
f 140/3/4 141/3/4 147/3/4
f 146/5/4 140/5/4 147/5/4
f 123/2/4 134/2/4 148/2/4
f 147/3/4 141/3/4 148/3/4
f 129/3/4 123/3/4 148/3/4
f 142/2/4 143/2/4 148/2/4
f 134/2/4 142/2/4 148/2/4
f 133/3/4 129/3/4 148/3/4
f 141/3/4 133/3/4 148/3/4
f 143/4/4 144/4/4 149/4/4
f 148/2/4 143/2/4 149/2/4
f 144/1/4 145/1/4 150/1/4
f 149/4/4 144/4/4 150/4/4
f 148/3/4 149/3/4 151/3/4
f 149/5/4 150/5/4 152/5/4
f 151/3/4 149/3/4 152/3/4
f 150/1/4 145/1/4 153/1/4
f 152/5/4 150/5/4 153/5/4
f 153/1/4 145/1/4 154/1/4
f 138/1/4 146/1/4 155/1/4
f 146/4/4 147/4/4 156/4/4
f 155/1/4 146/1/4 156/1/4
f 147/2/4 148/2/4 157/2/4
f 156/4/4 147/4/4 157/4/4
f 157/2/4 148/2/4 158/2/4
f 156/1/4 157/1/4 159/1/4
f 157/4/4 158/4/4 160/4/4
f 159/1/4 157/1/4 160/1/4
f 158/2/4 148/2/4 161/2/4
f 160/4/4 158/4/4 161/4/4
f 161/2/4 148/2/4 162/2/4
f 148/3/4 151/3/4 163/3/4
f 151/5/4 152/5/4 164/5/4
f 163/3/4 151/3/4 164/3/4
f 152/1/4 153/1/4 165/1/4
f 164/5/4 152/5/4 165/5/4
f 165/1/4 153/1/4 166/1/4
f 160/1/4 161/1/4 167/1/4
f 161/4/4 162/4/4 168/4/4
f 167/1/4 161/1/4 168/1/4
f 162/2/4 148/2/4 169/2/4
f 168/4/4 162/4/4 169/4/4
f 169/2/4 148/2/4 170/2/4
f 168/1/4 169/1/4 171/1/4
f 169/4/4 170/4/4 172/4/4
f 171/1/4 169/1/4 172/1/4
f 170/2/4 148/2/4 173/2/4
f 172/4/4 170/4/4 173/4/4
f 148/3/4 163/3/4 174/3/4
f 173/2/4 148/2/4 174/2/4
f 163/5/4 164/5/4 175/5/4
f 174/3/4 163/3/4 175/3/4
f 164/1/4 165/1/4 176/1/4
f 175/5/4 164/5/4 176/5/4
f 172/1/4 173/1/4 177/1/4
f 175/1/4 176/1/4 177/1/4
f 173/1/4 174/1/4 177/1/4
f 174/1/4 175/1/4 177/1/4
f 176/1/4 165/1/4 178/1/4
f 177/1/4 176/1/4 178/1/4
f 181/1/5 180/1/5 179/1/5
f 182/1/5 180/1/5 181/1/5
f 187/1/5 184/1/5 183/1/5
f 188/1/5 184/1/5 187/1/5
f 189/1/5 186/1/5 185/1/5
f 190/1/5 186/1/5 189/1/5
f 195/1/5 192/1/5 191/1/5
f 196/1/5 192/1/5 195/1/5
f 197/1/5 194/1/5 193/1/5
f 198/1/5 194/1/5 197/1/5
f 203/1/5 200/1/5 199/1/5
f 204/1/5 200/1/5 203/1/5
f 205/1/5 202/1/5 201/1/5
f 206/1/5 202/1/5 205/1/5
f 211/1/5 208/1/5 207/1/5
f 212/1/5 208/1/5 211/1/5
f 213/1/5 210/1/5 209/1/5
f 214/1/5 210/1/5 213/1/5
f 215/1/6 216/1/6 219/1/6
f 219/1/6 216/1/6 220/1/6
f 217/1/6 218/1/6 221/1/6
f 221/1/6 218/1/6 222/1/6
f 223/1/6 224/1/6 227/1/6
f 227/1/6 224/1/6 228/1/6
f 225/1/6 226/1/6 229/1/6
f 229/1/6 226/1/6 230/1/6
f 231/1/6 232/1/6 233/1/6
f 233/1/6 232/1/6 234/1/6
