# MagicaVoxel @ Ephtracy

# group
o 

# material
mtllib trafficLight.mtl
usemtl palette

# normals
vn -1 0 0
vn 1 0 0
vn 0 0 1
vn 0 0 -1
vn 0 -1 0
vn 0 1 0

# texcoords
vt 0.751953 0.5
vt 0.755859 0.5
vt 0.759766 0.5

# verts
v -0.3 1.2 -0.1
v -0.3 1.2 -0.2
v -0.3 1.5 -0.1
v -0.3 1.5 -0.2
v -0.2 1.2 0
v -0.2 1.2 -0.1
v -0.2 1.5 0
v -0.2 1.5 -0.1
v -0.1 0.4 0
v -0.1 0.4 -0.1
v -0.1 0.7 0
v -0.1 0.7 -0.1
v -0.1 0.8 0
v -0.1 0.8 -0.1
v -0.1 1.1 0
v -0.1 1.1 -0.1
v -0.1 1.2 0
v -0.1 1.2 -0.1
v -0.1 1.5 0
v -0.1 1.5 -0.1
v -0.1 1.6 0
v -0.1 1.6 -0.1
v 0 0.4 0
v 0 0.4 -0.1
v 0 0.7 0
v 0 0.7 -0.1
v 0 0.8 0
v 0 0.8 -0.1
v 0 1.1 0
v 0 1.1 -0.1
v 0 1.2 0
v 0 1.2 -0.1
v 0 1.5 0
v 0 1.5 -0.1
v 0 1.6 0
v 0 1.6 -0.1
v 0.1 1.2 0
v 0.1 1.2 -0.1
v 0.1 1.5 0
v 0.1 1.5 -0.1
v 0.2 1.2 -0.1
v 0.2 1.2 -0.2
v 0.2 1.5 -0.1
v 0.2 1.5 -0.2
v -0.2 1.2 0
v -0.2 1.5 0
v -0.1 0.4 0
v -0.1 0.7 0
v -0.1 0.8 0
v -0.1 1.1 0
v -0.1 1.2 0
v -0.1 1.5 0
v -0.1 1.6 0
v 0 0.4 0
v 0 0.7 0
v 0 0.8 0
v 0 1.1 0
v 0 1.2 0
v 0 1.5 0
v 0 1.6 0
v 0.1 1.2 0
v 0.1 1.5 0
v -0.3 1.2 -0.1
v -0.3 1.5 -0.1
v -0.2 1.2 -0.1
v -0.2 1.5 -0.1
v 0.1 1.2 -0.1
v 0.1 1.5 -0.1
v 0.2 1.2 -0.1
v 0.2 1.5 -0.1
v -0.1 0.4 -0.1
v -0.1 0.7 -0.1
v -0.1 0.8 -0.1
v -0.1 1.1 -0.1
v -0.1 1.2 -0.1
v -0.1 1.5 -0.1
v -0.1 1.6 -0.1
v 0 0.4 -0.1
v 0 0.7 -0.1
v 0 0.8 -0.1
v 0 1.1 -0.1
v 0 1.2 -0.1
v 0 1.5 -0.1
v 0 1.6 -0.1
v -0.3 1.2 -0.2
v -0.3 1.5 -0.2
v 0.2 1.2 -0.2
v 0.2 1.5 -0.2
v -0.1 0.4 0
v 0 0.4 0
v -0.1 0.4 -0.1
v 0 0.4 -0.1
v -0.2 1.2 0
v -0.1 1.2 0
v 0 1.2 0
v 0.1 1.2 0
v -0.3 1.2 -0.1
v -0.2 1.2 -0.1
v -0.1 1.2 -0.1
v 0 1.2 -0.1
v 0.1 1.2 -0.1
v 0.2 1.2 -0.1
v -0.3 1.2 -0.2
v 0.2 1.2 -0.2
v -0.2 1.5 0
v -0.1 1.5 0
v 0 1.5 0
v 0.1 1.5 0
v -0.3 1.5 -0.1
v -0.2 1.5 -0.1
v -0.1 1.5 -0.1
v 0 1.5 -0.1
v 0.1 1.5 -0.1
v 0.2 1.5 -0.1
v -0.3 1.5 -0.2
v 0.2 1.5 -0.2
v -0.1 1.6 0
v 0 1.6 0
v -0.1 1.6 -0.1
v 0 1.6 -0.1

# faces
f 3/3/1 2/3/1 1/3/1
f 4/3/1 2/3/1 3/3/1
f 7/3/1 6/3/1 5/3/1
f 8/3/1 6/3/1 7/3/1
f 11/1/1 10/1/1 9/1/1
f 12/1/1 10/1/1 11/1/1
f 13/2/1 12/2/1 11/2/1
f 14/2/1 12/2/1 13/2/1
f 15/1/1 14/1/1 13/1/1
f 16/1/1 14/1/1 15/1/1
f 17/2/1 16/2/1 15/2/1
f 18/2/1 16/2/1 17/2/1
f 21/2/1 20/2/1 19/2/1
f 22/2/1 20/2/1 21/2/1
f 23/1/2 24/1/2 25/1/2
f 25/1/2 24/1/2 26/1/2
f 25/2/2 26/2/2 27/2/2
f 27/2/2 26/2/2 28/2/2
f 27/1/2 28/1/2 29/1/2
f 29/1/2 28/1/2 30/1/2
f 29/2/2 30/2/2 31/2/2
f 31/2/2 30/2/2 32/2/2
f 33/2/2 34/2/2 35/2/2
f 35/2/2 34/2/2 36/2/2
f 37/3/2 38/3/2 39/3/2
f 39/3/2 38/3/2 40/3/2
f 41/3/2 42/3/2 43/3/2
f 43/3/2 42/3/2 44/3/2
f 51/3/3 46/3/3 45/3/3
f 52/3/3 46/3/3 51/3/3
f 54/1/3 48/1/3 47/1/3
f 55/2/3 49/2/3 48/2/3
f 55/1/3 48/1/3 54/1/3
f 56/1/3 50/1/3 49/1/3
f 56/2/3 49/2/3 55/2/3
f 57/2/3 51/2/3 50/2/3
f 57/1/3 50/1/3 56/1/3
f 58/1/3 52/1/3 51/1/3
f 58/2/3 51/2/3 57/2/3
f 59/2/3 53/2/3 52/2/3
f 59/1/3 52/1/3 58/1/3
f 60/2/3 53/2/3 59/2/3
f 61/3/3 59/3/3 58/3/3
f 62/3/3 59/3/3 61/3/3
f 65/3/3 64/3/3 63/3/3
f 66/3/3 64/3/3 65/3/3
f 69/3/3 68/3/3 67/3/3
f 70/3/3 68/3/3 69/3/3
f 71/1/4 72/1/4 78/1/4
f 72/2/4 73/2/4 79/2/4
f 78/1/4 72/1/4 79/1/4
f 73/1/4 74/1/4 80/1/4
f 79/2/4 73/2/4 80/2/4
f 74/2/4 75/2/4 81/2/4
f 80/1/4 74/1/4 81/1/4
f 81/2/4 75/2/4 82/2/4
f 76/2/4 77/2/4 83/2/4
f 83/2/4 77/2/4 84/2/4
f 85/3/4 86/3/4 87/3/4
f 87/3/4 86/3/4 88/3/4
f 91/1/5 90/1/5 89/1/5
f 92/1/5 90/1/5 91/1/5
f 98/3/5 94/3/5 93/3/5
f 99/3/5 94/3/5 98/3/5
f 100/3/5 96/3/5 95/3/5
f 101/3/5 96/3/5 100/3/5
f 103/3/5 99/3/5 98/3/5
f 103/3/5 102/3/5 101/3/5
f 103/3/5 101/3/5 100/3/5
f 103/3/5 100/3/5 99/3/5
f 103/3/5 98/3/5 97/3/5
f 104/3/5 102/3/5 103/3/5
f 105/3/6 106/3/6 110/3/6
f 110/3/6 106/3/6 111/3/6
f 107/3/6 108/3/6 112/3/6
f 112/3/6 108/3/6 113/3/6
f 110/3/6 111/3/6 115/3/6
f 113/3/6 114/3/6 115/3/6
f 112/3/6 113/3/6 115/3/6
f 111/3/6 112/3/6 115/3/6
f 109/3/6 110/3/6 115/3/6
f 115/3/6 114/3/6 116/3/6
f 117/2/6 118/2/6 119/2/6
f 119/2/6 118/2/6 120/2/6
