# MagicaVoxel @ Ephtracy

# group
o 

# material
mtllib tree_L.mtl
usemtl palette

# normals
vn -1 0 0
vn 1 0 0
vn 0 0 1
vn 0 0 -1
vn 0 -1 0
vn 0 1 0

# texcoords
vt 0.814453 0.5
vt 0.818359 0.5
vt 0.822266 0.5

# verts
v -0.4 0.4 0.3
v -0.4 0.4 -0.4
v -0.4 0.5 0.3
v -0.4 0.5 -0.4
v -0.4 0.7 0.3
v -0.4 0.7 -0.4
v -0.4 0.8 0.3
v -0.4 0.8 -0.4
v -0.4 1 0.3
v -0.4 1 -0.4
v -0.4 1.1 0.3
v -0.4 1.1 -0.4
v -0.4 1.3 0.3
v -0.4 1.3 -0.4
v -0.4 1.4 0.3
v -0.4 1.4 -0.4
v -0.4 1.6 0.3
v -0.4 1.6 -0.4
v -0.4 1.7 0.3
v -0.4 1.7 -0.4
v -0.2 0 0.1
v -0.2 0 -0.2
v -0.2 0.4 0.1
v -0.2 0.4 -0.2
v 0 0 -2.98023e-08
v 0 0 -0.1
v 0 0.4 -2.98023e-08
v 0 0.4 -0.1
v -0.1 0 -2.98023e-08
v -0.1 0 -0.1
v -0.1 0.4 -2.98023e-08
v -0.1 0.4 -0.1
v 0.1 0 0.1
v 0.1 0 -0.2
v 0.1 0.4 0.1
v 0.1 0.4 -0.2
v 0.3 0.4 0.3
v 0.3 0.4 -0.4
v 0.3 0.5 0.3
v 0.3 0.5 -0.4
v 0.3 0.7 0.3
v 0.3 0.7 -0.4
v 0.3 0.8 0.3
v 0.3 0.8 -0.4
v 0.3 1 0.3
v 0.3 1 -0.4
v 0.3 1.1 0.3
v 0.3 1.1 -0.4
v 0.3 1.3 0.3
v 0.3 1.3 -0.4
v 0.3 1.4 0.3
v 0.3 1.4 -0.4
v 0.3 1.6 0.3
v 0.3 1.6 -0.4
v 0.3 1.7 0.3
v 0.3 1.7 -0.4
v -0.4 0.4 0.3
v -0.4 0.5 0.3
v -0.4 0.7 0.3
v -0.4 0.8 0.3
v -0.4 1 0.3
v -0.4 1.1 0.3
v -0.4 1.3 0.3
v -0.4 1.4 0.3
v -0.4 1.6 0.3
v -0.4 1.7 0.3
v 0.3 0.4 0.3
v 0.3 0.5 0.3
v 0.3 0.7 0.3
v 0.3 0.8 0.3
v 0.3 1 0.3
v 0.3 1.1 0.3
v 0.3 1.3 0.3
v 0.3 1.4 0.3
v 0.3 1.6 0.3
v 0.3 1.7 0.3
v -0.2 0 0.1
v -0.2 0.4 0.1
v 0.1 0 0.1
v 0.1 0.4 0.1
v -0.1 0 -0.1
v -0.1 0.4 -0.1
v 0 0 -0.1
v 0 0.4 -0.1
v -0.1 0 -2.98023e-08
v -0.1 0.4 -2.98023e-08
v 0 0 -2.98023e-08
v 0 0.4 -2.98023e-08
v -0.2 0 -0.2
v -0.2 0.4 -0.2
v 0.1 0 -0.2
v 0.1 0.4 -0.2
v -0.4 0.4 -0.4
v -0.4 0.5 -0.4
v -0.4 0.7 -0.4
v -0.4 0.8 -0.4
v -0.4 1 -0.4
v -0.4 1.1 -0.4
v -0.4 1.3 -0.4
v -0.4 1.4 -0.4
v -0.4 1.6 -0.4
v -0.4 1.7 -0.4
v 0.3 0.4 -0.4
v 0.3 0.5 -0.4
v 0.3 0.7 -0.4
v 0.3 0.8 -0.4
v 0.3 1 -0.4
v 0.3 1.1 -0.4
v 0.3 1.3 -0.4
v 0.3 1.4 -0.4
v 0.3 1.6 -0.4
v 0.3 1.7 -0.4
v -0.2 0 0.1
v 0.1 0 0.1
v -0.1 0 -2.98023e-08
v 0 0 -2.98023e-08
v -0.1 0 -0.1
v 0 0 -0.1
v -0.2 0 -0.2
v 0.1 0 -0.2
v -0.4 0.4 0.3
v 0.3 0.4 0.3
v -0.3 0.4 0.2
v 0.2 0.4 0.2
v -0.2 0.4 0.1
v 0.1 0.4 0.1
v -0.1 0.4 -2.98023e-08
v 0 0.4 -2.98023e-08
v -0.1 0.4 -0.1
v 0 0.4 -0.1
v -0.2 0.4 -0.2
v 0.1 0.4 -0.2
v -0.3 0.4 -0.3
v 0.2 0.4 -0.3
v -0.4 0.4 -0.4
v 0.3 0.4 -0.4
v -0.4 1.7 0.3
v 0.3 1.7 0.3
v -0.4 1.7 -0.4
v 0.3 1.7 -0.4

# faces
f 3/3/1 2/3/1 1/3/1
f 4/3/1 2/3/1 3/3/1
f 5/2/1 4/2/1 3/2/1
f 6/2/1 4/2/1 5/2/1
f 7/3/1 6/3/1 5/3/1
f 8/3/1 6/3/1 7/3/1
f 9/2/1 8/2/1 7/2/1
f 10/2/1 8/2/1 9/2/1
f 11/3/1 10/3/1 9/3/1
f 12/3/1 10/3/1 11/3/1
f 13/2/1 12/2/1 11/2/1
f 14/2/1 12/2/1 13/2/1
f 15/3/1 14/3/1 13/3/1
f 16/3/1 14/3/1 15/3/1
f 17/2/1 16/2/1 15/2/1
f 18/2/1 16/2/1 17/2/1
f 19/3/1 18/3/1 17/3/1
f 20/3/1 18/3/1 19/3/1
f 23/1/1 22/1/1 21/1/1
f 24/1/1 22/1/1 23/1/1
f 27/1/1 26/1/1 25/1/1
f 28/1/1 26/1/1 27/1/1
f 29/1/2 30/1/2 31/1/2
f 31/1/2 30/1/2 32/1/2
f 33/1/2 34/1/2 35/1/2
f 35/1/2 34/1/2 36/1/2
f 37/3/2 38/3/2 39/3/2
f 39/3/2 38/3/2 40/3/2
f 39/2/2 40/2/2 41/2/2
f 41/2/2 40/2/2 42/2/2
f 41/3/2 42/3/2 43/3/2
f 43/3/2 42/3/2 44/3/2
f 43/2/2 44/2/2 45/2/2
f 45/2/2 44/2/2 46/2/2
f 45/3/2 46/3/2 47/3/2
f 47/3/2 46/3/2 48/3/2
f 47/2/2 48/2/2 49/2/2
f 49/2/2 48/2/2 50/2/2
f 49/3/2 50/3/2 51/3/2
f 51/3/2 50/3/2 52/3/2
f 51/2/2 52/2/2 53/2/2
f 53/2/2 52/2/2 54/2/2
f 53/3/2 54/3/2 55/3/2
f 55/3/2 54/3/2 56/3/2
f 67/3/3 58/3/3 57/3/3
f 68/2/3 59/2/3 58/2/3
f 68/3/3 58/3/3 67/3/3
f 69/3/3 60/3/3 59/3/3
f 69/2/3 59/2/3 68/2/3
f 70/2/3 61/2/3 60/2/3
f 70/3/3 60/3/3 69/3/3
f 71/3/3 62/3/3 61/3/3
f 71/2/3 61/2/3 70/2/3
f 72/2/3 63/2/3 62/2/3
f 72/3/3 62/3/3 71/3/3
f 73/3/3 64/3/3 63/3/3
f 73/2/3 63/2/3 72/2/3
f 74/2/3 65/2/3 64/2/3
f 74/3/3 64/3/3 73/3/3
f 75/3/3 66/3/3 65/3/3
f 75/2/3 65/2/3 74/2/3
f 76/3/3 66/3/3 75/3/3
f 79/1/3 78/1/3 77/1/3
f 80/1/3 78/1/3 79/1/3
f 83/1/3 82/1/3 81/1/3
f 84/1/3 82/1/3 83/1/3
f 85/1/4 86/1/4 87/1/4
f 87/1/4 86/1/4 88/1/4
f 89/1/4 90/1/4 91/1/4
f 91/1/4 90/1/4 92/1/4
f 93/3/4 94/3/4 103/3/4
f 94/2/4 95/2/4 104/2/4
f 103/3/4 94/3/4 104/3/4
f 95/3/4 96/3/4 105/3/4
f 104/2/4 95/2/4 105/2/4
f 96/2/4 97/2/4 106/2/4
f 105/3/4 96/3/4 106/3/4
f 97/3/4 98/3/4 107/3/4
f 106/2/4 97/2/4 107/2/4
f 98/2/4 99/2/4 108/2/4
f 107/3/4 98/3/4 108/3/4
f 99/3/4 100/3/4 109/3/4
f 108/2/4 99/2/4 109/2/4
f 100/2/4 101/2/4 110/2/4
f 109/3/4 100/3/4 110/3/4
f 101/3/4 102/3/4 111/3/4
f 110/2/4 101/2/4 111/2/4
f 111/3/4 102/3/4 112/3/4
f 115/1/5 114/1/5 113/1/5
f 116/1/5 114/1/5 115/1/5
f 117/1/5 115/1/5 113/1/5
f 118/1/5 114/1/5 116/1/5
f 119/1/5 117/1/5 113/1/5
f 119/1/5 118/1/5 117/1/5
f 120/1/5 114/1/5 118/1/5
f 120/1/5 118/1/5 119/1/5
f 123/3/5 122/3/5 121/3/5
f 124/3/5 122/3/5 123/3/5
f 125/2/5 124/2/5 123/2/5
f 126/2/5 124/2/5 125/2/5
f 129/2/5 128/2/5 127/2/5
f 130/2/5 128/2/5 129/2/5
f 131/2/5 125/2/5 123/2/5
f 132/2/5 124/2/5 126/2/5
f 133/3/5 123/3/5 121/3/5
f 133/2/5 132/2/5 131/2/5
f 133/2/5 131/2/5 123/2/5
f 134/2/5 124/2/5 132/2/5
f 134/2/5 132/2/5 133/2/5
f 134/3/5 122/3/5 124/3/5
f 135/3/5 133/3/5 121/3/5
f 135/3/5 134/3/5 133/3/5
f 136/3/5 122/3/5 134/3/5
f 136/3/5 134/3/5 135/3/5
f 137/3/6 138/3/6 139/3/6
f 139/3/6 138/3/6 140/3/6
