# MagicaVoxel @ Ephtracy

# group
o 

# material
mtllib tree_S.mtl
usemtl palette

# normals
vn -1 0 0
vn 1 0 0
vn 0 0 1
vn 0 0 -1
vn 0 -1 0
vn 0 1 0

# texcoords
vt 0.814453 0.5
vt 0.818359 0.5
vt 0.822266 0.5

# verts
v -0.4 0.4 0.3
v -0.4 0.4 -0.4
v -0.4 0.5 0.3
v -0.4 0.5 -0.4
v -0.4 0.7 0.3
v -0.4 0.7 -0.4
v -0.4 0.8 0.3
v -0.4 0.8 -0.4
v -0.4 1 0.3
v -0.4 1 -0.4
v -0.4 1.1 0.3
v -0.4 1.1 -0.4
v -0.2 0 0.1
v -0.2 0 -0.2
v -0.2 0.4 0.1
v -0.2 0.4 -0.2
v 0 0 -2.98023e-08
v 0 0 -0.1
v 0 0.4 -2.98023e-08
v 0 0.4 -0.1
v -0.1 0 -2.98023e-08
v -0.1 0 -0.1
v -0.1 0.4 -2.98023e-08
v -0.1 0.4 -0.1
v 0.1 0 0.1
v 0.1 0 -0.2
v 0.1 0.4 0.1
v 0.1 0.4 -0.2
v 0.3 0.4 0.3
v 0.3 0.4 -0.4
v 0.3 0.5 0.3
v 0.3 0.5 -0.4
v 0.3 0.7 0.3
v 0.3 0.7 -0.4
v 0.3 0.8 0.3
v 0.3 0.8 -0.4
v 0.3 1 0.3
v 0.3 1 -0.4
v 0.3 1.1 0.3
v 0.3 1.1 -0.4
v -0.4 0.4 0.3
v -0.4 0.5 0.3
v -0.4 0.7 0.3
v -0.4 0.8 0.3
v -0.4 1 0.3
v -0.4 1.1 0.3
v 0.3 0.4 0.3
v 0.3 0.5 0.3
v 0.3 0.7 0.3
v 0.3 0.8 0.3
v 0.3 1 0.3
v 0.3 1.1 0.3
v -0.2 0 0.1
v -0.2 0.4 0.1
v 0.1 0 0.1
v 0.1 0.4 0.1
v -0.1 0 -0.1
v -0.1 0.4 -0.1
v 0 0 -0.1
v 0 0.4 -0.1
v -0.1 0 -2.98023e-08
v -0.1 0.4 -2.98023e-08
v 0 0 -2.98023e-08
v 0 0.4 -2.98023e-08
v -0.2 0 -0.2
v -0.2 0.4 -0.2
v 0.1 0 -0.2
v 0.1 0.4 -0.2
v -0.4 0.4 -0.4
v -0.4 0.5 -0.4
v -0.4 0.7 -0.4
v -0.4 0.8 -0.4
v -0.4 1 -0.4
v -0.4 1.1 -0.4
v 0.3 0.4 -0.4
v 0.3 0.5 -0.4
v 0.3 0.7 -0.4
v 0.3 0.8 -0.4
v 0.3 1 -0.4
v 0.3 1.1 -0.4
v -0.2 0 0.1
v 0.1 0 0.1
v -0.1 0 -2.98023e-08
v 0 0 -2.98023e-08
v -0.1 0 -0.1
v 0 0 -0.1
v -0.2 0 -0.2
v 0.1 0 -0.2
v -0.4 0.4 0.3
v 0.3 0.4 0.3
v -0.3 0.4 0.2
v 0.2 0.4 0.2
v -0.2 0.4 0.1
v 0.1 0.4 0.1
v -0.1 0.4 -2.98023e-08
v 0 0.4 -2.98023e-08
v -0.1 0.4 -0.1
v 0 0.4 -0.1
v -0.2 0.4 -0.2
v 0.1 0.4 -0.2
v -0.3 0.4 -0.3
v 0.2 0.4 -0.3
v -0.4 0.4 -0.4
v 0.3 0.4 -0.4
v -0.4 1.1 0.3
v 0.3 1.1 0.3
v -0.4 1.1 -0.4
v 0.3 1.1 -0.4

# faces
f 3/3/1 2/3/1 1/3/1
f 4/3/1 2/3/1 3/3/1
f 5/2/1 4/2/1 3/2/1
f 6/2/1 4/2/1 5/2/1
f 7/3/1 6/3/1 5/3/1
f 8/3/1 6/3/1 7/3/1
f 9/2/1 8/2/1 7/2/1
f 10/2/1 8/2/1 9/2/1
f 11/3/1 10/3/1 9/3/1
f 12/3/1 10/3/1 11/3/1
f 15/1/1 14/1/1 13/1/1
f 16/1/1 14/1/1 15/1/1
f 19/1/1 18/1/1 17/1/1
f 20/1/1 18/1/1 19/1/1
f 21/1/2 22/1/2 23/1/2
f 23/1/2 22/1/2 24/1/2
f 25/1/2 26/1/2 27/1/2
f 27/1/2 26/1/2 28/1/2
f 29/3/2 30/3/2 31/3/2
f 31/3/2 30/3/2 32/3/2
f 31/2/2 32/2/2 33/2/2
f 33/2/2 32/2/2 34/2/2
f 33/3/2 34/3/2 35/3/2
f 35/3/2 34/3/2 36/3/2
f 35/2/2 36/2/2 37/2/2
f 37/2/2 36/2/2 38/2/2
f 37/3/2 38/3/2 39/3/2
f 39/3/2 38/3/2 40/3/2
f 47/3/3 42/3/3 41/3/3
f 48/2/3 43/2/3 42/2/3
f 48/3/3 42/3/3 47/3/3
f 49/3/3 44/3/3 43/3/3
f 49/2/3 43/2/3 48/2/3
f 50/2/3 45/2/3 44/2/3
f 50/3/3 44/3/3 49/3/3
f 51/3/3 46/3/3 45/3/3
f 51/2/3 45/2/3 50/2/3
f 52/3/3 46/3/3 51/3/3
f 55/1/3 54/1/3 53/1/3
f 56/1/3 54/1/3 55/1/3
f 59/1/3 58/1/3 57/1/3
f 60/1/3 58/1/3 59/1/3
f 61/1/4 62/1/4 63/1/4
f 63/1/4 62/1/4 64/1/4
f 65/1/4 66/1/4 67/1/4
f 67/1/4 66/1/4 68/1/4
f 69/3/4 70/3/4 75/3/4
f 70/2/4 71/2/4 76/2/4
f 75/3/4 70/3/4 76/3/4
f 71/3/4 72/3/4 77/3/4
f 76/2/4 71/2/4 77/2/4
f 72/2/4 73/2/4 78/2/4
f 77/3/4 72/3/4 78/3/4
f 73/3/4 74/3/4 79/3/4
f 78/2/4 73/2/4 79/2/4
f 79/3/4 74/3/4 80/3/4
f 83/1/5 82/1/5 81/1/5
f 84/1/5 82/1/5 83/1/5
f 85/1/5 83/1/5 81/1/5
f 86/1/5 82/1/5 84/1/5
f 87/1/5 85/1/5 81/1/5
f 87/1/5 86/1/5 85/1/5
f 88/1/5 82/1/5 86/1/5
f 88/1/5 86/1/5 87/1/5
f 91/3/5 90/3/5 89/3/5
f 92/3/5 90/3/5 91/3/5
f 93/2/5 92/2/5 91/2/5
f 94/2/5 92/2/5 93/2/5
f 97/2/5 96/2/5 95/2/5
f 98/2/5 96/2/5 97/2/5
f 99/2/5 93/2/5 91/2/5
f 100/2/5 92/2/5 94/2/5
f 101/3/5 91/3/5 89/3/5
f 101/2/5 100/2/5 99/2/5
f 101/2/5 99/2/5 91/2/5
f 102/2/5 92/2/5 100/2/5
f 102/2/5 100/2/5 101/2/5
f 102/3/5 90/3/5 92/3/5
f 103/3/5 101/3/5 89/3/5
f 103/3/5 102/3/5 101/3/5
f 104/3/5 90/3/5 102/3/5
f 104/3/5 102/3/5 103/3/5
f 105/3/6 106/3/6 107/3/6
f 107/3/6 106/3/6 108/3/6
