# MagicaVoxel @ Ephtracy

# group
o 

# material
mtllib car_yellow.mtl
usemtl palette

# normals
vn -1 0 0
vn 1 0 0
vn 0 0 1
vn 0 0 -1
vn 0 -1 0
vn 0 1 0

# texcoords
vt 0.939453 0.5
vt 0.943359 0.5
vt 0.947266 0.5
vt 0.974609 0.5
vt 0.978516 0.5

# verts
v -0.8 0.1 0.5
v -0.8 0.1 -0.4
v -0.8 0.2 0.5
v -0.8 0.2 -0.4
v -0.8 0.3 0.5
v -0.8 0.3 0.2
v -0.8 0.3 -0.1
v -0.8 0.3 -0.4
v -0.8 0.5 0.5
v -0.8 0.5 0.2
v -0.8 0.5 -0.1
v -0.8 0.5 -0.4
v -0.7 0 0.5
v -0.7 0 0.4
v -0.7 0 -0.3
v -0.7 0 -0.4
v -0.7 0.1 0.5
v -0.7 0.1 0.4
v -0.7 0.1 -0.3
v -0.7 0.1 -0.4
v -0.5 0.5 0.4
v -0.5 0.5 0.3
v -0.5 0.5 0.2
v -0.5 0.5 -0.1
v -0.5 0.5 -0.2
v -0.5 0.5 -0.3
v -0.5 0.7 0.3
v -0.5 0.7 -0.2
v -0.5 0.8 0.4
v -0.5 0.8 -0.3
v -0.1 0.4 0.6
v -0.1 0.4 0.5
v -0.1 0.4 -0.4
v -0.1 0.4 -0.5
v -0.1 0.5 0.6
v -0.1 0.5 0.5
v -0.1 0.5 -0.4
v -0.1 0.5 -0.5
v 0.4 0 0.5
v 0.4 0 0.4
v 0.4 0 -0.3
v 0.4 0 -0.4
v 0.4 0.1 0.5
v 0.4 0.1 0.4
v 0.4 0.1 -0.3
v 0.4 0.1 -0.4
v -0.4 0 0.5
v -0.4 0 0.4
v -0.4 0 -0.3
v -0.4 0 -0.4
v -0.4 0.1 0.5
v -0.4 0.1 0.4
v -0.4 0.1 -0.3
v -0.4 0.1 -0.4
v 0.1 0.4 0.6
v 0.1 0.4 0.5
v 0.1 0.4 -0.4
v 0.1 0.4 -0.5
v 0.1 0.5 0.6
v 0.1 0.5 0.5
v 0.1 0.5 -0.4
v 0.1 0.5 -0.5
v 0.3 0.5 0.4
v 0.3 0.5 0.3
v 0.3 0.5 0.2
v 0.3 0.5 -0.1
v 0.3 0.5 -0.2
v 0.3 0.5 -0.3
v 0.3 0.7 0.3
v 0.3 0.7 -0.2
v 0.3 0.8 0.4
v 0.3 0.8 -0.3
v 0.7 0 0.5
v 0.7 0 0.4
v 0.7 0 -0.3
v 0.7 0 -0.4
v 0.7 0.1 0.5
v 0.7 0.1 0.4
v 0.7 0.1 -0.3
v 0.7 0.1 -0.4
v 0.9 0.1 0.5
v 0.9 0.1 -0.4
v 0.9 0.2 0.5
v 0.9 0.2 -0.4
v 0.9 0.3 0.5
v 0.9 0.3 0.4
v 0.9 0.3 0.3
v 0.9 0.3 0.2
v 0.9 0.3 -0.1
v 0.9 0.3 -0.2
v 0.9 0.3 -0.3
v 0.9 0.3 -0.4
v 0.9 0.4 0.4
v 0.9 0.4 0.3
v 0.9 0.4 -0.2
v 0.9 0.4 -0.3
v 0.9 0.5 0.5
v 0.9 0.5 0.2
v 0.9 0.5 -0.1
v 0.9 0.5 -0.4
v -0.1 0.4 0.6
v -0.1 0.5 0.6
v 0.1 0.4 0.6
v 0.1 0.5 0.6
v -0.8 0.1 0.5
v -0.8 0.2 0.5
v -0.8 0.3 0.5
v -0.8 0.5 0.5
v -0.7 0 0.5
v -0.7 0.1 0.5
v -0.7 0.2 0.5
v -0.7 0.3 0.5
v -0.6 0.1 0.5
v -0.6 0.2 0.5
v -0.5 0.1 0.5
v -0.5 0.2 0.5
v -0.4 0 0.5
v -0.4 0.1 0.5
v -0.4 0.2 0.5
v -0.4 0.3 0.5
v -0.1 0.4 0.5
v -0.1 0.5 0.5
v 0.1 0.4 0.5
v 0.1 0.5 0.5
v 0.4 0 0.5
v 0.4 0.1 0.5
v 0.4 0.2 0.5
v 0.4 0.3 0.5
v 0.5 0.1 0.5
v 0.5 0.2 0.5
v 0.6 0.1 0.5
v 0.6 0.2 0.5
v 0.7 0 0.5
v 0.7 0.1 0.5
v 0.7 0.2 0.5
v 0.7 0.3 0.5
v 0.9 0.1 0.5
v 0.9 0.2 0.5
v 0.9 0.3 0.5
v 0.9 0.5 0.5
v -0.5 0.5 0.4
v -0.5 0.8 0.4
v -0.4 0.5 0.4
v -0.4 0.7 0.4
v -0.3 0.5 0.4
v -0.3 0.7 0.4
v -0.2 0.5 0.4
v -0.2 0.7 0.4
v 0.1 0.5 0.4
v 0.1 0.7 0.4
v 0.3 0.5 0.4
v 0.3 0.8 0.4
v -0.7 0 -0.3
v -0.7 0.1 -0.3
v -0.4 0 -0.3
v -0.4 0.1 -0.3
v 0.4 0 -0.3
v 0.4 0.1 -0.3
v 0.7 0 -0.3
v 0.7 0.1 -0.3
v -0.7 0 0.4
v -0.7 0.1 0.4
v -0.4 0 0.4
v -0.4 0.1 0.4
v 0.4 0 0.4
v 0.4 0.1 0.4
v 0.7 0 0.4
v 0.7 0.1 0.4
v -0.5 0.5 -0.3
v -0.5 0.8 -0.3
v -0.4 0.5 -0.3
v -0.4 0.7 -0.3
v -0.3 0.5 -0.3
v -0.3 0.7 -0.3
v -0.2 0.5 -0.3
v -0.2 0.7 -0.3
v 0.1 0.5 -0.3
v 0.1 0.7 -0.3
v 0.3 0.5 -0.3
v 0.3 0.8 -0.3
v -0.8 0.1 -0.4
v -0.8 0.2 -0.4
v -0.8 0.3 -0.4
v -0.8 0.5 -0.4
v -0.7 0 -0.4
v -0.7 0.1 -0.4
v -0.7 0.2 -0.4
v -0.7 0.3 -0.4
v -0.6 0.1 -0.4
v -0.6 0.2 -0.4
v -0.5 0.1 -0.4
v -0.5 0.2 -0.4
v -0.4 0 -0.4
v -0.4 0.1 -0.4
v -0.4 0.2 -0.4
v -0.4 0.3 -0.4
v -0.1 0.4 -0.4
v -0.1 0.5 -0.4
v 0.1 0.4 -0.4
v 0.1 0.5 -0.4
v 0.4 0 -0.4
v 0.4 0.1 -0.4
v 0.4 0.2 -0.4
v 0.4 0.3 -0.4
v 0.5 0.1 -0.4
v 0.5 0.2 -0.4
v 0.6 0.1 -0.4
v 0.6 0.2 -0.4
v 0.7 0 -0.4
v 0.7 0.1 -0.4
v 0.7 0.2 -0.4
v 0.7 0.3 -0.4
v 0.9 0.1 -0.4
v 0.9 0.2 -0.4
v 0.9 0.3 -0.4
v 0.9 0.5 -0.4
v -0.1 0.4 -0.5
v -0.1 0.5 -0.5
v 0.1 0.4 -0.5
v 0.1 0.5 -0.5
v -0.7 0 0.5
v -0.4 0 0.5
v 0.4 0 0.5
v 0.7 0 0.5
v -0.7 0 0.4
v -0.4 0 0.4
v 0.4 0 0.4
v 0.7 0 0.4
v -0.7 0 -0.3
v -0.4 0 -0.3
v 0.4 0 -0.3
v 0.7 0 -0.3
v -0.7 0 -0.4
v -0.4 0 -0.4
v 0.4 0 -0.4
v 0.7 0 -0.4
v -0.8 0.1 0.5
v -0.7 0.1 0.5
v -0.4 0.1 0.5
v 0.4 0.1 0.5
v 0.7 0.1 0.5
v 0.9 0.1 0.5
v -0.7 0.1 0.4
v -0.4 0.1 0.4
v 0.4 0.1 0.4
v 0.7 0.1 0.4
v -0.7 0.1 -0.3
v -0.4 0.1 -0.3
v 0.4 0.1 -0.3
v 0.7 0.1 -0.3
v -0.8 0.1 -0.4
v -0.7 0.1 -0.4
v -0.4 0.1 -0.4
v 0.4 0.1 -0.4
v 0.7 0.1 -0.4
v 0.9 0.1 -0.4
v -0.1 0.4 0.6
v 0.1 0.4 0.6
v -0.1 0.4 0.5
v 0.1 0.4 0.5
v -0.1 0.4 -0.4
v 0.1 0.4 -0.4
v -0.1 0.4 -0.5
v 0.1 0.4 -0.5
v -0.1 0.5 0.6
v 0.1 0.5 0.6
v -0.8 0.5 0.5
v -0.1 0.5 0.5
v 0.1 0.5 0.5
v 0.9 0.5 0.5
v -0.5 0.5 0.4
v -0.4 0.5 0.4
v -0.3 0.5 0.4
v -0.2 0.5 0.4
v 0.1 0.5 0.4
v 0.3 0.5 0.4
v -0.5 0.5 0.3
v 0.3 0.5 0.3
v -0.8 0.5 0.2
v -0.5 0.5 0.2
v 0.3 0.5 0.2
v 0.9 0.5 0.2
v -0.8 0.5 -0.1
v -0.5 0.5 -0.1
v 0.3 0.5 -0.1
v 0.9 0.5 -0.1
v -0.5 0.5 -0.2
v 0.3 0.5 -0.2
v -0.5 0.5 -0.3
v -0.4 0.5 -0.3
v -0.3 0.5 -0.3
v -0.2 0.5 -0.3
v 0.1 0.5 -0.3
v 0.3 0.5 -0.3
v -0.8 0.5 -0.4
v -0.1 0.5 -0.4
v 0.1 0.5 -0.4
v 0.9 0.5 -0.4
v -0.1 0.5 -0.5
v 0.1 0.5 -0.5
v -0.5 0.8 0.4
v 0.3 0.8 0.4
v -0.5 0.8 -0.3
v 0.3 0.8 -0.3

# faces
f 3/1/1 2/1/1 1/1/1
f 4/1/1 2/1/1 3/1/1
f 5/2/1 4/2/1 3/2/1
f 6/2/1 4/2/1 5/2/1
f 7/2/1 4/2/1 6/2/1
f 8/2/1 4/2/1 7/2/1
f 9/3/1 6/3/1 5/3/1
f 10/2/1 7/2/1 6/2/1
f 10/3/1 6/3/1 9/3/1
f 11/3/1 8/3/1 7/3/1
f 11/2/1 7/2/1 10/2/1
f 12/3/1 8/3/1 11/3/1
f 17/5/1 14/5/1 13/5/1
f 18/5/1 14/5/1 17/5/1
f 19/5/1 16/5/1 15/5/1
f 20/5/1 16/5/1 19/5/1
f 27/4/1 22/4/1 21/4/1
f 27/5/1 23/5/1 22/5/1
f 27/5/1 25/5/1 24/5/1
f 27/5/1 24/5/1 23/5/1
f 28/4/1 26/4/1 25/4/1
f 28/5/1 25/5/1 27/5/1
f 29/4/1 27/4/1 21/4/1
f 29/4/1 28/4/1 27/4/1
f 30/4/1 26/4/1 28/4/1
f 30/4/1 28/4/1 29/4/1
f 35/2/1 32/2/1 31/2/1
f 36/2/1 32/2/1 35/2/1
f 37/2/1 34/2/1 33/2/1
f 38/2/1 34/2/1 37/2/1
f 43/5/1 40/5/1 39/5/1
f 44/5/1 40/5/1 43/5/1
f 45/5/1 42/5/1 41/5/1
f 46/5/1 42/5/1 45/5/1
f 47/5/2 48/5/2 51/5/2
f 51/5/2 48/5/2 52/5/2
f 49/5/2 50/5/2 53/5/2
f 53/5/2 50/5/2 54/5/2
f 55/2/2 56/2/2 59/2/2
f 59/2/2 56/2/2 60/2/2
f 57/2/2 58/2/2 61/2/2
f 61/2/2 58/2/2 62/2/2
f 63/4/2 64/4/2 69/4/2
f 64/5/2 65/5/2 69/5/2
f 66/5/2 67/5/2 69/5/2
f 65/5/2 66/5/2 69/5/2
f 67/4/2 68/4/2 70/4/2
f 69/5/2 67/5/2 70/5/2
f 63/4/2 69/4/2 71/4/2
f 69/4/2 70/4/2 71/4/2
f 70/4/2 68/4/2 72/4/2
f 71/4/2 70/4/2 72/4/2
f 73/5/2 74/5/2 77/5/2
f 77/5/2 74/5/2 78/5/2
f 75/5/2 76/5/2 79/5/2
f 79/5/2 76/5/2 80/5/2
f 81/1/2 82/1/2 83/1/2
f 83/1/2 82/1/2 84/1/2
f 83/2/2 84/2/2 85/2/2
f 85/2/2 84/2/2 86/2/2
f 86/2/2 84/2/2 87/2/2
f 87/2/2 84/2/2 88/2/2
f 88/2/2 84/2/2 89/2/2
f 89/2/2 84/2/2 90/2/2
f 90/2/2 84/2/2 91/2/2
f 91/2/2 84/2/2 92/2/2
f 85/3/2 86/3/2 93/3/2
f 86/4/2 87/4/2 93/4/2
f 87/3/2 88/3/2 94/3/2
f 93/4/2 87/4/2 94/4/2
f 89/3/2 90/3/2 95/3/2
f 90/4/2 91/4/2 95/4/2
f 91/3/2 92/3/2 96/3/2
f 95/4/2 91/4/2 96/4/2
f 85/3/2 93/3/2 97/3/2
f 93/3/2 94/3/2 97/3/2
f 88/2/2 89/2/2 98/2/2
f 97/3/2 94/3/2 98/3/2
f 94/3/2 88/3/2 98/3/2
f 89/3/2 95/3/2 99/3/2
f 98/2/2 89/2/2 99/2/2
f 95/3/2 96/3/2 99/3/2
f 96/3/2 92/3/2 100/3/2
f 99/3/2 96/3/2 100/3/2
f 103/2/3 102/2/3 101/2/3
f 104/2/3 102/2/3 103/2/3
f 110/1/3 106/1/3 105/1/3
f 111/2/3 107/2/3 106/2/3
f 111/1/3 106/1/3 110/1/3
f 112/3/3 108/3/3 107/3/3
f 112/2/3 107/2/3 111/2/3
f 113/5/3 111/5/3 110/5/3
f 113/5/3 110/5/3 109/5/3
f 113/5/3 112/5/3 111/5/3
f 114/5/3 112/5/3 113/5/3
f 115/5/3 113/5/3 109/5/3
f 115/4/3 114/4/3 113/4/3
f 116/5/3 112/5/3 114/5/3
f 116/4/3 114/4/3 115/4/3
f 117/5/3 115/5/3 109/5/3
f 117/5/3 116/5/3 115/5/3
f 118/5/3 116/5/3 117/5/3
f 119/5/3 112/5/3 116/5/3
f 119/5/3 116/5/3 118/5/3
f 120/3/3 108/3/3 112/3/3
f 120/5/3 112/5/3 119/5/3
f 121/3/3 108/3/3 120/3/3
f 122/3/3 108/3/3 121/3/3
f 123/3/3 121/3/3 120/3/3
f 126/1/3 119/1/3 118/1/3
f 127/2/3 120/2/3 119/2/3
f 127/1/3 119/1/3 126/1/3
f 128/3/3 124/3/3 123/3/3
f 128/2/3 120/2/3 127/2/3
f 128/3/3 123/3/3 120/3/3
f 129/5/3 127/5/3 126/5/3
f 129/5/3 126/5/3 125/5/3
f 129/5/3 128/5/3 127/5/3
f 130/5/3 128/5/3 129/5/3
f 131/5/3 129/5/3 125/5/3
f 131/4/3 130/4/3 129/4/3
f 132/5/3 128/5/3 130/5/3
f 132/4/3 130/4/3 131/4/3
f 133/5/3 131/5/3 125/5/3
f 133/5/3 132/5/3 131/5/3
f 134/5/3 132/5/3 133/5/3
f 135/5/3 128/5/3 132/5/3
f 135/5/3 132/5/3 134/5/3
f 136/3/3 124/3/3 128/3/3
f 136/5/3 128/5/3 135/5/3
f 137/1/3 135/1/3 134/1/3
f 138/2/3 136/2/3 135/2/3
f 138/1/3 135/1/3 137/1/3
f 139/3/3 124/3/3 136/3/3
f 139/2/3 136/2/3 138/2/3
f 140/3/3 124/3/3 139/3/3
f 143/4/3 142/4/3 141/4/3
f 144/4/3 142/4/3 143/4/3
f 145/5/3 144/5/3 143/5/3
f 146/4/3 142/4/3 144/4/3
f 146/5/3 144/5/3 145/5/3
f 147/4/3 146/4/3 145/4/3
f 148/4/3 142/4/3 146/4/3
f 148/4/3 146/4/3 147/4/3
f 149/5/3 148/5/3 147/5/3
f 150/4/3 142/4/3 148/4/3
f 150/5/3 148/5/3 149/5/3
f 151/4/3 150/4/3 149/4/3
f 152/4/3 142/4/3 150/4/3
f 152/4/3 150/4/3 151/4/3
f 155/5/3 154/5/3 153/5/3
f 156/5/3 154/5/3 155/5/3
f 159/5/3 158/5/3 157/5/3
f 160/5/3 158/5/3 159/5/3
f 161/5/4 162/5/4 163/5/4
f 163/5/4 162/5/4 164/5/4
f 165/5/4 166/5/4 167/5/4
f 167/5/4 166/5/4 168/5/4
f 169/4/4 170/4/4 171/4/4
f 171/4/4 170/4/4 172/4/4
f 171/5/4 172/5/4 173/5/4
f 172/4/4 170/4/4 174/4/4
f 173/5/4 172/5/4 174/5/4
f 173/4/4 174/4/4 175/4/4
f 174/4/4 170/4/4 176/4/4
f 175/4/4 174/4/4 176/4/4
f 175/5/4 176/5/4 177/5/4
f 176/4/4 170/4/4 178/4/4
f 177/5/4 176/5/4 178/5/4
f 177/4/4 178/4/4 179/4/4
f 178/4/4 170/4/4 180/4/4
f 179/4/4 178/4/4 180/4/4
f 181/1/4 182/1/4 186/1/4
f 182/2/4 183/2/4 187/2/4
f 186/1/4 182/1/4 187/1/4
f 183/3/4 184/3/4 188/3/4
f 187/2/4 183/2/4 188/2/4
f 186/5/4 187/5/4 189/5/4
f 185/5/4 186/5/4 189/5/4
f 187/5/4 188/5/4 189/5/4
f 189/5/4 188/5/4 190/5/4
f 185/5/4 189/5/4 191/5/4
f 189/4/4 190/4/4 191/4/4
f 190/5/4 188/5/4 192/5/4
f 191/4/4 190/4/4 192/4/4
f 185/5/4 191/5/4 193/5/4
f 191/5/4 192/5/4 193/5/4
f 193/5/4 192/5/4 194/5/4
f 192/5/4 188/5/4 195/5/4
f 194/5/4 192/5/4 195/5/4
f 188/3/4 184/3/4 196/3/4
f 195/5/4 188/5/4 196/5/4
f 196/3/4 184/3/4 197/3/4
f 197/3/4 184/3/4 198/3/4
f 196/3/4 197/3/4 199/3/4
f 194/1/4 195/1/4 202/1/4
f 195/2/4 196/2/4 203/2/4
f 202/1/4 195/1/4 203/1/4
f 199/3/4 200/3/4 204/3/4
f 203/2/4 196/2/4 204/2/4
f 196/3/4 199/3/4 204/3/4
f 202/5/4 203/5/4 205/5/4
f 201/5/4 202/5/4 205/5/4
f 203/5/4 204/5/4 205/5/4
f 205/5/4 204/5/4 206/5/4
f 201/5/4 205/5/4 207/5/4
f 205/4/4 206/4/4 207/4/4
f 206/5/4 204/5/4 208/5/4
f 207/4/4 206/4/4 208/4/4
f 201/5/4 207/5/4 209/5/4
f 207/5/4 208/5/4 209/5/4
f 209/5/4 208/5/4 210/5/4
f 208/5/4 204/5/4 211/5/4
f 210/5/4 208/5/4 211/5/4
f 204/3/4 200/3/4 212/3/4
f 211/5/4 204/5/4 212/5/4
f 210/1/4 211/1/4 213/1/4
f 211/2/4 212/2/4 214/2/4
f 213/1/4 211/1/4 214/1/4
f 212/3/4 200/3/4 215/3/4
f 214/2/4 212/2/4 215/2/4
f 215/3/4 200/3/4 216/3/4
f 217/2/4 218/2/4 219/2/4
f 219/2/4 218/2/4 220/2/4
f 225/5/5 222/5/5 221/5/5
f 226/5/5 222/5/5 225/5/5
f 227/5/5 224/5/5 223/5/5
f 228/5/5 224/5/5 227/5/5
f 233/5/5 230/5/5 229/5/5
f 234/5/5 230/5/5 233/5/5
f 235/5/5 232/5/5 231/5/5
f 236/5/5 232/5/5 235/5/5
f 243/1/5 238/1/5 237/1/5
f 244/1/5 240/1/5 239/1/5
f 245/1/5 240/1/5 244/1/5
f 246/1/5 242/1/5 241/1/5
f 247/1/5 245/1/5 244/1/5
f 247/1/5 246/1/5 245/1/5
f 247/1/5 243/1/5 237/1/5
f 247/1/5 244/1/5 243/1/5
f 248/1/5 246/1/5 247/1/5
f 249/1/5 246/1/5 248/1/5
f 250/1/5 242/1/5 246/1/5
f 250/1/5 246/1/5 249/1/5
f 251/1/5 247/1/5 237/1/5
f 252/1/5 247/1/5 251/1/5
f 253/1/5 249/1/5 248/1/5
f 254/1/5 249/1/5 253/1/5
f 255/1/5 242/1/5 250/1/5
f 256/1/5 242/1/5 255/1/5
f 259/2/5 258/2/5 257/2/5
f 260/2/5 258/2/5 259/2/5
f 263/2/5 262/2/5 261/2/5
f 264/2/5 262/2/5 263/2/5
f 265/2/6 266/2/6 268/2/6
f 268/2/6 266/2/6 269/2/6
f 267/3/6 268/3/6 271/3/6
f 269/3/6 270/3/6 271/3/6
f 268/3/6 269/3/6 271/3/6
f 271/3/6 270/3/6 272/3/6
f 272/3/6 270/3/6 273/3/6
f 273/3/6 270/3/6 274/3/6
f 274/3/6 270/3/6 275/3/6
f 275/3/6 270/3/6 276/3/6
f 267/3/6 271/3/6 277/3/6
f 276/3/6 270/3/6 278/3/6
f 267/3/6 277/3/6 279/3/6
f 279/3/6 277/3/6 280/3/6
f 278/3/6 270/3/6 281/3/6
f 281/3/6 270/3/6 282/3/6
f 279/2/6 280/2/6 283/2/6
f 283/2/6 280/2/6 284/2/6
f 281/2/6 282/2/6 285/2/6
f 285/2/6 282/2/6 286/2/6
f 283/3/6 284/3/6 287/3/6
f 285/3/6 286/3/6 288/3/6
f 283/3/6 287/3/6 289/3/6
f 288/3/6 286/3/6 294/3/6
f 292/3/6 293/3/6 295/3/6
f 293/3/6 294/3/6 295/3/6
f 283/3/6 289/3/6 295/3/6
f 289/3/6 290/3/6 295/3/6
f 291/3/6 292/3/6 295/3/6
f 290/3/6 291/3/6 295/3/6
f 295/3/6 294/3/6 296/3/6
f 296/3/6 294/3/6 297/3/6
f 294/3/6 286/3/6 298/3/6
f 297/3/6 294/3/6 298/3/6
f 296/2/6 297/2/6 299/2/6
f 299/2/6 297/2/6 300/2/6
f 301/4/6 302/4/6 303/4/6
f 303/4/6 302/4/6 304/4/6
