# MagicaVoxel @ Ephtracy

# group
o 

# material
mtllib car_black.mtl
usemtl palette

# normals
vn -1 0 0
vn 1 0 0
vn 0 0 1
vn 0 0 -1
vn 0 -1 0
vn 0 1 0

# texcoords
vt 0.876953 0.5
vt 0.880859 0.5
vt 0.888672 0.5
vt 0.892578 0.5
vt 0.896484 0.5
vt 0.943359 0.5
vt 0.974609 0.5
vt 0.978516 0.5
vt 0.986328 0.5

# verts
v -0.9 0.2 0.3
v -0.9 0.2 0.2
v -0.9 0.2 -0.1
v -0.9 0.2 -0.2
v -0.9 0.3 0.3
v -0.9 0.3 0.2
v -0.9 0.3 -0.1
v -0.9 0.3 -0.2
v -0.8 0.1 0.5
v -0.8 0.1 -0.4
v -0.8 0.2 0.5
v -0.8 0.2 0.3
v -0.8 0.2 0.2
v -0.8 0.2 -0.1
v -0.8 0.2 -0.2
v -0.8 0.2 -0.4
v -0.8 0.3 0.3
v -0.8 0.3 0.2
v -0.8 0.3 -0.1
v -0.8 0.3 -0.2
v -0.8 0.5 0.6
v -0.8 0.5 0.5
v -0.8 0.5 -0.4
v -0.8 0.5 -0.5
v -0.8 0.6 0.6
v -0.8 0.6 -0.5
v -0.5 0.5 0.5
v -0.5 0.5 0.4
v -0.5 0.5 -0.3
v -0.5 0.5 -0.4
v -0.5 0.6 0.4
v -0.5 0.6 -0.3
v -0.5 0.7 0.5
v -0.5 0.7 -0.4
v -0.4 0.7 0.3
v -0.4 0.7 0.2
v -0.4 0.7 -0.1
v -0.4 0.7 -0.2
v -0.4 0.8 0.4
v -0.4 0.8 0.3
v -0.4 0.8 -0.2
v -0.4 0.8 -0.3
v -0.4 0.9 0.4
v -0.4 0.9 0.2
v -0.4 0.9 -0.1
v -0.4 0.9 -0.3
v 0 0.4 0.6
v 0 0.4 0.5
v 0 0.4 -0.4
v 0 0.4 -0.5
v 0 0.5 0.6
v 0 0.5 0.5
v 0 0.5 -0.4
v 0 0.5 -0.5
v 0.4 0.5 0.2
v 0.4 0.5 -0.1
v 0.4 0.6 0.2
v 0.4 0.6 -0.1
v -0.7 0.5 0.6
v -0.7 0.5 0.5
v -0.7 0.5 -0.4
v -0.7 0.5 -0.5
v -0.7 0.6 0.6
v -0.7 0.6 -0.5
v -0.3 0.7 0.3
v -0.3 0.7 0.2
v -0.3 0.7 -0.1
v -0.3 0.7 -0.2
v -0.3 0.8 0.4
v -0.3 0.8 0.3
v -0.3 0.8 -0.2
v -0.3 0.8 -0.3
v -0.3 0.9 0.4
v -0.3 0.9 0.2
v -0.3 0.9 -0.1
v -0.3 0.9 -0.3
v 0.2 0.4 0.6
v 0.2 0.4 0.5
v 0.2 0.4 -0.4
v 0.2 0.4 -0.5
v 0.2 0.5 0.6
v 0.2 0.5 0.5
v 0.2 0.5 0.4
v 0.2 0.5 -0.3
v 0.2 0.5 -0.4
v 0.2 0.5 -0.5
v 0.2 0.6 0.4
v 0.2 0.6 -0.3
v 0.2 0.7 0.5
v 0.2 0.7 -0.4
v 0.9 0.5 0.2
v 0.9 0.5 -0.1
v 0.9 0.6 0.2
v 0.9 0.6 -0.1
v 1.1 0.1 0.5
v 1.1 0.1 -0.4
v 1.1 0.2 0.5
v 1.1 0.2 -0.4
v 1.1 0.3 0.5
v 1.1 0.3 0.3
v 1.1 0.3 -0.2
v 1.1 0.3 -0.4
v 1.1 0.4 0.5
v 1.1 0.4 0.3
v 1.1 0.4 -0.2
v 1.1 0.4 -0.4
v 1.1 0.5 0.5
v 1.1 0.5 -0.4
v -0.8 0.5 0.6
v -0.8 0.6 0.6
v -0.7 0.5 0.6
v -0.7 0.6 0.6
v 0 0.4 0.6
v 0 0.5 0.6
v 0.2 0.4 0.6
v 0.2 0.5 0.6
v -0.8 0.1 0.5
v -0.8 0.2 0.5
v -0.8 0.5 0.5
v -0.7 0.1 0.5
v -0.7 0.2 0.5
v -0.7 0.4 0.5
v -0.7 0.5 0.5
v -0.6 0.2 0.5
v -0.6 0.3 0.5
v -0.5 0.2 0.5
v -0.5 0.3 0.5
v -0.5 0.5 0.5
v -0.5 0.7 0.5
v -0.4 0.1 0.5
v -0.4 0.2 0.5
v -0.4 0.4 0.5
v -0.4 0.5 0.5
v -0.4 0.6 0.5
v 0 0.4 0.5
v 0 0.5 0.5
v 0.1 0.5 0.5
v 0.1 0.6 0.5
v 0.2 0.4 0.5
v 0.2 0.5 0.5
v 0.2 0.7 0.5
v 0.4 0.1 0.5
v 0.4 0.2 0.5
v 0.4 0.4 0.5
v 0.5 0.2 0.5
v 0.5 0.3 0.5
v 0.6 0.2 0.5
v 0.6 0.3 0.5
v 0.7 0.1 0.5
v 0.7 0.2 0.5
v 0.7 0.4 0.5
v 1 0.3 0.5
v 1 0.4 0.5
v 1.1 0.1 0.5
v 1.1 0.2 0.5
v 1.1 0.3 0.5
v 1.1 0.4 0.5
v 1.1 0.5 0.5
v -0.4 0.8 0.4
v -0.4 0.9 0.4
v -0.3 0.8 0.4
v -0.3 0.9 0.4
v -0.9 0.2 0.3
v -0.9 0.3 0.3
v -0.8 0.2 0.3
v -0.8 0.3 0.3
v -0.4 0.7 0.3
v -0.4 0.8 0.3
v -0.3 0.7 0.3
v -0.3 0.8 0.3
v 0.4 0.5 0.2
v 0.4 0.6 0.2
v 0.9 0.5 0.2
v 0.9 0.6 0.2
v -0.9 0.2 -0.1
v -0.9 0.3 -0.1
v -0.8 0.2 -0.1
v -0.8 0.3 -0.1
v -0.4 0.7 -0.1
v -0.4 0.9 -0.1
v -0.3 0.7 -0.1
v -0.3 0.9 -0.1
v -0.9 0.2 0.2
v -0.9 0.3 0.2
v -0.8 0.2 0.2
v -0.8 0.3 0.2
v -0.4 0.7 0.2
v -0.4 0.9 0.2
v -0.3 0.7 0.2
v -0.3 0.9 0.2
v 0.4 0.5 -0.1
v 0.4 0.6 -0.1
v 0.9 0.5 -0.1
v 0.9 0.6 -0.1
v -0.9 0.2 -0.2
v -0.9 0.3 -0.2
v -0.8 0.2 -0.2
v -0.8 0.3 -0.2
v -0.4 0.7 -0.2
v -0.4 0.8 -0.2
v -0.3 0.7 -0.2
v -0.3 0.8 -0.2
v -0.4 0.8 -0.3
v -0.4 0.9 -0.3
v -0.3 0.8 -0.3
v -0.3 0.9 -0.3
v -0.8 0.1 -0.4
v -0.8 0.2 -0.4
v -0.8 0.5 -0.4
v -0.7 0.1 -0.4
v -0.7 0.2 -0.4
v -0.7 0.4 -0.4
v -0.7 0.5 -0.4
v -0.6 0.2 -0.4
v -0.6 0.3 -0.4
v -0.5 0.2 -0.4
v -0.5 0.3 -0.4
v -0.5 0.5 -0.4
v -0.5 0.7 -0.4
v -0.4 0.1 -0.4
v -0.4 0.2 -0.4
v -0.4 0.4 -0.4
v -0.4 0.5 -0.4
v -0.4 0.6 -0.4
v 0 0.4 -0.4
v 0 0.5 -0.4
v 0.1 0.5 -0.4
v 0.1 0.6 -0.4
v 0.2 0.4 -0.4
v 0.2 0.5 -0.4
v 0.2 0.7 -0.4
v 0.4 0.1 -0.4
v 0.4 0.2 -0.4
v 0.4 0.4 -0.4
v 0.5 0.2 -0.4
v 0.5 0.3 -0.4
v 0.6 0.2 -0.4
v 0.6 0.3 -0.4
v 0.7 0.1 -0.4
v 0.7 0.2 -0.4
v 0.7 0.4 -0.4
v 1 0.3 -0.4
v 1 0.4 -0.4
v 1.1 0.1 -0.4
v 1.1 0.2 -0.4
v 1.1 0.3 -0.4
v 1.1 0.4 -0.4
v 1.1 0.5 -0.4
v -0.8 0.5 -0.5
v -0.8 0.6 -0.5
v -0.7 0.5 -0.5
v -0.7 0.6 -0.5
v 0 0.4 -0.5
v 0 0.5 -0.5
v 0.2 0.4 -0.5
v 0.2 0.5 -0.5
v -0.8 0.1 0.5
v -0.7 0.1 0.5
v -0.4 0.1 0.5
v 0.4 0.1 0.5
v 0.7 0.1 0.5
v 1.1 0.1 0.5
v -0.7 0.1 0.4
v -0.4 0.1 0.4
v 0.4 0.1 0.4
v 0.7 0.1 0.4
v -0.7 0.1 -0.3
v -0.4 0.1 -0.3
v 0.4 0.1 -0.3
v 0.7 0.1 -0.3
v -0.8 0.1 -0.4
v -0.7 0.1 -0.4
v -0.4 0.1 -0.4
v 0.4 0.1 -0.4
v 0.7 0.1 -0.4
v 1.1 0.1 -0.4
v -0.9 0.2 0.3
v -0.8 0.2 0.3
v -0.9 0.2 0.2
v -0.8 0.2 0.2
v -0.9 0.2 -0.1
v -0.8 0.2 -0.1
v -0.9 0.2 -0.2
v -0.8 0.2 -0.2
v 0 0.4 0.6
v 0.2 0.4 0.6
v 0 0.4 0.5
v 0.2 0.4 0.5
v 0 0.4 -0.4
v 0.2 0.4 -0.4
v 0 0.4 -0.5
v 0.2 0.4 -0.5
v -0.8 0.5 0.6
v -0.7 0.5 0.6
v -0.8 0.5 0.5
v -0.7 0.5 0.5
v -0.8 0.5 -0.4
v -0.7 0.5 -0.4
v -0.8 0.5 -0.5
v -0.7 0.5 -0.5
v -0.4 0.8 0.4
v -0.3 0.8 0.4
v -0.4 0.8 0.3
v -0.3 0.8 0.3
v -0.4 0.8 -0.2
v -0.3 0.8 -0.2
v -0.4 0.8 -0.3
v -0.3 0.8 -0.3
v -0.9 0.3 0.3
v -0.8 0.3 0.3
v -0.9 0.3 0.2
v -0.8 0.3 0.2
v -0.9 0.3 -0.1
v -0.8 0.3 -0.1
v -0.9 0.3 -0.2
v -0.8 0.3 -0.2
v 0 0.5 0.6
v 0.2 0.5 0.6
v -0.7 0.5 0.5
v -0.5 0.5 0.5
v 0 0.5 0.5
v 0.1 0.5 0.5
v 0.2 0.5 0.5
v 1.1 0.5 0.5
v -0.5 0.5 0.4
v 0.2 0.5 0.4
v 0.4 0.5 0.2
v 0.9 0.5 0.2
v 0.4 0.5 -0.1
v 0.9 0.5 -0.1
v -0.5 0.5 -0.3
v 0.2 0.5 -0.3
v -0.7 0.5 -0.4
v -0.5 0.5 -0.4
v 0 0.5 -0.4
v 0.1 0.5 -0.4
v 0.2 0.5 -0.4
v 1.1 0.5 -0.4
v 0 0.5 -0.5
v 0.2 0.5 -0.5
v -0.8 0.6 0.6
v -0.7 0.6 0.6
v 0.4 0.6 0.2
v 0.9 0.6 0.2
v 0.4 0.6 -0.1
v 0.9 0.6 -0.1
v -0.8 0.6 -0.5
v -0.7 0.6 -0.5
v -0.5 0.7 0.5
v 0.2 0.7 0.5
v -0.4 0.7 0.3
v -0.3 0.7 0.3
v -0.4 0.7 0.2
v -0.3 0.7 0.2
v -0.4 0.7 -0.1
v -0.3 0.7 -0.1
v -0.4 0.7 -0.2
v -0.3 0.7 -0.2
v -0.5 0.7 -0.4
v 0.2 0.7 -0.4
v -0.4 0.9 0.4
v -0.3 0.9 0.4
v -0.4 0.9 0.2
v -0.3 0.9 0.2
v -0.4 0.9 -0.1
v -0.3 0.9 -0.1
v -0.4 0.9 -0.3
v -0.3 0.9 -0.3

# faces
f 5/2/1 2/2/1 1/2/1
f 6/2/1 2/2/1 5/2/1
f 7/2/1 4/2/1 3/2/1
f 8/2/1 4/2/1 7/2/1
f 11/1/1 10/1/1 9/1/1
f 12/1/1 10/1/1 11/1/1
f 13/1/1 10/1/1 12/1/1
f 14/1/1 10/1/1 13/1/1
f 15/1/1 10/1/1 14/1/1
f 16/1/1 10/1/1 15/1/1
f 17/6/1 12/6/1 11/6/1
f 18/6/1 14/6/1 13/6/1
f 19/6/1 14/6/1 18/6/1
f 20/6/1 16/6/1 15/6/1
f 22/6/1 19/6/1 18/6/1
f 22/6/1 20/6/1 19/6/1
f 22/6/1 17/6/1 11/6/1
f 22/6/1 18/6/1 17/6/1
f 23/6/1 16/6/1 20/6/1
f 23/6/1 20/6/1 22/6/1
f 25/2/1 23/2/1 22/2/1
f 25/2/1 24/2/1 23/2/1
f 25/2/1 22/2/1 21/2/1
f 26/2/1 24/2/1 25/2/1
f 31/9/1 28/9/1 27/9/1
f 31/8/1 29/8/1 28/8/1
f 32/9/1 30/9/1 29/9/1
f 32/8/1 29/8/1 31/8/1
f 33/9/1 31/9/1 27/9/1
f 33/9/1 32/9/1 31/9/1
f 34/9/1 30/9/1 32/9/1
f 34/9/1 32/9/1 33/9/1
f 40/3/1 36/3/1 35/3/1
f 41/3/1 38/3/1 37/3/1
f 43/3/1 40/3/1 39/3/1
f 44/3/1 36/3/1 40/3/1
f 44/3/1 40/3/1 43/3/1
f 45/3/1 42/3/1 41/3/1
f 45/3/1 41/3/1 37/3/1
f 46/3/1 42/3/1 45/3/1
f 51/5/1 48/5/1 47/5/1
f 52/5/1 48/5/1 51/5/1
f 53/5/1 50/5/1 49/5/1
f 54/5/1 50/5/1 53/5/1
f 57/3/1 56/3/1 55/3/1
f 58/3/1 56/3/1 57/3/1
f 59/2/2 60/2/2 63/2/2
f 61/2/2 62/2/2 63/2/2
f 60/2/2 61/2/2 63/2/2
f 63/2/2 62/2/2 64/2/2
f 65/3/2 66/3/2 70/3/2
f 67/3/2 68/3/2 71/3/2
f 69/3/2 70/3/2 73/3/2
f 70/3/2 66/3/2 74/3/2
f 73/3/2 70/3/2 74/3/2
f 71/3/2 72/3/2 75/3/2
f 67/3/2 71/3/2 75/3/2
f 75/3/2 72/3/2 76/3/2
f 77/5/2 78/5/2 81/5/2
f 81/5/2 78/5/2 82/5/2
f 79/5/2 80/5/2 85/5/2
f 85/5/2 80/5/2 86/5/2
f 83/8/2 84/8/2 87/8/2
f 82/9/2 83/9/2 87/9/2
f 84/9/2 85/9/2 88/9/2
f 87/8/2 84/8/2 88/8/2
f 82/9/2 87/9/2 89/9/2
f 87/9/2 88/9/2 89/9/2
f 88/9/2 85/9/2 90/9/2
f 89/9/2 88/9/2 90/9/2
f 91/3/2 92/3/2 93/3/2
f 93/3/2 92/3/2 94/3/2
f 95/1/2 96/1/2 97/1/2
f 97/1/2 96/1/2 98/1/2
f 97/6/2 98/6/2 99/6/2
f 99/6/2 98/6/2 100/6/2
f 100/6/2 98/6/2 101/6/2
f 101/6/2 98/6/2 102/6/2
f 99/4/2 100/4/2 103/4/2
f 100/6/2 101/6/2 104/6/2
f 103/4/2 100/4/2 104/4/2
f 101/4/2 102/4/2 105/4/2
f 104/6/2 101/6/2 105/6/2
f 105/4/2 102/4/2 106/4/2
f 103/6/2 104/6/2 107/6/2
f 104/6/2 105/6/2 107/6/2
f 105/6/2 106/6/2 107/6/2
f 107/6/2 106/6/2 108/6/2
f 111/2/3 110/2/3 109/2/3
f 112/2/3 110/2/3 111/2/3
f 115/5/3 114/5/3 113/5/3
f 116/5/3 114/5/3 115/5/3
f 120/1/3 118/1/3 117/1/3
f 121/6/3 119/6/3 118/6/3
f 121/1/3 118/1/3 120/1/3
f 122/6/3 119/6/3 121/6/3
f 123/6/3 119/6/3 122/6/3
f 124/8/3 121/8/3 120/8/3
f 124/8/3 122/8/3 121/8/3
f 125/8/3 122/8/3 124/8/3
f 126/8/3 124/8/3 120/8/3
f 126/7/3 125/7/3 124/7/3
f 127/8/3 122/8/3 125/8/3
f 127/7/3 125/7/3 126/7/3
f 128/6/3 123/6/3 122/6/3
f 130/8/3 126/8/3 120/8/3
f 130/8/3 127/8/3 126/8/3
f 131/8/3 127/8/3 130/8/3
f 132/6/3 128/6/3 122/6/3
f 132/8/3 127/8/3 131/8/3
f 132/8/3 122/8/3 127/8/3
f 133/9/3 129/9/3 128/9/3
f 133/6/3 128/6/3 132/6/3
f 134/9/3 129/9/3 133/9/3
f 135/6/3 132/6/3 131/6/3
f 135/6/3 133/6/3 132/6/3
f 136/8/3 134/8/3 133/8/3
f 136/6/3 133/6/3 135/6/3
f 137/8/3 134/8/3 136/8/3
f 138/9/3 129/9/3 134/9/3
f 138/8/3 134/8/3 137/8/3
f 139/6/3 135/6/3 131/6/3
f 140/9/3 138/9/3 137/9/3
f 141/9/3 129/9/3 138/9/3
f 141/9/3 138/9/3 140/9/3
f 142/1/3 131/1/3 130/1/3
f 143/6/3 140/6/3 139/6/3
f 143/1/3 131/1/3 142/1/3
f 143/6/3 139/6/3 131/6/3
f 144/6/3 140/6/3 143/6/3
f 145/8/3 143/8/3 142/8/3
f 145/8/3 144/8/3 143/8/3
f 146/8/3 144/8/3 145/8/3
f 147/8/3 145/8/3 142/8/3
f 147/7/3 146/7/3 145/7/3
f 148/8/3 144/8/3 146/8/3
f 148/7/3 146/7/3 147/7/3
f 149/8/3 147/8/3 142/8/3
f 149/8/3 148/8/3 147/8/3
f 150/8/3 148/8/3 149/8/3
f 151/6/3 140/6/3 144/6/3
f 151/8/3 148/8/3 150/8/3
f 151/8/3 144/8/3 148/8/3
f 152/6/3 151/6/3 150/6/3
f 153/6/3 140/6/3 151/6/3
f 153/6/3 151/6/3 152/6/3
f 154/1/3 150/1/3 149/1/3
f 155/6/3 152/6/3 150/6/3
f 155/1/3 150/1/3 154/1/3
f 156/4/3 153/4/3 152/4/3
f 156/6/3 152/6/3 155/6/3
f 157/6/3 140/6/3 153/6/3
f 157/4/3 153/4/3 156/4/3
f 158/6/3 140/6/3 157/6/3
f 161/3/3 160/3/3 159/3/3
f 162/3/3 160/3/3 161/3/3
f 165/2/3 164/2/3 163/2/3
f 166/2/3 164/2/3 165/2/3
f 169/3/3 168/3/3 167/3/3
f 170/3/3 168/3/3 169/3/3
f 173/3/3 172/3/3 171/3/3
f 174/3/3 172/3/3 173/3/3
f 177/2/3 176/2/3 175/2/3
f 178/2/3 176/2/3 177/2/3
f 181/3/3 180/3/3 179/3/3
f 182/3/3 180/3/3 181/3/3
f 183/2/4 184/2/4 185/2/4
f 185/2/4 184/2/4 186/2/4
f 187/3/4 188/3/4 189/3/4
f 189/3/4 188/3/4 190/3/4
f 191/3/4 192/3/4 193/3/4
f 193/3/4 192/3/4 194/3/4
f 195/2/4 196/2/4 197/2/4
f 197/2/4 196/2/4 198/2/4
f 199/3/4 200/3/4 201/3/4
f 201/3/4 200/3/4 202/3/4
f 203/3/4 204/3/4 205/3/4
f 205/3/4 204/3/4 206/3/4
f 207/1/4 208/1/4 210/1/4
f 208/6/4 209/6/4 211/6/4
f 210/1/4 208/1/4 211/1/4
f 211/6/4 209/6/4 212/6/4
f 212/6/4 209/6/4 213/6/4
f 210/8/4 211/8/4 214/8/4
f 211/8/4 212/8/4 214/8/4
f 214/8/4 212/8/4 215/8/4
f 210/8/4 214/8/4 216/8/4
f 214/7/4 215/7/4 216/7/4
f 215/8/4 212/8/4 217/8/4
f 216/7/4 215/7/4 217/7/4
f 212/6/4 213/6/4 218/6/4
f 210/8/4 216/8/4 220/8/4
f 216/8/4 217/8/4 220/8/4
f 220/8/4 217/8/4 221/8/4
f 212/6/4 218/6/4 222/6/4
f 221/8/4 217/8/4 222/8/4
f 217/8/4 212/8/4 222/8/4
f 218/9/4 219/9/4 223/9/4
f 222/6/4 218/6/4 223/6/4
f 223/9/4 219/9/4 224/9/4
f 221/6/4 222/6/4 225/6/4
f 222/6/4 223/6/4 225/6/4
f 223/8/4 224/8/4 226/8/4
f 225/6/4 223/6/4 226/6/4
f 226/8/4 224/8/4 227/8/4
f 224/9/4 219/9/4 228/9/4
f 227/8/4 224/8/4 228/8/4
f 221/6/4 225/6/4 229/6/4
f 227/9/4 228/9/4 230/9/4
f 228/9/4 219/9/4 231/9/4
f 230/9/4 228/9/4 231/9/4
f 220/1/4 221/1/4 232/1/4
f 229/6/4 230/6/4 233/6/4
f 232/1/4 221/1/4 233/1/4
f 221/6/4 229/6/4 233/6/4
f 233/6/4 230/6/4 234/6/4
f 232/8/4 233/8/4 235/8/4
f 233/8/4 234/8/4 235/8/4
f 235/8/4 234/8/4 236/8/4
f 232/8/4 235/8/4 237/8/4
f 235/7/4 236/7/4 237/7/4
f 236/8/4 234/8/4 238/8/4
f 237/7/4 236/7/4 238/7/4
f 232/8/4 237/8/4 239/8/4
f 237/8/4 238/8/4 239/8/4
f 239/8/4 238/8/4 240/8/4
f 234/6/4 230/6/4 241/6/4
f 240/8/4 238/8/4 241/8/4
f 238/8/4 234/8/4 241/8/4
f 240/6/4 241/6/4 242/6/4
f 241/6/4 230/6/4 243/6/4
f 242/6/4 241/6/4 243/6/4
f 239/1/4 240/1/4 244/1/4
f 240/6/4 242/6/4 245/6/4
f 244/1/4 240/1/4 245/1/4
f 242/4/4 243/4/4 246/4/4
f 245/6/4 242/6/4 246/6/4
f 243/6/4 230/6/4 247/6/4
f 246/4/4 243/4/4 247/4/4
f 247/6/4 230/6/4 248/6/4
f 249/2/4 250/2/4 251/2/4
f 251/2/4 250/2/4 252/2/4
f 253/5/4 254/5/4 255/5/4
f 255/5/4 254/5/4 256/5/4
f 263/1/5 258/1/5 257/1/5
f 263/8/5 259/8/5 258/8/5
f 264/1/5 260/1/5 259/1/5
f 264/8/5 259/8/5 263/8/5
f 265/8/5 261/8/5 260/8/5
f 265/1/5 260/1/5 264/1/5
f 266/1/5 262/1/5 261/1/5
f 266/8/5 261/8/5 265/8/5
f 267/1/5 265/1/5 264/1/5
f 267/1/5 264/1/5 263/1/5
f 267/1/5 266/1/5 265/1/5
f 267/1/5 263/1/5 257/1/5
f 268/1/5 266/1/5 267/1/5
f 269/1/5 266/1/5 268/1/5
f 270/1/5 262/1/5 266/1/5
f 270/1/5 266/1/5 269/1/5
f 271/1/5 267/1/5 257/1/5
f 272/8/5 268/8/5 267/8/5
f 272/1/5 267/1/5 271/1/5
f 273/1/5 269/1/5 268/1/5
f 273/8/5 268/8/5 272/8/5
f 274/8/5 270/8/5 269/8/5
f 274/1/5 269/1/5 273/1/5
f 275/1/5 262/1/5 270/1/5
f 275/8/5 270/8/5 274/8/5
f 276/1/5 262/1/5 275/1/5
f 279/2/5 278/2/5 277/2/5
f 280/2/5 278/2/5 279/2/5
f 283/2/5 282/2/5 281/2/5
f 284/2/5 282/2/5 283/2/5
f 287/5/5 286/5/5 285/5/5
f 288/5/5 286/5/5 287/5/5
f 291/5/5 290/5/5 289/5/5
f 292/5/5 290/5/5 291/5/5
f 295/2/5 294/2/5 293/2/5
f 296/2/5 294/2/5 295/2/5
f 299/2/5 298/2/5 297/2/5
f 300/2/5 298/2/5 299/2/5
f 303/3/5 302/3/5 301/3/5
f 304/3/5 302/3/5 303/3/5
f 307/3/5 306/3/5 305/3/5
f 308/3/5 306/3/5 307/3/5
f 309/2/6 310/2/6 311/2/6
f 311/2/6 310/2/6 312/2/6
f 313/2/6 314/2/6 315/2/6
f 315/2/6 314/2/6 316/2/6
f 317/5/6 318/5/6 321/5/6
f 321/5/6 318/5/6 322/5/6
f 322/5/6 318/5/6 323/5/6
f 319/6/6 320/6/6 325/6/6
f 323/6/6 324/6/6 326/6/6
f 326/6/6 324/6/6 327/6/6
f 327/6/6 324/6/6 328/6/6
f 326/6/6 327/6/6 329/6/6
f 328/6/6 324/6/6 330/6/6
f 319/6/6 325/6/6 331/6/6
f 329/6/6 330/6/6 332/6/6
f 326/6/6 329/6/6 332/6/6
f 319/6/6 331/6/6 333/6/6
f 333/6/6 331/6/6 334/6/6
f 332/6/6 330/6/6 337/6/6
f 330/6/6 324/6/6 338/6/6
f 337/6/6 330/6/6 338/6/6
f 335/5/6 336/5/6 339/5/6
f 336/5/6 337/5/6 339/5/6
f 339/5/6 337/5/6 340/5/6
f 343/3/6 344/3/6 345/3/6
f 345/3/6 344/3/6 346/3/6
f 341/2/6 342/2/6 347/2/6
f 347/2/6 342/2/6 348/2/6
f 349/9/6 350/9/6 351/9/6
f 351/9/6 350/9/6 352/9/6
f 349/9/6 351/9/6 353/9/6
f 352/9/6 350/9/6 354/9/6
f 349/9/6 353/9/6 355/9/6
f 353/9/6 354/9/6 355/9/6
f 354/9/6 350/9/6 356/9/6
f 355/9/6 354/9/6 356/9/6
f 349/9/6 355/9/6 357/9/6
f 356/9/6 350/9/6 358/9/6
f 349/9/6 357/9/6 359/9/6
f 357/9/6 358/9/6 359/9/6
f 358/9/6 350/9/6 360/9/6
f 359/9/6 358/9/6 360/9/6
f 361/3/6 362/3/6 363/3/6
f 363/3/6 362/3/6 364/3/6
f 365/3/6 366/3/6 367/3/6
f 367/3/6 366/3/6 368/3/6
