# MagicaVoxel @ Ephtracy

# group
o 

# material
mtllib car_blue.mtl
usemtl palette

# normals
vn -1 0 0
vn 1 0 0
vn 0 0 1
vn 0 0 -1
vn 0 -1 0
vn 0 1 0

# texcoords
vt 0.939453 0.5
vt 0.943359 0.5
vt 0.947266 0.5
vt 0.974609 0.5
vt 0.978516 0.5

# verts
v -0.8 0.1 0.5
v -0.8 0.1 -0.4
v -0.8 0.2 0.5
v -0.8 0.2 -0.4
v -0.8 0.3 0.5
v -0.8 0.3 0.2
v -0.8 0.3 -0.1
v -0.8 0.3 -0.4
v -0.8 0.5 0.5
v -0.8 0.5 0.2
v -0.8 0.5 -0.1
v -0.8 0.5 -0.4
v -0.7 0 0.5
v -0.7 0 0.4
v -0.7 0 -0.3
v -0.7 0 -0.4
v -0.7 0.1 0.5
v -0.7 0.1 0.4
v -0.7 0.1 -0.3
v -0.7 0.1 -0.4
v -0.5 0.5 0.4
v -0.5 0.5 0.3
v -0.5 0.5 0.2
v -0.5 0.5 -0.1
v -0.5 0.5 -0.3
v -0.5 0.7 0.3
v -0.5 0.7 -0.1
v -0.5 0.8 0.4
v -0.5 0.8 -0.3
v -0.1 0.4 0.6
v -0.1 0.4 0.5
v -0.1 0.4 -0.4
v -0.1 0.4 -0.5
v -0.1 0.5 0.6
v -0.1 0.5 0.5
v -0.1 0.5 -0.4
v -0.1 0.5 -0.5
v 0.1 0.5 0.3
v 0.1 0.5 0.2
v 0.1 0.5 -0.1
v 0.1 0.7 0.3
v 0.1 0.7 -0.1
v 0.4 0 0.5
v 0.4 0 0.4
v 0.4 0 -0.3
v 0.4 0 -0.4
v 0.4 0.1 0.5
v 0.4 0.1 0.4
v 0.4 0.1 -0.3
v 0.4 0.1 -0.4
v -0.4 0 0.5
v -0.4 0 0.4
v -0.4 0 -0.3
v -0.4 0 -0.4
v -0.4 0.1 0.5
v -0.4 0.1 0.4
v -0.4 0.1 -0.3
v -0.4 0.1 -0.4
v -0.4 0.5 0.3
v -0.4 0.5 0.2
v -0.4 0.5 -0.1
v -0.4 0.7 0.3
v -0.4 0.7 -0.1
v 0.1 0.4 0.6
v 0.1 0.4 0.5
v 0.1 0.4 -0.4
v 0.1 0.4 -0.5
v 0.1 0.5 0.6
v 0.1 0.5 0.5
v 0.1 0.5 -0.4
v 0.1 0.5 -0.5
v 0.3 0.5 0.4
v 0.3 0.5 0.3
v 0.3 0.5 0.2
v 0.3 0.5 -0.1
v 0.3 0.5 -0.2
v 0.3 0.5 -0.3
v 0.3 0.7 0.3
v 0.3 0.7 -0.2
v 0.3 0.8 0.4
v 0.3 0.8 -0.3
v 0.7 0 0.5
v 0.7 0 0.4
v 0.7 0 -0.3
v 0.7 0 -0.4
v 0.7 0.1 0.5
v 0.7 0.1 0.4
v 0.7 0.1 -0.3
v 0.7 0.1 -0.4
v 0.9 0.1 0.5
v 0.9 0.1 -0.4
v 0.9 0.2 0.5
v 0.9 0.2 -0.4
v 0.9 0.3 0.5
v 0.9 0.3 0.4
v 0.9 0.3 0.3
v 0.9 0.3 0.2
v 0.9 0.3 -0.1
v 0.9 0.3 -0.2
v 0.9 0.3 -0.3
v 0.9 0.3 -0.4
v 0.9 0.4 0.4
v 0.9 0.4 0.3
v 0.9 0.4 -0.2
v 0.9 0.4 -0.3
v 0.9 0.5 0.5
v 0.9 0.5 0.2
v 0.9 0.5 -0.1
v 0.9 0.5 -0.4
v -0.1 0.4 0.6
v -0.1 0.5 0.6
v 0.1 0.4 0.6
v 0.1 0.5 0.6
v -0.8 0.1 0.5
v -0.8 0.2 0.5
v -0.8 0.3 0.5
v -0.8 0.5 0.5
v -0.7 0 0.5
v -0.7 0.1 0.5
v -0.7 0.2 0.5
v -0.7 0.3 0.5
v -0.6 0.1 0.5
v -0.6 0.2 0.5
v -0.5 0.1 0.5
v -0.5 0.2 0.5
v -0.4 0 0.5
v -0.4 0.1 0.5
v -0.4 0.2 0.5
v -0.4 0.3 0.5
v -0.1 0.4 0.5
v -0.1 0.5 0.5
v 0.1 0.4 0.5
v 0.1 0.5 0.5
v 0.4 0 0.5
v 0.4 0.1 0.5
v 0.4 0.2 0.5
v 0.4 0.3 0.5
v 0.5 0.1 0.5
v 0.5 0.2 0.5
v 0.6 0.1 0.5
v 0.6 0.2 0.5
v 0.7 0 0.5
v 0.7 0.1 0.5
v 0.7 0.2 0.5
v 0.7 0.3 0.5
v 0.9 0.1 0.5
v 0.9 0.2 0.5
v 0.9 0.3 0.5
v 0.9 0.5 0.5
v -0.5 0.5 0.4
v -0.5 0.8 0.4
v -0.4 0.5 0.4
v -0.4 0.7 0.4
v -0.3 0.5 0.4
v -0.3 0.7 0.4
v -0.2 0.5 0.4
v -0.2 0.7 0.4
v 0.1 0.5 0.4
v 0.1 0.7 0.4
v 0.3 0.5 0.4
v 0.3 0.8 0.4
v -0.4 0.5 -0.1
v -0.4 0.7 -0.1
v -0.3 0.5 -0.1
v -0.3 0.7 -0.1
v -0.2 0.5 -0.1
v -0.2 0.7 -0.1
v 0.1 0.5 -0.1
v 0.1 0.7 -0.1
v -0.7 0 -0.3
v -0.7 0.1 -0.3
v -0.4 0 -0.3
v -0.4 0.1 -0.3
v 0.4 0 -0.3
v 0.4 0.1 -0.3
v 0.7 0 -0.3
v 0.7 0.1 -0.3
v -0.7 0 0.4
v -0.7 0.1 0.4
v -0.4 0 0.4
v -0.4 0.1 0.4
v 0.4 0 0.4
v 0.4 0.1 0.4
v 0.7 0 0.4
v 0.7 0.1 0.4
v -0.4 0.5 0.3
v -0.4 0.7 0.3
v -0.3 0.5 0.3
v -0.3 0.7 0.3
v -0.2 0.5 0.3
v -0.2 0.7 0.3
v 0.1 0.5 0.3
v 0.1 0.7 0.3
v -0.5 0.5 -0.3
v -0.5 0.8 -0.3
v -0.4 0.5 -0.3
v -0.4 0.7 -0.3
v -0.3 0.5 -0.3
v -0.3 0.7 -0.3
v -0.2 0.5 -0.3
v -0.2 0.7 -0.3
v 0.1 0.5 -0.3
v 0.1 0.7 -0.3
v 0.3 0.5 -0.3
v 0.3 0.8 -0.3
v -0.8 0.1 -0.4
v -0.8 0.2 -0.4
v -0.8 0.3 -0.4
v -0.8 0.5 -0.4
v -0.7 0 -0.4
v -0.7 0.1 -0.4
v -0.7 0.2 -0.4
v -0.7 0.3 -0.4
v -0.6 0.1 -0.4
v -0.6 0.2 -0.4
v -0.5 0.1 -0.4
v -0.5 0.2 -0.4
v -0.4 0 -0.4
v -0.4 0.1 -0.4
v -0.4 0.2 -0.4
v -0.4 0.3 -0.4
v -0.1 0.4 -0.4
v -0.1 0.5 -0.4
v 0.1 0.4 -0.4
v 0.1 0.5 -0.4
v 0.4 0 -0.4
v 0.4 0.1 -0.4
v 0.4 0.2 -0.4
v 0.4 0.3 -0.4
v 0.5 0.1 -0.4
v 0.5 0.2 -0.4
v 0.6 0.1 -0.4
v 0.6 0.2 -0.4
v 0.7 0 -0.4
v 0.7 0.1 -0.4
v 0.7 0.2 -0.4
v 0.7 0.3 -0.4
v 0.9 0.1 -0.4
v 0.9 0.2 -0.4
v 0.9 0.3 -0.4
v 0.9 0.5 -0.4
v -0.1 0.4 -0.5
v -0.1 0.5 -0.5
v 0.1 0.4 -0.5
v 0.1 0.5 -0.5
v -0.7 0 0.5
v -0.4 0 0.5
v 0.4 0 0.5
v 0.7 0 0.5
v -0.7 0 0.4
v -0.4 0 0.4
v 0.4 0 0.4
v 0.7 0 0.4
v -0.7 0 -0.3
v -0.4 0 -0.3
v 0.4 0 -0.3
v 0.7 0 -0.3
v -0.7 0 -0.4
v -0.4 0 -0.4
v 0.4 0 -0.4
v 0.7 0 -0.4
v -0.8 0.1 0.5
v -0.7 0.1 0.5
v -0.4 0.1 0.5
v 0.4 0.1 0.5
v 0.7 0.1 0.5
v 0.9 0.1 0.5
v -0.7 0.1 0.4
v -0.4 0.1 0.4
v 0.4 0.1 0.4
v 0.7 0.1 0.4
v -0.7 0.1 -0.3
v -0.4 0.1 -0.3
v 0.4 0.1 -0.3
v 0.7 0.1 -0.3
v -0.8 0.1 -0.4
v -0.7 0.1 -0.4
v -0.4 0.1 -0.4
v 0.4 0.1 -0.4
v 0.7 0.1 -0.4
v 0.9 0.1 -0.4
v -0.1 0.4 0.6
v 0.1 0.4 0.6
v -0.1 0.4 0.5
v 0.1 0.4 0.5
v -0.1 0.4 -0.4
v 0.1 0.4 -0.4
v -0.1 0.4 -0.5
v 0.1 0.4 -0.5
v -0.4 0.7 0.3
v -0.3 0.7 0.3
v -0.2 0.7 0.3
v 0.1 0.7 0.3
v -0.4 0.7 -0.1
v -0.3 0.7 -0.1
v -0.2 0.7 -0.1
v 0.1 0.7 -0.1
v -0.1 0.5 0.6
v 0.1 0.5 0.6
v -0.8 0.5 0.5
v -0.1 0.5 0.5
v 0.1 0.5 0.5
v 0.9 0.5 0.5
v -0.5 0.5 0.4
v -0.4 0.5 0.4
v -0.3 0.5 0.4
v -0.2 0.5 0.4
v 0.1 0.5 0.4
v 0.3 0.5 0.4
v -0.5 0.5 0.3
v -0.4 0.5 0.3
v -0.3 0.5 0.3
v -0.2 0.5 0.3
v 0.1 0.5 0.3
v 0.3 0.5 0.3
v -0.8 0.5 0.2
v -0.5 0.5 0.2
v -0.4 0.5 0.2
v 0.1 0.5 0.2
v 0.3 0.5 0.2
v 0.9 0.5 0.2
v -0.8 0.5 -0.1
v -0.5 0.5 -0.1
v -0.4 0.5 -0.1
v -0.3 0.5 -0.1
v -0.2 0.5 -0.1
v 0.1 0.5 -0.1
v 0.3 0.5 -0.1
v 0.9 0.5 -0.1
v 0.3 0.5 -0.2
v -0.5 0.5 -0.3
v -0.4 0.5 -0.3
v -0.3 0.5 -0.3
v -0.2 0.5 -0.3
v 0.1 0.5 -0.3
v 0.3 0.5 -0.3
v -0.8 0.5 -0.4
v -0.1 0.5 -0.4
v 0.1 0.5 -0.4
v 0.9 0.5 -0.4
v -0.1 0.5 -0.5
v 0.1 0.5 -0.5
v -0.5 0.8 0.4
v 0.3 0.8 0.4
v -0.5 0.8 -0.3
v 0.3 0.8 -0.3

# faces
f 3/1/1 2/1/1 1/1/1
f 4/1/1 2/1/1 3/1/1
f 5/2/1 4/2/1 3/2/1
f 6/2/1 4/2/1 5/2/1
f 7/2/1 4/2/1 6/2/1
f 8/2/1 4/2/1 7/2/1
f 9/3/1 6/3/1 5/3/1
f 10/2/1 7/2/1 6/2/1
f 10/3/1 6/3/1 9/3/1
f 11/3/1 8/3/1 7/3/1
f 11/2/1 7/2/1 10/2/1
f 12/3/1 8/3/1 11/3/1
f 17/5/1 14/5/1 13/5/1
f 18/5/1 14/5/1 17/5/1
f 19/5/1 16/5/1 15/5/1
f 20/5/1 16/5/1 19/5/1
f 26/4/1 22/4/1 21/4/1
f 26/5/1 23/5/1 22/5/1
f 26/5/1 24/5/1 23/5/1
f 27/4/1 25/4/1 24/4/1
f 27/5/1 24/5/1 26/5/1
f 28/4/1 26/4/1 21/4/1
f 28/4/1 27/4/1 26/4/1
f 29/4/1 25/4/1 27/4/1
f 29/4/1 27/4/1 28/4/1
f 34/2/1 31/2/1 30/2/1
f 35/2/1 31/2/1 34/2/1
f 36/2/1 33/2/1 32/2/1
f 37/2/1 33/2/1 36/2/1
f 41/5/1 39/5/1 38/5/1
f 41/5/1 40/5/1 39/5/1
f 42/5/1 40/5/1 41/5/1
f 47/5/1 44/5/1 43/5/1
f 48/5/1 44/5/1 47/5/1
f 49/5/1 46/5/1 45/5/1
f 50/5/1 46/5/1 49/5/1
f 51/5/2 52/5/2 55/5/2
f 55/5/2 52/5/2 56/5/2
f 53/5/2 54/5/2 57/5/2
f 57/5/2 54/5/2 58/5/2
f 59/5/2 60/5/2 62/5/2
f 60/5/2 61/5/2 62/5/2
f 62/5/2 61/5/2 63/5/2
f 64/2/2 65/2/2 68/2/2
f 68/2/2 65/2/2 69/2/2
f 66/2/2 67/2/2 70/2/2
f 70/2/2 67/2/2 71/2/2
f 72/4/2 73/4/2 78/4/2
f 73/5/2 74/5/2 78/5/2
f 75/5/2 76/5/2 78/5/2
f 74/5/2 75/5/2 78/5/2
f 76/4/2 77/4/2 79/4/2
f 78/5/2 76/5/2 79/5/2
f 72/4/2 78/4/2 80/4/2
f 78/4/2 79/4/2 80/4/2
f 79/4/2 77/4/2 81/4/2
f 80/4/2 79/4/2 81/4/2
f 82/5/2 83/5/2 86/5/2
f 86/5/2 83/5/2 87/5/2
f 84/5/2 85/5/2 88/5/2
f 88/5/2 85/5/2 89/5/2
f 90/1/2 91/1/2 92/1/2
f 92/1/2 91/1/2 93/1/2
f 92/2/2 93/2/2 94/2/2
f 94/2/2 93/2/2 95/2/2
f 95/2/2 93/2/2 96/2/2
f 96/2/2 93/2/2 97/2/2
f 97/2/2 93/2/2 98/2/2
f 98/2/2 93/2/2 99/2/2
f 99/2/2 93/2/2 100/2/2
f 100/2/2 93/2/2 101/2/2
f 94/3/2 95/3/2 102/3/2
f 95/4/2 96/4/2 102/4/2
f 96/3/2 97/3/2 103/3/2
f 102/4/2 96/4/2 103/4/2
f 98/3/2 99/3/2 104/3/2
f 99/4/2 100/4/2 104/4/2
f 100/3/2 101/3/2 105/3/2
f 104/4/2 100/4/2 105/4/2
f 94/3/2 102/3/2 106/3/2
f 102/3/2 103/3/2 106/3/2
f 97/2/2 98/2/2 107/2/2
f 106/3/2 103/3/2 107/3/2
f 103/3/2 97/3/2 107/3/2
f 98/3/2 104/3/2 108/3/2
f 107/2/2 98/2/2 108/2/2
f 104/3/2 105/3/2 108/3/2
f 105/3/2 101/3/2 109/3/2
f 108/3/2 105/3/2 109/3/2
f 112/2/3 111/2/3 110/2/3
f 113/2/3 111/2/3 112/2/3
f 119/1/3 115/1/3 114/1/3
f 120/2/3 116/2/3 115/2/3
f 120/1/3 115/1/3 119/1/3
f 121/3/3 117/3/3 116/3/3
f 121/2/3 116/2/3 120/2/3
f 122/5/3 120/5/3 119/5/3
f 122/5/3 119/5/3 118/5/3
f 122/5/3 121/5/3 120/5/3
f 123/5/3 121/5/3 122/5/3
f 124/5/3 122/5/3 118/5/3
f 124/4/3 123/4/3 122/4/3
f 125/5/3 121/5/3 123/5/3
f 125/4/3 123/4/3 124/4/3
f 126/5/3 124/5/3 118/5/3
f 126/5/3 125/5/3 124/5/3
f 127/5/3 125/5/3 126/5/3
f 128/5/3 121/5/3 125/5/3
f 128/5/3 125/5/3 127/5/3
f 129/3/3 117/3/3 121/3/3
f 129/5/3 121/5/3 128/5/3
f 130/3/3 117/3/3 129/3/3
f 131/3/3 117/3/3 130/3/3
f 132/3/3 130/3/3 129/3/3
f 135/1/3 128/1/3 127/1/3
f 136/2/3 129/2/3 128/2/3
f 136/1/3 128/1/3 135/1/3
f 137/3/3 133/3/3 132/3/3
f 137/2/3 129/2/3 136/2/3
f 137/3/3 132/3/3 129/3/3
f 138/5/3 136/5/3 135/5/3
f 138/5/3 135/5/3 134/5/3
f 138/5/3 137/5/3 136/5/3
f 139/5/3 137/5/3 138/5/3
f 140/5/3 138/5/3 134/5/3
f 140/4/3 139/4/3 138/4/3
f 141/5/3 137/5/3 139/5/3
f 141/4/3 139/4/3 140/4/3
f 142/5/3 140/5/3 134/5/3
f 142/5/3 141/5/3 140/5/3
f 143/5/3 141/5/3 142/5/3
f 144/5/3 137/5/3 141/5/3
f 144/5/3 141/5/3 143/5/3
f 145/3/3 133/3/3 137/3/3
f 145/5/3 137/5/3 144/5/3
f 146/1/3 144/1/3 143/1/3
f 147/2/3 145/2/3 144/2/3
f 147/1/3 144/1/3 146/1/3
f 148/3/3 133/3/3 145/3/3
f 148/2/3 145/2/3 147/2/3
f 149/3/3 133/3/3 148/3/3
f 152/4/3 151/4/3 150/4/3
f 153/4/3 151/4/3 152/4/3
f 154/5/3 153/5/3 152/5/3
f 155/4/3 151/4/3 153/4/3
f 155/5/3 153/5/3 154/5/3
f 156/4/3 155/4/3 154/4/3
f 157/4/3 151/4/3 155/4/3
f 157/4/3 155/4/3 156/4/3
f 158/5/3 157/5/3 156/5/3
f 159/4/3 151/4/3 157/4/3
f 159/5/3 157/5/3 158/5/3
f 160/4/3 159/4/3 158/4/3
f 161/4/3 151/4/3 159/4/3
f 161/4/3 159/4/3 160/4/3
f 164/5/3 163/5/3 162/5/3
f 165/5/3 163/5/3 164/5/3
f 166/4/3 165/4/3 164/4/3
f 167/4/3 165/4/3 166/4/3
f 168/5/3 167/5/3 166/5/3
f 169/5/3 167/5/3 168/5/3
f 172/5/3 171/5/3 170/5/3
f 173/5/3 171/5/3 172/5/3
f 176/5/3 175/5/3 174/5/3
f 177/5/3 175/5/3 176/5/3
f 178/5/4 179/5/4 180/5/4
f 180/5/4 179/5/4 181/5/4
f 182/5/4 183/5/4 184/5/4
f 184/5/4 183/5/4 185/5/4
f 186/5/4 187/5/4 188/5/4
f 188/5/4 187/5/4 189/5/4
f 188/4/4 189/4/4 190/4/4
f 190/4/4 189/4/4 191/4/4
f 190/5/4 191/5/4 192/5/4
f 192/5/4 191/5/4 193/5/4
f 194/4/4 195/4/4 196/4/4
f 196/4/4 195/4/4 197/4/4
f 196/5/4 197/5/4 198/5/4
f 197/4/4 195/4/4 199/4/4
f 198/5/4 197/5/4 199/5/4
f 198/4/4 199/4/4 200/4/4
f 199/4/4 195/4/4 201/4/4
f 200/4/4 199/4/4 201/4/4
f 200/5/4 201/5/4 202/5/4
f 201/4/4 195/4/4 203/4/4
f 202/5/4 201/5/4 203/5/4
f 202/4/4 203/4/4 204/4/4
f 203/4/4 195/4/4 205/4/4
f 204/4/4 203/4/4 205/4/4
f 206/1/4 207/1/4 211/1/4
f 207/2/4 208/2/4 212/2/4
f 211/1/4 207/1/4 212/1/4
f 208/3/4 209/3/4 213/3/4
f 212/2/4 208/2/4 213/2/4
f 211/5/4 212/5/4 214/5/4
f 210/5/4 211/5/4 214/5/4
f 212/5/4 213/5/4 214/5/4
f 214/5/4 213/5/4 215/5/4
f 210/5/4 214/5/4 216/5/4
f 214/4/4 215/4/4 216/4/4
f 215/5/4 213/5/4 217/5/4
f 216/4/4 215/4/4 217/4/4
f 210/5/4 216/5/4 218/5/4
f 216/5/4 217/5/4 218/5/4
f 218/5/4 217/5/4 219/5/4
f 217/5/4 213/5/4 220/5/4
f 219/5/4 217/5/4 220/5/4
f 213/3/4 209/3/4 221/3/4
f 220/5/4 213/5/4 221/5/4
f 221/3/4 209/3/4 222/3/4
f 222/3/4 209/3/4 223/3/4
f 221/3/4 222/3/4 224/3/4
f 219/1/4 220/1/4 227/1/4
f 220/2/4 221/2/4 228/2/4
f 227/1/4 220/1/4 228/1/4
f 224/3/4 225/3/4 229/3/4
f 228/2/4 221/2/4 229/2/4
f 221/3/4 224/3/4 229/3/4
f 227/5/4 228/5/4 230/5/4
f 226/5/4 227/5/4 230/5/4
f 228/5/4 229/5/4 230/5/4
f 230/5/4 229/5/4 231/5/4
f 226/5/4 230/5/4 232/5/4
f 230/4/4 231/4/4 232/4/4
f 231/5/4 229/5/4 233/5/4
f 232/4/4 231/4/4 233/4/4
f 226/5/4 232/5/4 234/5/4
f 232/5/4 233/5/4 234/5/4
f 234/5/4 233/5/4 235/5/4
f 233/5/4 229/5/4 236/5/4
f 235/5/4 233/5/4 236/5/4
f 229/3/4 225/3/4 237/3/4
f 236/5/4 229/5/4 237/5/4
f 235/1/4 236/1/4 238/1/4
f 236/2/4 237/2/4 239/2/4
f 238/1/4 236/1/4 239/1/4
f 237/3/4 225/3/4 240/3/4
f 239/2/4 237/2/4 240/2/4
f 240/3/4 225/3/4 241/3/4
f 242/2/4 243/2/4 244/2/4
f 244/2/4 243/2/4 245/2/4
f 250/5/5 247/5/5 246/5/5
f 251/5/5 247/5/5 250/5/5
f 252/5/5 249/5/5 248/5/5
f 253/5/5 249/5/5 252/5/5
f 258/5/5 255/5/5 254/5/5
f 259/5/5 255/5/5 258/5/5
f 260/5/5 257/5/5 256/5/5
f 261/5/5 257/5/5 260/5/5
f 268/1/5 263/1/5 262/1/5
f 269/1/5 265/1/5 264/1/5
f 270/1/5 265/1/5 269/1/5
f 271/1/5 267/1/5 266/1/5
f 272/1/5 270/1/5 269/1/5
f 272/1/5 271/1/5 270/1/5
f 272/1/5 268/1/5 262/1/5
f 272/1/5 269/1/5 268/1/5
f 273/1/5 271/1/5 272/1/5
f 274/1/5 271/1/5 273/1/5
f 275/1/5 267/1/5 271/1/5
f 275/1/5 271/1/5 274/1/5
f 276/1/5 272/1/5 262/1/5
f 277/1/5 272/1/5 276/1/5
f 278/1/5 274/1/5 273/1/5
f 279/1/5 274/1/5 278/1/5
f 280/1/5 267/1/5 275/1/5
f 281/1/5 267/1/5 280/1/5
f 284/2/5 283/2/5 282/2/5
f 285/2/5 283/2/5 284/2/5
f 288/2/5 287/2/5 286/2/5
f 289/2/5 287/2/5 288/2/5
f 294/4/5 291/4/5 290/4/5
f 294/4/5 293/4/5 292/4/5
f 294/4/5 292/4/5 291/4/5
f 295/4/5 293/4/5 294/4/5
f 296/4/5 293/4/5 295/4/5
f 297/4/5 293/4/5 296/4/5
f 298/2/6 299/2/6 301/2/6
f 301/2/6 299/2/6 302/2/6
f 300/3/6 301/3/6 304/3/6
f 302/3/6 303/3/6 304/3/6
f 301/3/6 302/3/6 304/3/6
f 304/3/6 303/3/6 305/3/6
f 305/3/6 303/3/6 306/3/6
f 306/3/6 303/3/6 307/3/6
f 307/3/6 303/3/6 308/3/6
f 308/3/6 303/3/6 309/3/6
f 300/3/6 304/3/6 310/3/6
f 309/3/6 303/3/6 315/3/6
f 300/3/6 310/3/6 316/3/6
f 316/3/6 310/3/6 317/3/6
f 313/3/6 314/3/6 318/3/6
f 311/3/6 312/3/6 318/3/6
f 312/3/6 313/3/6 318/3/6
f 318/3/6 314/3/6 319/3/6
f 315/3/6 303/3/6 320/3/6
f 320/3/6 303/3/6 321/3/6
f 316/2/6 317/2/6 322/2/6
f 322/2/6 317/2/6 323/2/6
f 318/2/6 319/2/6 324/2/6
f 324/2/6 319/2/6 325/2/6
f 325/2/6 319/2/6 326/2/6
f 326/2/6 319/2/6 327/2/6
f 320/2/6 321/2/6 328/2/6
f 328/2/6 321/2/6 329/2/6
f 328/3/6 329/3/6 330/3/6
f 322/3/6 323/3/6 331/3/6
f 330/3/6 329/3/6 336/3/6
f 334/3/6 335/3/6 337/3/6
f 335/3/6 336/3/6 337/3/6
f 322/3/6 331/3/6 337/3/6
f 331/3/6 332/3/6 337/3/6
f 333/3/6 334/3/6 337/3/6
f 332/3/6 333/3/6 337/3/6
f 337/3/6 336/3/6 338/3/6
f 338/3/6 336/3/6 339/3/6
f 336/3/6 329/3/6 340/3/6
f 339/3/6 336/3/6 340/3/6
f 338/2/6 339/2/6 341/2/6
f 341/2/6 339/2/6 342/2/6
f 343/4/6 344/4/6 345/4/6
f 345/4/6 344/4/6 346/4/6
