# MagicaVoxel @ Ephtracy

# group
o 

# material
mtllib truck_green.mtl
usemtl palette

# normals
vn -1 0 0
vn 1 0 0
vn 0 0 1
vn 0 0 -1
vn 0 -1 0
vn 0 1 0

# texcoords
vt 0.939453 0.5
vt 0.943359 0.5
vt 0.951172 0.5
vt 0.970703 0.5
vt 0.974609 0.5
vt 0.978516 0.5
vt 0.982422 0.5

# verts
v -1.3 0.2 0.4
v -1.3 0.2 -0.4
v -1.3 0.3 0.4
v -1.3 0.3 0.3
v -1.3 0.3 0.2
v -1.3 0.3 -0.2
v -1.3 0.3 -0.3
v -1.3 0.3 -0.4
v -1.3 0.9 0.4
v -1.3 0.9 0.3
v -1.3 0.9 0.2
v -1.3 0.9 -0.2
v -1.3 0.9 -0.3
v -1.3 0.9 -0.4
v -1.3 1 0.4
v -1.3 1 -0.4
v -1.2 0.1 0.3
v -1.2 0.1 -0.3
v -1.2 0.2 0.3
v -1.2 0.2 -0.3
v -1.1 0 0.3
v -1.1 0 0.2
v -1.1 0 -0.2
v -1.1 0 -0.3
v -1.1 0.1 0.3
v -1.1 0.1 0.2
v -1.1 0.1 -0.2
v -1.1 0.1 -0.3
v 0.1 0 0.3
v 0.1 0 0.2
v 0.1 0 -0.2
v 0.1 0 -0.3
v 0.1 0.1 0.3
v 0.1 0.1 0.2
v 0.1 0.1 -0.2
v 0.1 0.1 -0.3
v 0.8 0.1 0.3
v 0.8 0.1 0.2
v 0.8 0.1 -0.2
v 0.8 0.1 -0.3
v 0.8 0.2 0.3
v 0.8 0.2 0.2
v 0.8 0.2 -0.2
v 0.8 0.2 -0.3
v 0.8 0.8 0.3
v 0.8 0.8 0.2
v 0.8 0.8 -0.2
v 0.8 0.8 -0.3
v 0.8 0.9 0.2
v 0.8 0.9 -0.2
v 0.9 0 0.3
v 0.9 0 0.2
v 0.9 0 -0.2
v 0.9 0 -0.3
v 0.9 0.1 0.3
v 0.9 0.1 0.2
v 0.9 0.1 -0.2
v 0.9 0.1 -0.3
v -0.8 0 0.3
v -0.8 0 0.2
v -0.8 0 -0.2
v -0.8 0 -0.3
v -0.8 0.1 0.3
v -0.8 0.1 0.2
v -0.8 0.1 -0.2
v -0.8 0.1 -0.3
v 0.4 0 0.3
v 0.4 0 0.2
v 0.4 0 -0.2
v 0.4 0 -0.3
v 0.4 0.1 0.3
v 0.4 0.1 0.2
v 0.4 0.1 -0.2
v 0.4 0.1 -0.3
v 0.7 0.1 0.3
v 0.7 0.1 0.2
v 0.7 0.1 -0.2
v 0.7 0.1 -0.3
v 0.7 0.2 0.4
v 0.7 0.2 0.3
v 0.7 0.2 0.2
v 0.7 0.2 -0.2
v 0.7 0.2 -0.3
v 0.7 0.2 -0.4
v 0.7 0.3 0.4
v 0.7 0.3 -0.4
v 0.7 0.9 0.4
v 0.7 0.9 -0.4
v 0.7 1 0.4
v 0.7 1 -0.4
v 1.1 0.8 0.2
v 1.1 0.8 -0.2
v 1.1 0.9 0.2
v 1.1 0.9 -0.2
v 1.2 0 0.3
v 1.2 0 0.2
v 1.2 0 -0.2
v 1.2 0 -0.3
v 1.2 0.1 0.3
v 1.2 0.1 0.2
v 1.2 0.1 -0.2
v 1.2 0.1 -0.3
v 1.4 0.1 0.3
v 1.4 0.1 -0.3
v 1.4 0.2 0.3
v 1.4 0.2 -0.3
v 1.4 0.5 0.3
v 1.4 0.5 -0.3
v 1.4 0.7 0.3
v 1.4 0.7 -0.3
v 1.4 0.8 0.3
v 1.4 0.8 -0.3
v -1.3 0.2 0.4
v -1.3 0.3 0.4
v -1.3 0.9 0.4
v -1.3 1 0.4
v -1.1 0.4 0.4
v -1.1 0.5 0.4
v -1 0.3 0.4
v -1 0.4 0.4
v -1 0.5 0.4
v -0.9 0.3 0.4
v -0.9 0.4 0.4
v -0.8 0.6 0.4
v -0.8 0.7 0.4
v -0.7 0.5 0.4
v -0.7 0.6 0.4
v -0.7 0.7 0.4
v -0.6 0.4 0.4
v -0.6 0.5 0.4
v -0.6 0.6 0.4
v -0.5 0.3 0.4
v -0.5 0.4 0.4
v -0.5 0.5 0.4
v -0.4 0.3 0.4
v -0.4 0.4 0.4
v -0.4 0.7 0.4
v -0.4 0.8 0.4
v -0.3 0.6 0.4
v -0.3 0.7 0.4
v -0.3 0.8 0.4
v -0.2 0.5 0.4
v -0.2 0.6 0.4
v -0.2 0.7 0.4
v -0.0999999 0.4 0.4
v -0.0999999 0.5 0.4
v -0.0999999 0.6 0.4
v 0 0.3 0.4
v 0 0.4 0.4
v 0 0.5 0.4
v 0 0.8 0.4
v 0 0.9 0.4
v 0.1 0.3 0.4
v 0.1 0.4 0.4
v 0.1 0.7 0.4
v 0.1 0.8 0.4
v 0.1 0.9 0.4
v 0.2 0.6 0.4
v 0.2 0.7 0.4
v 0.2 0.8 0.4
v 0.3 0.5 0.4
v 0.3 0.6 0.4
v 0.3 0.7 0.4
v 0.4 0.4 0.4
v 0.4 0.5 0.4
v 0.4 0.6 0.4
v 0.5 0.3 0.4
v 0.5 0.4 0.4
v 0.5 0.5 0.4
v 0.6 0.3 0.4
v 0.6 0.4 0.4
v 0.7 0.2 0.4
v 0.7 0.3 0.4
v 0.7 0.9 0.4
v 0.7 1 0.4
v -1.2 0.1 0.3
v -1.2 0.2 0.3
v -1.1 0 0.3
v -1.1 0.1 0.3
v -1.1 0.2 0.3
v -1 0.1 0.3
v -1 0.2 0.3
v -0.9 0.1 0.3
v -0.9 0.2 0.3
v -0.8 0 0.3
v -0.8 0.1 0.3
v -0.8 0.2 0.3
v 0.1 0 0.3
v 0.1 0.1 0.3
v 0.1 0.2 0.3
v 0.2 0.1 0.3
v 0.2 0.2 0.3
v 0.3 0.1 0.3
v 0.3 0.2 0.3
v 0.4 0 0.3
v 0.4 0.1 0.3
v 0.4 0.2 0.3
v 0.7 0.1 0.3
v 0.7 0.2 0.3
v 0.8 0.1 0.3
v 0.8 0.2 0.3
v 0.8 0.8 0.3
v 0.9 0 0.3
v 0.9 0.1 0.3
v 0.9 0.2 0.3
v 0.9 0.3 0.3
v 1 0.1 0.3
v 1 0.2 0.3
v 1 0.5 0.3
v 1 0.7 0.3
v 1.1 0.1 0.3
v 1.1 0.2 0.3
v 1.2 0 0.3
v 1.2 0.1 0.3
v 1.2 0.2 0.3
v 1.2 0.3 0.3
v 1.4 0.1 0.3
v 1.4 0.2 0.3
v 1.4 0.5 0.3
v 1.4 0.7 0.3
v 1.4 0.8 0.3
v 0.7 0.1 0.2
v 0.7 0.2 0.2
v 0.8 0.1 0.2
v 0.8 0.2 0.2
v 0.8 0.8 0.2
v 0.8 0.9 0.2
v 1.1 0.8 0.2
v 1.1 0.9 0.2
v -1.1 0 -0.2
v -1.1 0.1 -0.2
v -0.8 0 -0.2
v -0.8 0.1 -0.2
v 0.1 0 -0.2
v 0.1 0.1 -0.2
v 0.4 0 -0.2
v 0.4 0.1 -0.2
v 0.9 0 -0.2
v 0.9 0.1 -0.2
v 1.2 0 -0.2
v 1.2 0.1 -0.2
v -1.1 0 0.2
v -1.1 0.1 0.2
v -0.8 0 0.2
v -0.8 0.1 0.2
v 0.1 0 0.2
v 0.1 0.1 0.2
v 0.4 0 0.2
v 0.4 0.1 0.2
v 0.9 0 0.2
v 0.9 0.1 0.2
v 1.2 0 0.2
v 1.2 0.1 0.2
v 0.7 0.1 -0.2
v 0.7 0.2 -0.2
v 0.8 0.1 -0.2
v 0.8 0.2 -0.2
v 0.8 0.8 -0.2
v 0.8 0.9 -0.2
v 1.1 0.8 -0.2
v 1.1 0.9 -0.2
v -1.2 0.1 -0.3
v -1.2 0.2 -0.3
v -1.1 0 -0.3
v -1.1 0.1 -0.3
v -1.1 0.2 -0.3
v -1 0.1 -0.3
v -1 0.2 -0.3
v -0.9 0.1 -0.3
v -0.9 0.2 -0.3
v -0.8 0 -0.3
v -0.8 0.1 -0.3
v -0.8 0.2 -0.3
v 0.1 0 -0.3
v 0.1 0.1 -0.3
v 0.1 0.2 -0.3
v 0.2 0.1 -0.3
v 0.2 0.2 -0.3
v 0.3 0.1 -0.3
v 0.3 0.2 -0.3
v 0.4 0 -0.3
v 0.4 0.1 -0.3
v 0.4 0.2 -0.3
v 0.7 0.1 -0.3
v 0.7 0.2 -0.3
v 0.8 0.1 -0.3
v 0.8 0.2 -0.3
v 0.8 0.8 -0.3
v 0.9 0 -0.3
v 0.9 0.1 -0.3
v 0.9 0.2 -0.3
v 0.9 0.3 -0.3
v 1 0.1 -0.3
v 1 0.2 -0.3
v 1 0.5 -0.3
v 1 0.7 -0.3
v 1.1 0.1 -0.3
v 1.1 0.2 -0.3
v 1.2 0 -0.3
v 1.2 0.1 -0.3
v 1.2 0.2 -0.3
v 1.2 0.3 -0.3
v 1.4 0.1 -0.3
v 1.4 0.2 -0.3
v 1.4 0.5 -0.3
v 1.4 0.7 -0.3
v 1.4 0.8 -0.3
v -1.3 0.2 -0.4
v -1.3 0.3 -0.4
v -1.3 0.9 -0.4
v -1.3 1 -0.4
v -1.1 0.4 -0.4
v -1.1 0.5 -0.4
v -1 0.3 -0.4
v -1 0.4 -0.4
v -1 0.5 -0.4
v -0.9 0.3 -0.4
v -0.9 0.4 -0.4
v -0.8 0.6 -0.4
v -0.8 0.7 -0.4
v -0.7 0.5 -0.4
v -0.7 0.6 -0.4
v -0.7 0.7 -0.4
v -0.6 0.4 -0.4
v -0.6 0.5 -0.4
v -0.6 0.6 -0.4
v -0.5 0.3 -0.4
v -0.5 0.4 -0.4
v -0.5 0.5 -0.4
v -0.4 0.3 -0.4
v -0.4 0.4 -0.4
v -0.4 0.7 -0.4
v -0.4 0.8 -0.4
v -0.3 0.6 -0.4
v -0.3 0.7 -0.4
v -0.3 0.8 -0.4
v -0.2 0.5 -0.4
v -0.2 0.6 -0.4
v -0.2 0.7 -0.4
v -0.0999999 0.4 -0.4
v -0.0999999 0.5 -0.4
v -0.0999999 0.6 -0.4
v 0 0.3 -0.4
v 0 0.4 -0.4
v 0 0.5 -0.4
v 0 0.8 -0.4
v 0 0.9 -0.4
v 0.1 0.3 -0.4
v 0.1 0.4 -0.4
v 0.1 0.7 -0.4
v 0.1 0.8 -0.4
v 0.1 0.9 -0.4
v 0.2 0.6 -0.4
v 0.2 0.7 -0.4
v 0.2 0.8 -0.4
v 0.3 0.5 -0.4
v 0.3 0.6 -0.4
v 0.3 0.7 -0.4
v 0.4 0.4 -0.4
v 0.4 0.5 -0.4
v 0.4 0.6 -0.4
v 0.5 0.3 -0.4
v 0.5 0.4 -0.4
v 0.5 0.5 -0.4
v 0.6 0.3 -0.4
v 0.6 0.4 -0.4
v 0.7 0.2 -0.4
v 0.7 0.3 -0.4
v 0.7 0.9 -0.4
v 0.7 1 -0.4
v -1.1 0 0.3
v -0.8 0 0.3
v 0.1 0 0.3
v 0.4 0 0.3
v 0.9 0 0.3
v 1.2 0 0.3
v -1.1 0 0.2
v -0.8 0 0.2
v 0.1 0 0.2
v 0.4 0 0.2
v 0.9 0 0.2
v 1.2 0 0.2
v -1.1 0 -0.2
v -0.8 0 -0.2
v 0.1 0 -0.2
v 0.4 0 -0.2
v 0.9 0 -0.2
v 1.2 0 -0.2
v -1.1 0 -0.3
v -0.8 0 -0.3
v 0.1 0 -0.3
v 0.4 0 -0.3
v 0.9 0 -0.3
v 1.2 0 -0.3
v -1.2 0.1 0.3
v -1.1 0.1 0.3
v -0.8 0.1 0.3
v 0.1 0.1 0.3
v 0.4 0.1 0.3
v 0.7 0.1 0.3
v 0.8 0.1 0.3
v 0.9 0.1 0.3
v 1.2 0.1 0.3
v 1.4 0.1 0.3
v -1.1 0.1 0.2
v -0.8 0.1 0.2
v 0.1 0.1 0.2
v 0.4 0.1 0.2
v 0.6 0.1 0.2
v 0.7 0.1 0.2
v 0.8 0.1 0.2
v 0.9 0.1 0.2
v 1.2 0.1 0.2
v -1.1 0.1 -0.2
v -0.8 0.1 -0.2
v 0.1 0.1 -0.2
v 0.4 0.1 -0.2
v 0.6 0.1 -0.2
v 0.7 0.1 -0.2
v 0.8 0.1 -0.2
v 0.9 0.1 -0.2
v 1.2 0.1 -0.2
v -1.2 0.1 -0.3
v -1.1 0.1 -0.3
v -0.8 0.1 -0.3
v 0.1 0.1 -0.3
v 0.4 0.1 -0.3
v 0.7 0.1 -0.3
v 0.8 0.1 -0.3
v 0.9 0.1 -0.3
v 1.2 0.1 -0.3
v 1.4 0.1 -0.3
v -1.3 0.2 0.4
v 0.7 0.2 0.4
v -1.2 0.2 0.3
v -1.1 0.2 0.3
v -1 0.2 0.3
v -0.9 0.2 0.3
v -0.8 0.2 0.3
v 0.1 0.2 0.3
v 0.2 0.2 0.3
v 0.3 0.2 0.3
v 0.4 0.2 0.3
v 0.7 0.2 0.3
v -1.2 0.2 -0.3
v -1.1 0.2 -0.3
v -1 0.2 -0.3
v -0.9 0.2 -0.3
v -0.8 0.2 -0.3
v 0.1 0.2 -0.3
v 0.2 0.2 -0.3
v 0.3 0.2 -0.3
v 0.4 0.2 -0.3
v 0.7 0.2 -0.3
v -1.3 0.2 -0.4
v 0.7 0.2 -0.4
v 0.7 0.2 0.2
v 0.8 0.2 0.2
v 0.7 0.2 -0.2
v 0.8 0.2 -0.2
v 0.8 0.8 0.3
v 1.4 0.8 0.3
v 0.8 0.8 0.2
v 1.1 0.8 0.2
v 0.8 0.8 -0.2
v 1.1 0.8 -0.2
v 0.8 0.8 -0.3
v 1.4 0.8 -0.3
v 0.8 0.9 0.2
v 1.1 0.9 0.2
v 0.8 0.9 -0.2
v 1.1 0.9 -0.2
v -1.3 1 0.4
v 0.7 1 0.4
v -1.3 1 -0.4
v 0.7 1 -0.4

# faces
f 3/1/1 2/1/1 1/1/1
f 4/1/1 2/1/1 3/1/1
f 5/1/1 2/1/1 4/1/1
f 6/1/1 2/1/1 5/1/1
f 7/1/1 2/1/1 6/1/1
f 8/1/1 2/1/1 7/1/1
f 9/2/1 4/2/1 3/2/1
f 10/1/1 5/1/1 4/1/1
f 10/2/1 4/2/1 9/2/1
f 11/2/1 6/2/1 5/2/1
f 11/1/1 5/1/1 10/1/1
f 12/1/1 7/1/1 6/1/1
f 12/2/1 6/2/1 11/2/1
f 13/2/1 8/2/1 7/2/1
f 13/1/1 7/1/1 12/1/1
f 14/2/1 8/2/1 13/2/1
f 15/1/1 10/1/1 9/1/1
f 15/1/1 11/1/1 10/1/1
f 15/1/1 14/1/1 13/1/1
f 15/1/1 13/1/1 12/1/1
f 15/1/1 12/1/1 11/1/1
f 16/1/1 14/1/1 15/1/1
f 19/6/1 18/6/1 17/6/1
f 20/6/1 18/6/1 19/6/1
f 25/4/1 22/4/1 21/4/1
f 26/4/1 22/4/1 25/4/1
f 27/4/1 24/4/1 23/4/1
f 28/4/1 24/4/1 27/4/1
f 33/4/1 30/4/1 29/4/1
f 34/4/1 30/4/1 33/4/1
f 35/4/1 32/4/1 31/4/1
f 36/4/1 32/4/1 35/4/1
f 41/6/1 38/6/1 37/6/1
f 42/6/1 38/6/1 41/6/1
f 43/6/1 40/6/1 39/6/1
f 44/6/1 40/6/1 43/6/1
f 45/7/1 42/7/1 41/7/1
f 45/7/1 43/7/1 42/7/1
f 45/7/1 44/7/1 43/7/1
f 46/7/1 44/7/1 45/7/1
f 47/7/1 44/7/1 46/7/1
f 48/7/1 44/7/1 47/7/1
f 49/1/1 47/1/1 46/1/1
f 50/1/1 47/1/1 49/1/1
f 55/4/1 52/4/1 51/4/1
f 56/4/1 52/4/1 55/4/1
f 57/4/1 54/4/1 53/4/1
f 58/4/1 54/4/1 57/4/1
f 59/4/2 60/4/2 63/4/2
f 63/4/2 60/4/2 64/4/2
f 61/4/2 62/4/2 65/4/2
f 65/4/2 62/4/2 66/4/2
f 67/4/2 68/4/2 71/4/2
f 71/4/2 68/4/2 72/4/2
f 69/4/2 70/4/2 73/4/2
f 73/4/2 70/4/2 74/4/2
f 75/6/2 76/6/2 80/6/2
f 80/6/2 76/6/2 81/6/2
f 77/6/2 78/6/2 82/6/2
f 82/6/2 78/6/2 83/6/2
f 80/1/2 81/1/2 85/1/2
f 83/1/2 84/1/2 85/1/2
f 82/1/2 83/1/2 85/1/2
f 81/1/2 82/1/2 85/1/2
f 79/1/2 80/1/2 85/1/2
f 85/1/2 84/1/2 86/1/2
f 85/2/2 86/2/2 87/2/2
f 87/2/2 86/2/2 88/2/2
f 87/1/2 88/1/2 89/1/2
f 89/1/2 88/1/2 90/1/2
f 91/1/2 92/1/2 93/1/2
f 93/1/2 92/1/2 94/1/2
f 95/4/2 96/4/2 99/4/2
f 99/4/2 96/4/2 100/4/2
f 97/4/2 98/4/2 101/4/2
f 101/4/2 98/4/2 102/4/2
f 103/6/2 104/6/2 105/6/2
f 105/6/2 104/6/2 106/6/2
f 105/7/2 106/7/2 107/7/2
f 107/7/2 106/7/2 108/7/2
f 107/4/2 108/4/2 109/4/2
f 109/4/2 108/4/2 110/4/2
f 109/7/2 110/7/2 111/7/2
f 111/7/2 110/7/2 112/7/2
f 117/2/3 115/2/3 114/2/3
f 118/2/3 115/2/3 117/2/3
f 119/1/3 114/1/3 113/1/3
f 119/2/3 117/2/3 114/2/3
f 120/3/3 118/3/3 117/3/3
f 120/2/3 117/2/3 119/2/3
f 121/2/3 115/2/3 118/2/3
f 121/3/3 118/3/3 120/3/3
f 122/3/3 120/3/3 119/3/3
f 122/1/3 119/1/3 113/1/3
f 123/2/3 121/2/3 120/2/3
f 123/3/3 120/3/3 122/3/3
f 124/2/3 115/2/3 121/2/3
f 124/2/3 121/2/3 123/2/3
f 124/2/3 123/2/3 122/2/3
f 125/2/3 115/2/3 124/2/3
f 126/2/3 124/2/3 122/2/3
f 127/3/3 125/3/3 124/3/3
f 127/2/3 124/2/3 126/2/3
f 128/2/3 115/2/3 125/2/3
f 128/3/3 125/3/3 127/3/3
f 129/2/3 126/2/3 122/2/3
f 130/3/3 127/3/3 126/3/3
f 130/2/3 126/2/3 129/2/3
f 131/2/3 128/2/3 127/2/3
f 131/3/3 127/3/3 130/3/3
f 132/1/3 122/1/3 113/1/3
f 132/2/3 129/2/3 122/2/3
f 133/3/3 130/3/3 129/3/3
f 133/2/3 129/2/3 132/2/3
f 134/2/3 131/2/3 130/2/3
f 134/3/3 130/3/3 133/3/3
f 135/3/3 133/3/3 132/3/3
f 135/1/3 132/1/3 113/1/3
f 136/2/3 134/2/3 133/2/3
f 136/3/3 133/3/3 135/3/3
f 137/2/3 128/2/3 131/2/3
f 137/2/3 134/2/3 136/2/3
f 137/2/3 131/2/3 134/2/3
f 137/2/3 115/2/3 128/2/3
f 138/2/3 115/2/3 137/2/3
f 139/2/3 136/2/3 135/2/3
f 139/2/3 137/2/3 136/2/3
f 140/3/3 138/3/3 137/3/3
f 140/2/3 137/2/3 139/2/3
f 141/2/3 115/2/3 138/2/3
f 141/3/3 138/3/3 140/3/3
f 142/2/3 139/2/3 135/2/3
f 143/3/3 140/3/3 139/3/3
f 143/2/3 139/2/3 142/2/3
f 144/2/3 141/2/3 140/2/3
f 144/3/3 140/3/3 143/3/3
f 145/2/3 142/2/3 135/2/3
f 146/3/3 143/3/3 142/3/3
f 146/2/3 142/2/3 145/2/3
f 147/2/3 144/2/3 143/2/3
f 147/3/3 143/3/3 146/3/3
f 148/1/3 135/1/3 113/1/3
f 148/2/3 145/2/3 135/2/3
f 149/3/3 146/3/3 145/3/3
f 149/2/3 145/2/3 148/2/3
f 150/2/3 147/2/3 146/2/3
f 150/3/3 146/3/3 149/3/3
f 151/2/3 141/2/3 144/2/3
f 151/2/3 147/2/3 150/2/3
f 151/2/3 144/2/3 147/2/3
f 151/2/3 115/2/3 141/2/3
f 152/1/3 116/1/3 115/1/3
f 152/2/3 115/2/3 151/2/3
f 153/1/3 148/1/3 113/1/3
f 153/3/3 149/3/3 148/3/3
f 154/2/3 150/2/3 149/2/3
f 154/3/3 149/3/3 153/3/3
f 154/2/3 151/2/3 150/2/3
f 155/2/3 151/2/3 154/2/3
f 156/3/3 152/3/3 151/3/3
f 156/2/3 151/2/3 155/2/3
f 157/1/3 116/1/3 152/1/3
f 157/3/3 152/3/3 156/3/3
f 158/2/3 155/2/3 154/2/3
f 158/2/3 154/2/3 153/2/3
f 159/3/3 156/3/3 155/3/3
f 159/2/3 155/2/3 158/2/3
f 160/2/3 157/2/3 156/2/3
f 160/3/3 156/3/3 159/3/3
f 161/2/3 158/2/3 153/2/3
f 162/3/3 159/3/3 158/3/3
f 162/2/3 158/2/3 161/2/3
f 163/2/3 160/2/3 159/2/3
f 163/3/3 159/3/3 162/3/3
f 164/2/3 161/2/3 153/2/3
f 165/3/3 162/3/3 161/3/3
f 165/2/3 161/2/3 164/2/3
f 166/2/3 163/2/3 162/2/3
f 166/3/3 162/3/3 165/3/3
f 167/1/3 153/1/3 113/1/3
f 167/2/3 164/2/3 153/2/3
f 168/3/3 165/3/3 164/3/3
f 168/2/3 164/2/3 167/2/3
f 169/2/3 166/2/3 165/2/3
f 169/3/3 165/3/3 168/3/3
f 170/3/3 168/3/3 167/3/3
f 170/1/3 167/1/3 113/1/3
f 171/2/3 169/2/3 168/2/3
f 171/3/3 168/3/3 170/3/3
f 172/1/3 170/1/3 113/1/3
f 173/2/3 171/2/3 170/2/3
f 173/1/3 170/1/3 172/1/3
f 174/2/3 163/2/3 166/2/3
f 174/2/3 171/2/3 173/2/3
f 174/1/3 116/1/3 157/1/3
f 174/2/3 157/2/3 160/2/3
f 174/2/3 169/2/3 171/2/3
f 174/2/3 166/2/3 169/2/3
f 174/2/3 160/2/3 163/2/3
f 175/1/3 116/1/3 174/1/3
f 179/6/3 177/6/3 176/6/3
f 180/6/3 177/6/3 179/6/3
f 181/4/3 179/4/3 178/4/3
f 181/4/3 180/4/3 179/4/3
f 182/4/3 180/4/3 181/4/3
f 183/4/3 181/4/3 178/4/3
f 183/5/3 182/5/3 181/5/3
f 184/5/3 182/5/3 183/5/3
f 185/4/3 183/4/3 178/4/3
f 185/4/3 184/4/3 183/4/3
f 186/4/3 184/4/3 185/4/3
f 187/4/3 184/4/3 186/4/3
f 189/6/3 187/6/3 186/6/3
f 190/6/3 187/6/3 189/6/3
f 191/4/3 189/4/3 188/4/3
f 191/4/3 190/4/3 189/4/3
f 192/4/3 190/4/3 191/4/3
f 193/4/3 191/4/3 188/4/3
f 193/5/3 192/5/3 191/5/3
f 194/5/3 192/5/3 193/5/3
f 195/4/3 193/4/3 188/4/3
f 195/4/3 194/4/3 193/4/3
f 196/4/3 194/4/3 195/4/3
f 197/4/3 194/4/3 196/4/3
f 198/6/3 197/6/3 196/6/3
f 199/6/3 197/6/3 198/6/3
f 204/6/3 201/6/3 200/6/3
f 205/7/3 202/7/3 201/7/3
f 205/6/3 201/6/3 204/6/3
f 206/7/3 202/7/3 205/7/3
f 207/4/3 204/4/3 203/4/3
f 207/4/3 205/4/3 204/4/3
f 207/4/3 206/4/3 205/4/3
f 208/4/3 206/4/3 207/4/3
f 209/7/3 202/7/3 206/7/3
f 210/7/3 202/7/3 209/7/3
f 211/4/3 207/4/3 203/4/3
f 211/5/3 208/5/3 207/5/3
f 212/4/3 206/4/3 208/4/3
f 212/5/3 208/5/3 211/5/3
f 213/4/3 211/4/3 203/4/3
f 213/4/3 212/4/3 211/4/3
f 214/4/3 212/4/3 213/4/3
f 215/4/3 206/4/3 212/4/3
f 215/4/3 212/4/3 214/4/3
f 216/7/3 209/7/3 206/7/3
f 216/4/3 206/4/3 215/4/3
f 217/6/3 215/6/3 214/6/3
f 218/7/3 216/7/3 215/7/3
f 218/6/3 215/6/3 217/6/3
f 219/7/3 209/7/3 216/7/3
f 219/7/3 216/7/3 218/7/3
f 219/4/3 210/4/3 209/4/3
f 220/7/3 202/7/3 210/7/3
f 220/4/3 210/4/3 219/4/3
f 221/7/3 202/7/3 220/7/3
f 224/6/3 223/6/3 222/6/3
f 225/6/3 223/6/3 224/6/3
f 228/1/3 227/1/3 226/1/3
f 229/1/3 227/1/3 228/1/3
f 232/4/3 231/4/3 230/4/3
f 233/4/3 231/4/3 232/4/3
f 236/4/3 235/4/3 234/4/3
f 237/4/3 235/4/3 236/4/3
f 240/4/3 239/4/3 238/4/3
f 241/4/3 239/4/3 240/4/3
f 242/4/4 243/4/4 244/4/4
f 244/4/4 243/4/4 245/4/4
f 246/4/4 247/4/4 248/4/4
f 248/4/4 247/4/4 249/4/4
f 250/4/4 251/4/4 252/4/4
f 252/4/4 251/4/4 253/4/4
f 254/6/4 255/6/4 256/6/4
f 256/6/4 255/6/4 257/6/4
f 258/1/4 259/1/4 260/1/4
f 260/1/4 259/1/4 261/1/4
f 262/6/4 263/6/4 265/6/4
f 265/6/4 263/6/4 266/6/4
f 264/4/4 265/4/4 267/4/4
f 265/4/4 266/4/4 267/4/4
f 267/4/4 266/4/4 268/4/4
f 264/4/4 267/4/4 269/4/4
f 267/5/4 268/5/4 269/5/4
f 269/5/4 268/5/4 270/5/4
f 264/4/4 269/4/4 271/4/4
f 269/4/4 270/4/4 271/4/4
f 271/4/4 270/4/4 272/4/4
f 272/4/4 270/4/4 273/4/4
f 272/6/4 273/6/4 275/6/4
f 275/6/4 273/6/4 276/6/4
f 274/4/4 275/4/4 277/4/4
f 275/4/4 276/4/4 277/4/4
f 277/4/4 276/4/4 278/4/4
f 274/4/4 277/4/4 279/4/4
f 277/5/4 278/5/4 279/5/4
f 279/5/4 278/5/4 280/5/4
f 274/4/4 279/4/4 281/4/4
f 279/4/4 280/4/4 281/4/4
f 281/4/4 280/4/4 282/4/4
f 282/4/4 280/4/4 283/4/4
f 282/6/4 283/6/4 284/6/4
f 284/6/4 283/6/4 285/6/4
f 286/6/4 287/6/4 290/6/4
f 287/7/4 288/7/4 291/7/4
f 290/6/4 287/6/4 291/6/4
f 291/7/4 288/7/4 292/7/4
f 289/4/4 290/4/4 293/4/4
f 290/4/4 291/4/4 293/4/4
f 291/4/4 292/4/4 293/4/4
f 293/4/4 292/4/4 294/4/4
f 292/7/4 288/7/4 295/7/4
f 295/7/4 288/7/4 296/7/4
f 289/4/4 293/4/4 297/4/4
f 293/5/4 294/5/4 297/5/4
f 294/4/4 292/4/4 298/4/4
f 297/5/4 294/5/4 298/5/4
f 289/4/4 297/4/4 299/4/4
f 297/4/4 298/4/4 299/4/4
f 299/4/4 298/4/4 300/4/4
f 298/4/4 292/4/4 301/4/4
f 300/4/4 298/4/4 301/4/4
f 292/7/4 295/7/4 302/7/4
f 301/4/4 292/4/4 302/4/4
f 300/6/4 301/6/4 303/6/4
f 301/7/4 302/7/4 304/7/4
f 303/6/4 301/6/4 304/6/4
f 302/7/4 295/7/4 305/7/4
f 304/7/4 302/7/4 305/7/4
f 295/4/4 296/4/4 305/4/4
f 296/7/4 288/7/4 306/7/4
f 305/4/4 296/4/4 306/4/4
f 306/7/4 288/7/4 307/7/4
f 309/2/4 310/2/4 312/2/4
f 312/2/4 310/2/4 313/2/4
f 308/1/4 309/1/4 314/1/4
f 309/2/4 312/2/4 314/2/4
f 312/3/4 313/3/4 315/3/4
f 314/2/4 312/2/4 315/2/4
f 313/2/4 310/2/4 316/2/4
f 315/3/4 313/3/4 316/3/4
f 314/3/4 315/3/4 317/3/4
f 308/1/4 314/1/4 317/1/4
f 315/2/4 316/2/4 318/2/4
f 317/3/4 315/3/4 318/3/4
f 316/2/4 310/2/4 319/2/4
f 318/2/4 316/2/4 319/2/4
f 317/2/4 318/2/4 319/2/4
f 319/2/4 310/2/4 320/2/4
f 317/2/4 319/2/4 321/2/4
f 319/3/4 320/3/4 322/3/4
f 321/2/4 319/2/4 322/2/4
f 320/2/4 310/2/4 323/2/4
f 322/3/4 320/3/4 323/3/4
f 317/2/4 321/2/4 324/2/4
f 321/3/4 322/3/4 325/3/4
f 324/2/4 321/2/4 325/2/4
f 322/2/4 323/2/4 326/2/4
f 325/3/4 322/3/4 326/3/4
f 308/1/4 317/1/4 327/1/4
f 317/2/4 324/2/4 327/2/4
f 324/3/4 325/3/4 328/3/4
f 327/2/4 324/2/4 328/2/4
f 325/2/4 326/2/4 329/2/4
f 328/3/4 325/3/4 329/3/4
f 327/3/4 328/3/4 330/3/4
f 308/1/4 327/1/4 330/1/4
f 328/2/4 329/2/4 331/2/4
f 330/3/4 328/3/4 331/3/4
f 326/2/4 323/2/4 332/2/4
f 331/2/4 329/2/4 332/2/4
f 329/2/4 326/2/4 332/2/4
f 323/2/4 310/2/4 332/2/4
f 332/2/4 310/2/4 333/2/4
f 330/2/4 331/2/4 334/2/4
f 331/2/4 332/2/4 334/2/4
f 332/3/4 333/3/4 335/3/4
f 334/2/4 332/2/4 335/2/4
f 333/2/4 310/2/4 336/2/4
f 335/3/4 333/3/4 336/3/4
f 330/2/4 334/2/4 337/2/4
f 334/3/4 335/3/4 338/3/4
f 337/2/4 334/2/4 338/2/4
f 335/2/4 336/2/4 339/2/4
f 338/3/4 335/3/4 339/3/4
f 330/2/4 337/2/4 340/2/4
f 337/3/4 338/3/4 341/3/4
f 340/2/4 337/2/4 341/2/4
f 338/2/4 339/2/4 342/2/4
f 341/3/4 338/3/4 342/3/4
f 308/1/4 330/1/4 343/1/4
f 330/2/4 340/2/4 343/2/4
f 340/3/4 341/3/4 344/3/4
f 343/2/4 340/2/4 344/2/4
f 341/2/4 342/2/4 345/2/4
f 344/3/4 341/3/4 345/3/4
f 339/2/4 336/2/4 346/2/4
f 345/2/4 342/2/4 346/2/4
f 342/2/4 339/2/4 346/2/4
f 336/2/4 310/2/4 346/2/4
f 310/1/4 311/1/4 347/1/4
f 346/2/4 310/2/4 347/2/4
f 308/1/4 343/1/4 348/1/4
f 343/3/4 344/3/4 348/3/4
f 344/2/4 345/2/4 349/2/4
f 348/3/4 344/3/4 349/3/4
f 345/2/4 346/2/4 349/2/4
f 349/2/4 346/2/4 350/2/4
f 346/3/4 347/3/4 351/3/4
f 350/2/4 346/2/4 351/2/4
f 347/1/4 311/1/4 352/1/4
f 351/3/4 347/3/4 352/3/4
f 349/2/4 350/2/4 353/2/4
f 348/2/4 349/2/4 353/2/4
f 350/3/4 351/3/4 354/3/4
f 353/2/4 350/2/4 354/2/4
f 351/2/4 352/2/4 355/2/4
f 354/3/4 351/3/4 355/3/4
f 348/2/4 353/2/4 356/2/4
f 353/3/4 354/3/4 357/3/4
f 356/2/4 353/2/4 357/2/4
f 354/2/4 355/2/4 358/2/4
f 357/3/4 354/3/4 358/3/4
f 348/2/4 356/2/4 359/2/4
f 356/3/4 357/3/4 360/3/4
f 359/2/4 356/2/4 360/2/4
f 357/2/4 358/2/4 361/2/4
f 360/3/4 357/3/4 361/3/4
f 308/1/4 348/1/4 362/1/4
f 348/2/4 359/2/4 362/2/4
f 359/3/4 360/3/4 363/3/4
f 362/2/4 359/2/4 363/2/4
f 360/2/4 361/2/4 364/2/4
f 363/3/4 360/3/4 364/3/4
f 362/3/4 363/3/4 365/3/4
f 308/1/4 362/1/4 365/1/4
f 363/2/4 364/2/4 366/2/4
f 365/3/4 363/3/4 366/3/4
f 308/1/4 365/1/4 367/1/4
f 365/2/4 366/2/4 368/2/4
f 367/1/4 365/1/4 368/1/4
f 361/2/4 358/2/4 369/2/4
f 368/2/4 366/2/4 369/2/4
f 352/1/4 311/1/4 369/1/4
f 355/2/4 352/2/4 369/2/4
f 366/2/4 364/2/4 369/2/4
f 364/2/4 361/2/4 369/2/4
f 358/2/4 355/2/4 369/2/4
f 369/1/4 311/1/4 370/1/4
f 377/4/5 372/4/5 371/4/5
f 378/4/5 372/4/5 377/4/5
f 379/4/5 374/4/5 373/4/5
f 380/4/5 374/4/5 379/4/5
f 381/4/5 376/4/5 375/4/5
f 382/4/5 376/4/5 381/4/5
f 389/4/5 384/4/5 383/4/5
f 390/4/5 384/4/5 389/4/5
f 391/4/5 386/4/5 385/4/5
f 392/4/5 386/4/5 391/4/5
f 393/4/5 388/4/5 387/4/5
f 394/4/5 388/4/5 393/4/5
f 405/6/5 396/6/5 395/6/5
f 406/6/5 398/6/5 397/6/5
f 407/6/5 398/6/5 406/6/5
f 408/6/5 400/6/5 399/6/5
f 409/6/5 400/6/5 408/6/5
f 410/6/5 400/6/5 409/6/5
f 411/6/5 402/6/5 401/6/5
f 412/6/5 402/6/5 411/6/5
f 413/6/5 404/6/5 403/6/5
f 414/6/5 405/6/5 395/6/5
f 414/2/5 407/2/5 406/2/5
f 414/2/5 406/2/5 405/2/5
f 414/2/5 408/2/5 407/2/5
f 414/2/5 409/2/5 408/2/5
f 415/2/5 409/2/5 414/2/5
f 416/2/5 409/2/5 415/2/5
f 417/2/5 409/2/5 416/2/5
f 418/6/5 412/6/5 411/6/5
f 418/2/5 409/2/5 417/2/5
f 418/6/5 413/6/5 412/6/5
f 418/6/5 410/6/5 409/6/5
f 418/6/5 411/6/5 410/6/5
f 419/6/5 413/6/5 418/6/5
f 420/6/5 413/6/5 419/6/5
f 421/6/5 413/6/5 420/6/5
f 422/6/5 404/6/5 413/6/5
f 422/6/5 413/6/5 421/6/5
f 423/6/5 414/6/5 395/6/5
f 424/6/5 414/6/5 423/6/5
f 425/6/5 416/6/5 415/6/5
f 426/6/5 416/6/5 425/6/5
f 427/6/5 419/6/5 418/6/5
f 427/6/5 418/6/5 417/6/5
f 428/6/5 419/6/5 427/6/5
f 429/6/5 421/6/5 420/6/5
f 430/6/5 421/6/5 429/6/5
f 431/6/5 404/6/5 422/6/5
f 432/6/5 404/6/5 431/6/5
f 435/1/5 434/1/5 433/1/5
f 436/1/5 434/1/5 435/1/5
f 437/1/5 434/1/5 436/1/5
f 438/1/5 434/1/5 437/1/5
f 439/1/5 434/1/5 438/1/5
f 440/1/5 434/1/5 439/1/5
f 441/1/5 434/1/5 440/1/5
f 442/1/5 434/1/5 441/1/5
f 443/1/5 434/1/5 442/1/5
f 444/1/5 434/1/5 443/1/5
f 445/1/5 435/1/5 433/1/5
f 455/1/5 445/1/5 433/1/5
f 455/1/5 454/1/5 453/1/5
f 455/1/5 453/1/5 452/1/5
f 455/1/5 452/1/5 451/1/5
f 455/1/5 451/1/5 450/1/5
f 455/1/5 450/1/5 449/1/5
f 455/1/5 449/1/5 448/1/5
f 455/1/5 448/1/5 447/1/5
f 455/1/5 447/1/5 446/1/5
f 455/1/5 446/1/5 445/1/5
f 456/1/5 454/1/5 455/1/5
f 457/6/6 458/6/6 459/6/6
f 459/6/6 458/6/6 460/6/6
f 461/7/6 462/7/6 463/7/6
f 463/7/6 462/7/6 464/7/6
f 464/7/6 462/7/6 466/7/6
f 465/7/6 466/7/6 467/7/6
f 466/7/6 462/7/6 468/7/6
f 467/7/6 466/7/6 468/7/6
f 469/1/6 470/1/6 471/1/6
f 471/1/6 470/1/6 472/1/6
f 473/1/6 474/1/6 475/1/6
f 475/1/6 474/1/6 476/1/6
