# MagicaVoxel @ Ephtracy

# group
o 

# material
mtllib truck_openroof_boxes.mtl
usemtl palette

# normals
vn -1 0 0
vn 1 0 0
vn 0 0 1
vn 0 0 -1
vn 0 -1 0
vn 0 1 0

# texcoords
vt 0.908203 0.5
vt 0.912109 0.5
vt 0.916016 0.5
vt 0.939453 0.5
vt 0.943359 0.5
vt 0.970703 0.5
vt 0.974609 0.5
vt 0.978516 0.5
vt 0.982422 0.5

# verts
v -1.3 0.2 0.4
v -1.3 0.2 -0.4
v -1.3 0.3 0.4
v -1.3 0.3 -0.4
v -1.3 0.4 0.4
v -1.3 0.4 -0.4
v -1.3 0.5 0.4
v -1.3 0.5 -0.4
v -1.2 0.1 0.3
v -1.2 0.1 -0.3
v -1.2 0.2 0.3
v -1.2 0.2 -0.3
v -1.1 0 0.3
v -1.1 0 0.2
v -1.1 0 -0.2
v -1.1 0 -0.3
v -1.1 0.1 0.3
v -1.1 0.1 0.2
v -1.1 0.1 -0.2
v -1.1 0.1 -0.3
v -1.1 0.3 0.2
v -1.1 0.3 -0.2
v -1.1 0.6 0.2
v -1.1 0.6 -0.2
v -0.5 0.3 0.2
v -0.5 0.3 -0.2
v -0.5 0.6 0.2
v -0.5 0.6 -0.2
v 0.1 0 0.3
v 0.1 0 0.2
v 0.1 0 -0.2
v 0.1 0 -0.3
v 0.1 0.1 0.3
v 0.1 0.1 0.2
v 0.1 0.1 -0.2
v 0.1 0.1 -0.3
v 0.1 0.3 0.2
v 0.1 0.3 -0.2
v 0.1 0.6 0.2
v 0.1 0.6 -0.2
v 0.6 0.3 0.3
v 0.6 0.3 -0.3
v 0.6 0.4 0.3
v 0.6 0.4 -0.3
v 0.6 0.5 0.3
v 0.6 0.5 -0.3
v 0.8 0.1 0.3
v 0.8 0.1 0.2
v 0.8 0.1 -0.2
v 0.8 0.1 -0.3
v 0.8 0.2 0.3
v 0.8 0.2 0.2
v 0.8 0.2 -0.2
v 0.8 0.2 -0.3
v 0.8 0.8 0.3
v 0.8 0.8 0.2
v 0.8 0.8 -0.2
v 0.8 0.8 -0.3
v 0.8 0.9 0.2
v 0.8 0.9 -0.2
v 0.9 0 0.3
v 0.9 0 0.2
v 0.9 0 -0.2
v 0.9 0 -0.3
v 0.9 0.1 0.3
v 0.9 0.1 0.2
v 0.9 0.1 -0.2
v 0.9 0.1 -0.3
v -1.2 0.3 0.3
v -1.2 0.3 -0.3
v -1.2 0.4 0.3
v -1.2 0.4 -0.3
v -1.2 0.5 0.3
v -1.2 0.5 -0.3
v -0.8 0 0.3
v -0.8 0 0.2
v -0.8 0 -0.2
v -0.8 0 -0.3
v -0.8 0.1 0.3
v -0.8 0.1 0.2
v -0.8 0.1 -0.2
v -0.8 0.1 -0.3
v -0.7 0.3 0.2
v -0.7 0.3 -0.2
v -0.7 0.6 0.2
v -0.7 0.6 -0.2
v -0.0999999 0.3 0.2
v -0.0999999 0.3 -0.2
v -0.0999999 0.6 0.2
v -0.0999999 0.6 -0.2
v 0.4 0 0.3
v 0.4 0 0.2
v 0.4 0 -0.2
v 0.4 0 -0.3
v 0.4 0.1 0.3
v 0.4 0.1 0.2
v 0.4 0.1 -0.2
v 0.4 0.1 -0.3
v 0.5 0.3 0.2
v 0.5 0.3 -0.2
v 0.5 0.6 0.2
v 0.5 0.6 -0.2
v 0.7 0.1 0.3
v 0.7 0.1 0.2
v 0.7 0.1 -0.2
v 0.7 0.1 -0.3
v 0.7 0.2 0.4
v 0.7 0.2 0.3
v 0.7 0.2 0.2
v 0.7 0.2 -0.2
v 0.7 0.2 -0.3
v 0.7 0.2 -0.4
v 0.7 0.3 0.4
v 0.7 0.3 -0.4
v 0.7 0.4 0.4
v 0.7 0.4 -0.4
v 0.7 0.5 0.4
v 0.7 0.5 -0.4
v 1.1 0.8 0.2
v 1.1 0.8 -0.2
v 1.1 0.9 0.2
v 1.1 0.9 -0.2
v 1.2 0 0.3
v 1.2 0 0.2
v 1.2 0 -0.2
v 1.2 0 -0.3
v 1.2 0.1 0.3
v 1.2 0.1 0.2
v 1.2 0.1 -0.2
v 1.2 0.1 -0.3
v 1.4 0.1 0.3
v 1.4 0.1 -0.3
v 1.4 0.2 0.3
v 1.4 0.2 -0.3
v 1.4 0.5 0.3
v 1.4 0.5 -0.3
v 1.4 0.7 0.3
v 1.4 0.7 -0.3
v 1.4 0.8 0.3
v 1.4 0.8 -0.3
v -1.3 0.2 0.4
v -1.3 0.3 0.4
v -1.3 0.4 0.4
v -1.3 0.5 0.4
v 0.7 0.2 0.4
v 0.7 0.3 0.4
v 0.7 0.4 0.4
v 0.7 0.5 0.4
v -1.2 0.1 0.3
v -1.2 0.2 0.3
v -1.1 0 0.3
v -1.1 0.1 0.3
v -1.1 0.2 0.3
v -1 0.1 0.3
v -1 0.2 0.3
v -0.9 0.1 0.3
v -0.9 0.2 0.3
v -0.8 0 0.3
v -0.8 0.1 0.3
v -0.8 0.2 0.3
v 0.1 0 0.3
v 0.1 0.1 0.3
v 0.1 0.2 0.3
v 0.2 0.1 0.3
v 0.2 0.2 0.3
v 0.3 0.1 0.3
v 0.3 0.2 0.3
v 0.4 0 0.3
v 0.4 0.1 0.3
v 0.4 0.2 0.3
v 0.7 0.1 0.3
v 0.7 0.2 0.3
v 0.8 0.1 0.3
v 0.8 0.2 0.3
v 0.8 0.8 0.3
v 0.9 0 0.3
v 0.9 0.1 0.3
v 0.9 0.2 0.3
v 0.9 0.3 0.3
v 1 0.1 0.3
v 1 0.2 0.3
v 1 0.5 0.3
v 1 0.7 0.3
v 1.1 0.1 0.3
v 1.1 0.2 0.3
v 1.2 0 0.3
v 1.2 0.1 0.3
v 1.2 0.2 0.3
v 1.2 0.3 0.3
v 1.4 0.1 0.3
v 1.4 0.2 0.3
v 1.4 0.5 0.3
v 1.4 0.7 0.3
v 1.4 0.8 0.3
v -1.1 0.3 0.2
v -1.1 0.6 0.2
v -0.7 0.3 0.2
v -0.7 0.6 0.2
v -0.5 0.3 0.2
v -0.5 0.6 0.2
v -0.0999999 0.3 0.2
v -0.0999999 0.6 0.2
v 0.1 0.3 0.2
v 0.1 0.6 0.2
v 0.5 0.3 0.2
v 0.5 0.6 0.2
v 0.7 0.1 0.2
v 0.7 0.2 0.2
v 0.8 0.1 0.2
v 0.8 0.2 0.2
v 0.8 0.8 0.2
v 0.8 0.9 0.2
v 1.1 0.8 0.2
v 1.1 0.9 0.2
v -1.1 0 -0.2
v -1.1 0.1 -0.2
v -0.8 0 -0.2
v -0.8 0.1 -0.2
v 0.1 0 -0.2
v 0.1 0.1 -0.2
v 0.4 0 -0.2
v 0.4 0.1 -0.2
v 0.9 0 -0.2
v 0.9 0.1 -0.2
v 1.2 0 -0.2
v 1.2 0.1 -0.2
v -1.2 0.3 -0.3
v -1.2 0.4 -0.3
v -1.2 0.5 -0.3
v 0.6 0.3 -0.3
v 0.6 0.4 -0.3
v 0.6 0.5 -0.3
v -1.2 0.3 0.3
v -1.2 0.4 0.3
v -1.2 0.5 0.3
v 0.6 0.3 0.3
v 0.6 0.4 0.3
v 0.6 0.5 0.3
v -1.1 0 0.2
v -1.1 0.1 0.2
v -0.8 0 0.2
v -0.8 0.1 0.2
v 0.1 0 0.2
v 0.1 0.1 0.2
v 0.4 0 0.2
v 0.4 0.1 0.2
v 0.9 0 0.2
v 0.9 0.1 0.2
v 1.2 0 0.2
v 1.2 0.1 0.2
v -1.1 0.3 -0.2
v -1.1 0.6 -0.2
v -0.7 0.3 -0.2
v -0.7 0.6 -0.2
v -0.5 0.3 -0.2
v -0.5 0.6 -0.2
v -0.0999999 0.3 -0.2
v -0.0999999 0.6 -0.2
v 0.1 0.3 -0.2
v 0.1 0.6 -0.2
v 0.5 0.3 -0.2
v 0.5 0.6 -0.2
v 0.7 0.1 -0.2
v 0.7 0.2 -0.2
v 0.8 0.1 -0.2
v 0.8 0.2 -0.2
v 0.8 0.8 -0.2
v 0.8 0.9 -0.2
v 1.1 0.8 -0.2
v 1.1 0.9 -0.2
v -1.2 0.1 -0.3
v -1.2 0.2 -0.3
v -1.1 0 -0.3
v -1.1 0.1 -0.3
v -1.1 0.2 -0.3
v -1 0.1 -0.3
v -1 0.2 -0.3
v -0.9 0.1 -0.3
v -0.9 0.2 -0.3
v -0.8 0 -0.3
v -0.8 0.1 -0.3
v -0.8 0.2 -0.3
v 0.1 0 -0.3
v 0.1 0.1 -0.3
v 0.1 0.2 -0.3
v 0.2 0.1 -0.3
v 0.2 0.2 -0.3
v 0.3 0.1 -0.3
v 0.3 0.2 -0.3
v 0.4 0 -0.3
v 0.4 0.1 -0.3
v 0.4 0.2 -0.3
v 0.7 0.1 -0.3
v 0.7 0.2 -0.3
v 0.8 0.1 -0.3
v 0.8 0.2 -0.3
v 0.8 0.8 -0.3
v 0.9 0 -0.3
v 0.9 0.1 -0.3
v 0.9 0.2 -0.3
v 0.9 0.3 -0.3
v 1 0.1 -0.3
v 1 0.2 -0.3
v 1 0.5 -0.3
v 1 0.7 -0.3
v 1.1 0.1 -0.3
v 1.1 0.2 -0.3
v 1.2 0 -0.3
v 1.2 0.1 -0.3
v 1.2 0.2 -0.3
v 1.2 0.3 -0.3
v 1.4 0.1 -0.3
v 1.4 0.2 -0.3
v 1.4 0.5 -0.3
v 1.4 0.7 -0.3
v 1.4 0.8 -0.3
v -1.3 0.2 -0.4
v -1.3 0.3 -0.4
v -1.3 0.4 -0.4
v -1.3 0.5 -0.4
v 0.7 0.2 -0.4
v 0.7 0.3 -0.4
v 0.7 0.4 -0.4
v 0.7 0.5 -0.4
v -1.1 0 0.3
v -0.8 0 0.3
v 0.1 0 0.3
v 0.4 0 0.3
v 0.9 0 0.3
v 1.2 0 0.3
v -1.1 0 0.2
v -0.8 0 0.2
v 0.1 0 0.2
v 0.4 0 0.2
v 0.9 0 0.2
v 1.2 0 0.2
v -1.1 0 -0.2
v -0.8 0 -0.2
v 0.1 0 -0.2
v 0.4 0 -0.2
v 0.9 0 -0.2
v 1.2 0 -0.2
v -1.1 0 -0.3
v -0.8 0 -0.3
v 0.1 0 -0.3
v 0.4 0 -0.3
v 0.9 0 -0.3
v 1.2 0 -0.3
v -1.2 0.1 0.3
v -1.1 0.1 0.3
v -0.8 0.1 0.3
v 0.1 0.1 0.3
v 0.4 0.1 0.3
v 0.7 0.1 0.3
v 0.8 0.1 0.3
v 0.9 0.1 0.3
v 1.2 0.1 0.3
v 1.4 0.1 0.3
v -1.1 0.1 0.2
v -0.8 0.1 0.2
v 0.1 0.1 0.2
v 0.4 0.1 0.2
v 0.6 0.1 0.2
v 0.7 0.1 0.2
v 0.8 0.1 0.2
v 0.9 0.1 0.2
v 1.2 0.1 0.2
v -1.1 0.1 -0.2
v -0.8 0.1 -0.2
v 0.1 0.1 -0.2
v 0.4 0.1 -0.2
v 0.6 0.1 -0.2
v 0.7 0.1 -0.2
v 0.8 0.1 -0.2
v 0.9 0.1 -0.2
v 1.2 0.1 -0.2
v -1.2 0.1 -0.3
v -1.1 0.1 -0.3
v -0.8 0.1 -0.3
v 0.1 0.1 -0.3
v 0.4 0.1 -0.3
v 0.7 0.1 -0.3
v 0.8 0.1 -0.3
v 0.9 0.1 -0.3
v 1.2 0.1 -0.3
v 1.4 0.1 -0.3
v -1.3 0.2 0.4
v 0.7 0.2 0.4
v -1.2 0.2 0.3
v -1.1 0.2 0.3
v -1 0.2 0.3
v -0.9 0.2 0.3
v -0.8 0.2 0.3
v 0.1 0.2 0.3
v 0.2 0.2 0.3
v 0.3 0.2 0.3
v 0.4 0.2 0.3
v 0.7 0.2 0.3
v -1.2 0.2 -0.3
v -1.1 0.2 -0.3
v -1 0.2 -0.3
v -0.9 0.2 -0.3
v -0.8 0.2 -0.3
v 0.1 0.2 -0.3
v 0.2 0.2 -0.3
v 0.3 0.2 -0.3
v 0.4 0.2 -0.3
v 0.7 0.2 -0.3
v -1.3 0.2 -0.4
v 0.7 0.2 -0.4
v 0.7 0.2 0.2
v 0.8 0.2 0.2
v 0.7 0.2 -0.2
v 0.8 0.2 -0.2
v -1.2 0.3 0.3
v 0.6 0.3 0.3
v -1.1 0.3 0.2
v -0.7 0.3 0.2
v -0.5 0.3 0.2
v -0.0999999 0.3 0.2
v 0.1 0.3 0.2
v 0.5 0.3 0.2
v -1.1 0.3 -0.2
v -0.7 0.3 -0.2
v -0.5 0.3 -0.2
v -0.0999999 0.3 -0.2
v 0.1 0.3 -0.2
v 0.5 0.3 -0.2
v -1.2 0.3 -0.3
v 0.6 0.3 -0.3
v -1.3 0.5 0.4
v 0.7 0.5 0.4
v -1.2 0.5 0.3
v 0.6 0.5 0.3
v -1.2 0.5 -0.3
v 0.6 0.5 -0.3
v -1.3 0.5 -0.4
v 0.7 0.5 -0.4
v -1.1 0.6 0.2
v -0.7 0.6 0.2
v -0.5 0.6 0.2
v -0.0999999 0.6 0.2
v 0.1 0.6 0.2
v 0.5 0.6 0.2
v -1.1 0.6 -0.2
v -0.7 0.6 -0.2
v -0.5 0.6 -0.2
v -0.0999999 0.6 -0.2
v 0.1 0.6 -0.2
v 0.5 0.6 -0.2
v 0.8 0.8 0.3
v 1.4 0.8 0.3
v 0.8 0.8 0.2
v 1.1 0.8 0.2
v 0.8 0.8 -0.2
v 1.1 0.8 -0.2
v 0.8 0.8 -0.3
v 1.4 0.8 -0.3
v 0.8 0.9 0.2
v 1.1 0.9 0.2
v 0.8 0.9 -0.2
v 1.1 0.9 -0.2

# faces
f 3/1/1 2/1/1 1/1/1
f 4/1/1 2/1/1 3/1/1
f 5/2/1 4/2/1 3/2/1
f 6/2/1 4/2/1 5/2/1
f 7/1/1 6/1/1 5/1/1
f 8/1/1 6/1/1 7/1/1
f 11/8/1 10/8/1 9/8/1
f 12/8/1 10/8/1 11/8/1
f 17/6/1 14/6/1 13/6/1
f 18/6/1 14/6/1 17/6/1
f 19/6/1 16/6/1 15/6/1
f 20/6/1 16/6/1 19/6/1
f 23/3/1 22/3/1 21/3/1
f 24/3/1 22/3/1 23/3/1
f 27/3/1 26/3/1 25/3/1
f 28/3/1 26/3/1 27/3/1
f 33/6/1 30/6/1 29/6/1
f 34/6/1 30/6/1 33/6/1
f 35/6/1 32/6/1 31/6/1
f 36/6/1 32/6/1 35/6/1
f 39/3/1 38/3/1 37/3/1
f 40/3/1 38/3/1 39/3/1
f 43/2/1 42/2/1 41/2/1
f 44/2/1 42/2/1 43/2/1
f 45/1/1 44/1/1 43/1/1
f 46/1/1 44/1/1 45/1/1
f 51/8/1 48/8/1 47/8/1
f 52/8/1 48/8/1 51/8/1
f 53/8/1 50/8/1 49/8/1
f 54/8/1 50/8/1 53/8/1
f 55/9/1 52/9/1 51/9/1
f 55/9/1 53/9/1 52/9/1
f 55/9/1 54/9/1 53/9/1
f 56/9/1 54/9/1 55/9/1
f 57/9/1 54/9/1 56/9/1
f 58/9/1 54/9/1 57/9/1
f 59/4/1 57/4/1 56/4/1
f 60/4/1 57/4/1 59/4/1
f 65/6/1 62/6/1 61/6/1
f 66/6/1 62/6/1 65/6/1
f 67/6/1 64/6/1 63/6/1
f 68/6/1 64/6/1 67/6/1
f 69/2/2 70/2/2 71/2/2
f 71/2/2 70/2/2 72/2/2
f 71/1/2 72/1/2 73/1/2
f 73/1/2 72/1/2 74/1/2
f 75/6/2 76/6/2 79/6/2
f 79/6/2 76/6/2 80/6/2
f 77/6/2 78/6/2 81/6/2
f 81/6/2 78/6/2 82/6/2
f 83/3/2 84/3/2 85/3/2
f 85/3/2 84/3/2 86/3/2
f 87/3/2 88/3/2 89/3/2
f 89/3/2 88/3/2 90/3/2
f 91/6/2 92/6/2 95/6/2
f 95/6/2 92/6/2 96/6/2
f 93/6/2 94/6/2 97/6/2
f 97/6/2 94/6/2 98/6/2
f 99/3/2 100/3/2 101/3/2
f 101/3/2 100/3/2 102/3/2
f 103/8/2 104/8/2 108/8/2
f 108/8/2 104/8/2 109/8/2
f 105/8/2 106/8/2 110/8/2
f 110/8/2 106/8/2 111/8/2
f 108/1/2 109/1/2 113/1/2
f 111/1/2 112/1/2 113/1/2
f 110/1/2 111/1/2 113/1/2
f 109/1/2 110/1/2 113/1/2
f 107/1/2 108/1/2 113/1/2
f 113/1/2 112/1/2 114/1/2
f 113/2/2 114/2/2 115/2/2
f 115/2/2 114/2/2 116/2/2
f 115/1/2 116/1/2 117/1/2
f 117/1/2 116/1/2 118/1/2
f 119/4/2 120/4/2 121/4/2
f 121/4/2 120/4/2 122/4/2
f 123/6/2 124/6/2 127/6/2
f 127/6/2 124/6/2 128/6/2
f 125/6/2 126/6/2 129/6/2
f 129/6/2 126/6/2 130/6/2
f 131/8/2 132/8/2 133/8/2
f 133/8/2 132/8/2 134/8/2
f 133/9/2 134/9/2 135/9/2
f 135/9/2 134/9/2 136/9/2
f 135/6/2 136/6/2 137/6/2
f 137/6/2 136/6/2 138/6/2
f 137/9/2 138/9/2 139/9/2
f 139/9/2 138/9/2 140/9/2
f 145/1/3 142/1/3 141/1/3
f 146/2/3 143/2/3 142/2/3
f 146/1/3 142/1/3 145/1/3
f 147/1/3 144/1/3 143/1/3
f 147/2/3 143/2/3 146/2/3
f 148/1/3 144/1/3 147/1/3
f 152/8/3 150/8/3 149/8/3
f 153/8/3 150/8/3 152/8/3
f 154/6/3 152/6/3 151/6/3
f 154/6/3 153/6/3 152/6/3
f 155/6/3 153/6/3 154/6/3
f 156/6/3 154/6/3 151/6/3
f 156/7/3 155/7/3 154/7/3
f 157/7/3 155/7/3 156/7/3
f 158/6/3 156/6/3 151/6/3
f 158/6/3 157/6/3 156/6/3
f 159/6/3 157/6/3 158/6/3
f 160/6/3 157/6/3 159/6/3
f 162/8/3 160/8/3 159/8/3
f 163/8/3 160/8/3 162/8/3
f 164/6/3 162/6/3 161/6/3
f 164/6/3 163/6/3 162/6/3
f 165/6/3 163/6/3 164/6/3
f 166/6/3 164/6/3 161/6/3
f 166/7/3 165/7/3 164/7/3
f 167/7/3 165/7/3 166/7/3
f 168/6/3 166/6/3 161/6/3
f 168/6/3 167/6/3 166/6/3
f 169/6/3 167/6/3 168/6/3
f 170/6/3 167/6/3 169/6/3
f 171/8/3 170/8/3 169/8/3
f 172/8/3 170/8/3 171/8/3
f 177/8/3 174/8/3 173/8/3
f 178/9/3 175/9/3 174/9/3
f 178/8/3 174/8/3 177/8/3
f 179/9/3 175/9/3 178/9/3
f 180/6/3 177/6/3 176/6/3
f 180/6/3 178/6/3 177/6/3
f 180/6/3 179/6/3 178/6/3
f 181/6/3 179/6/3 180/6/3
f 182/9/3 175/9/3 179/9/3
f 183/9/3 175/9/3 182/9/3
f 184/6/3 180/6/3 176/6/3
f 184/7/3 181/7/3 180/7/3
f 185/6/3 179/6/3 181/6/3
f 185/7/3 181/7/3 184/7/3
f 186/6/3 184/6/3 176/6/3
f 186/6/3 185/6/3 184/6/3
f 187/6/3 185/6/3 186/6/3
f 188/6/3 179/6/3 185/6/3
f 188/6/3 185/6/3 187/6/3
f 189/9/3 182/9/3 179/9/3
f 189/6/3 179/6/3 188/6/3
f 190/8/3 188/8/3 187/8/3
f 191/9/3 189/9/3 188/9/3
f 191/8/3 188/8/3 190/8/3
f 192/9/3 182/9/3 189/9/3
f 192/9/3 189/9/3 191/9/3
f 192/6/3 183/6/3 182/6/3
f 193/9/3 175/9/3 183/9/3
f 193/6/3 183/6/3 192/6/3
f 194/9/3 175/9/3 193/9/3
f 197/3/3 196/3/3 195/3/3
f 198/3/3 196/3/3 197/3/3
f 201/3/3 200/3/3 199/3/3
f 202/3/3 200/3/3 201/3/3
f 205/3/3 204/3/3 203/3/3
f 206/3/3 204/3/3 205/3/3
f 209/8/3 208/8/3 207/8/3
f 210/8/3 208/8/3 209/8/3
f 213/4/3 212/4/3 211/4/3
f 214/4/3 212/4/3 213/4/3
f 217/6/3 216/6/3 215/6/3
f 218/6/3 216/6/3 217/6/3
f 221/6/3 220/6/3 219/6/3
f 222/6/3 220/6/3 221/6/3
f 225/6/3 224/6/3 223/6/3
f 226/6/3 224/6/3 225/6/3
f 230/2/3 228/2/3 227/2/3
f 231/1/3 229/1/3 228/1/3
f 231/2/3 228/2/3 230/2/3
f 232/1/3 229/1/3 231/1/3
f 233/2/4 234/2/4 236/2/4
f 234/1/4 235/1/4 237/1/4
f 236/2/4 234/2/4 237/2/4
f 237/1/4 235/1/4 238/1/4
f 239/6/4 240/6/4 241/6/4
f 241/6/4 240/6/4 242/6/4
f 243/6/4 244/6/4 245/6/4
f 245/6/4 244/6/4 246/6/4
f 247/6/4 248/6/4 249/6/4
f 249/6/4 248/6/4 250/6/4
f 251/3/4 252/3/4 253/3/4
f 253/3/4 252/3/4 254/3/4
f 255/3/4 256/3/4 257/3/4
f 257/3/4 256/3/4 258/3/4
f 259/3/4 260/3/4 261/3/4
f 261/3/4 260/3/4 262/3/4
f 263/8/4 264/8/4 265/8/4
f 265/8/4 264/8/4 266/8/4
f 267/4/4 268/4/4 269/4/4
f 269/4/4 268/4/4 270/4/4
f 271/8/4 272/8/4 274/8/4
f 274/8/4 272/8/4 275/8/4
f 273/6/4 274/6/4 276/6/4
f 274/6/4 275/6/4 276/6/4
f 276/6/4 275/6/4 277/6/4
f 273/6/4 276/6/4 278/6/4
f 276/7/4 277/7/4 278/7/4
f 278/7/4 277/7/4 279/7/4
f 273/6/4 278/6/4 280/6/4
f 278/6/4 279/6/4 280/6/4
f 280/6/4 279/6/4 281/6/4
f 281/6/4 279/6/4 282/6/4
f 281/8/4 282/8/4 284/8/4
f 284/8/4 282/8/4 285/8/4
f 283/6/4 284/6/4 286/6/4
f 284/6/4 285/6/4 286/6/4
f 286/6/4 285/6/4 287/6/4
f 283/6/4 286/6/4 288/6/4
f 286/7/4 287/7/4 288/7/4
f 288/7/4 287/7/4 289/7/4
f 283/6/4 288/6/4 290/6/4
f 288/6/4 289/6/4 290/6/4
f 290/6/4 289/6/4 291/6/4
f 291/6/4 289/6/4 292/6/4
f 291/8/4 292/8/4 293/8/4
f 293/8/4 292/8/4 294/8/4
f 295/8/4 296/8/4 299/8/4
f 296/9/4 297/9/4 300/9/4
f 299/8/4 296/8/4 300/8/4
f 300/9/4 297/9/4 301/9/4
f 298/6/4 299/6/4 302/6/4
f 299/6/4 300/6/4 302/6/4
f 300/6/4 301/6/4 302/6/4
f 302/6/4 301/6/4 303/6/4
f 301/9/4 297/9/4 304/9/4
f 304/9/4 297/9/4 305/9/4
f 298/6/4 302/6/4 306/6/4
f 302/7/4 303/7/4 306/7/4
f 303/6/4 301/6/4 307/6/4
f 306/7/4 303/7/4 307/7/4
f 298/6/4 306/6/4 308/6/4
f 306/6/4 307/6/4 308/6/4
f 308/6/4 307/6/4 309/6/4
f 307/6/4 301/6/4 310/6/4
f 309/6/4 307/6/4 310/6/4
f 301/9/4 304/9/4 311/9/4
f 310/6/4 301/6/4 311/6/4
f 309/8/4 310/8/4 312/8/4
f 310/9/4 311/9/4 313/9/4
f 312/8/4 310/8/4 313/8/4
f 311/9/4 304/9/4 314/9/4
f 313/9/4 311/9/4 314/9/4
f 304/6/4 305/6/4 314/6/4
f 305/9/4 297/9/4 315/9/4
f 314/6/4 305/6/4 315/6/4
f 315/9/4 297/9/4 316/9/4
f 317/1/4 318/1/4 321/1/4
f 318/2/4 319/2/4 322/2/4
f 321/1/4 318/1/4 322/1/4
f 319/1/4 320/1/4 323/1/4
f 322/2/4 319/2/4 323/2/4
f 323/1/4 320/1/4 324/1/4
f 331/6/5 326/6/5 325/6/5
f 332/6/5 326/6/5 331/6/5
f 333/6/5 328/6/5 327/6/5
f 334/6/5 328/6/5 333/6/5
f 335/6/5 330/6/5 329/6/5
f 336/6/5 330/6/5 335/6/5
f 343/6/5 338/6/5 337/6/5
f 344/6/5 338/6/5 343/6/5
f 345/6/5 340/6/5 339/6/5
f 346/6/5 340/6/5 345/6/5
f 347/6/5 342/6/5 341/6/5
f 348/6/5 342/6/5 347/6/5
f 359/8/5 350/8/5 349/8/5
f 360/8/5 352/8/5 351/8/5
f 361/8/5 352/8/5 360/8/5
f 362/8/5 354/8/5 353/8/5
f 363/8/5 354/8/5 362/8/5
f 364/8/5 354/8/5 363/8/5
f 365/8/5 356/8/5 355/8/5
f 366/8/5 356/8/5 365/8/5
f 367/8/5 358/8/5 357/8/5
f 368/8/5 359/8/5 349/8/5
f 368/5/5 361/5/5 360/5/5
f 368/5/5 360/5/5 359/5/5
f 368/5/5 362/5/5 361/5/5
f 368/5/5 363/5/5 362/5/5
f 369/5/5 363/5/5 368/5/5
f 370/5/5 363/5/5 369/5/5
f 371/5/5 363/5/5 370/5/5
f 372/8/5 366/8/5 365/8/5
f 372/5/5 363/5/5 371/5/5
f 372/8/5 367/8/5 366/8/5
f 372/8/5 364/8/5 363/8/5
f 372/8/5 365/8/5 364/8/5
f 373/8/5 367/8/5 372/8/5
f 374/8/5 367/8/5 373/8/5
f 375/8/5 367/8/5 374/8/5
f 376/8/5 358/8/5 367/8/5
f 376/8/5 367/8/5 375/8/5
f 377/8/5 368/8/5 349/8/5
f 378/8/5 368/8/5 377/8/5
f 379/8/5 370/8/5 369/8/5
f 380/8/5 370/8/5 379/8/5
f 381/8/5 373/8/5 372/8/5
f 381/8/5 372/8/5 371/8/5
f 382/8/5 373/8/5 381/8/5
f 383/8/5 375/8/5 374/8/5
f 384/8/5 375/8/5 383/8/5
f 385/8/5 358/8/5 376/8/5
f 386/8/5 358/8/5 385/8/5
f 389/1/5 388/1/5 387/1/5
f 390/1/5 388/1/5 389/1/5
f 391/1/5 388/1/5 390/1/5
f 392/1/5 388/1/5 391/1/5
f 393/1/5 388/1/5 392/1/5
f 394/1/5 388/1/5 393/1/5
f 395/1/5 388/1/5 394/1/5
f 396/1/5 388/1/5 395/1/5
f 397/1/5 388/1/5 396/1/5
f 398/1/5 388/1/5 397/1/5
f 399/1/5 389/1/5 387/1/5
f 409/1/5 399/1/5 387/1/5
f 409/1/5 408/1/5 407/1/5
f 409/1/5 407/1/5 406/1/5
f 409/1/5 406/1/5 405/1/5
f 409/1/5 405/1/5 404/1/5
f 409/1/5 404/1/5 403/1/5
f 409/1/5 403/1/5 402/1/5
f 409/1/5 402/1/5 401/1/5
f 409/1/5 401/1/5 400/1/5
f 409/1/5 400/1/5 399/1/5
f 410/1/5 408/1/5 409/1/5
f 411/8/6 412/8/6 413/8/6
f 413/8/6 412/8/6 414/8/6
f 415/1/6 416/1/6 417/1/6
f 417/1/6 416/1/6 418/1/6
f 418/1/6 416/1/6 419/1/6
f 419/1/6 416/1/6 420/1/6
f 420/1/6 416/1/6 421/1/6
f 421/1/6 416/1/6 422/1/6
f 415/1/6 417/1/6 423/1/6
f 418/1/6 419/1/6 424/1/6
f 424/1/6 419/1/6 425/1/6
f 420/1/6 421/1/6 426/1/6
f 426/1/6 421/1/6 427/1/6
f 422/1/6 416/1/6 428/1/6
f 426/1/6 427/1/6 429/1/6
f 427/1/6 428/1/6 429/1/6
f 424/1/6 425/1/6 429/1/6
f 415/1/6 423/1/6 429/1/6
f 425/1/6 426/1/6 429/1/6
f 423/1/6 424/1/6 429/1/6
f 428/1/6 416/1/6 430/1/6
f 429/1/6 428/1/6 430/1/6
f 431/1/6 432/1/6 433/1/6
f 433/1/6 432/1/6 434/1/6
f 431/1/6 433/1/6 435/1/6
f 434/1/6 432/1/6 436/1/6
f 431/1/6 435/1/6 437/1/6
f 435/1/6 436/1/6 437/1/6
f 436/1/6 432/1/6 438/1/6
f 437/1/6 436/1/6 438/1/6
f 439/3/6 440/3/6 445/3/6
f 445/3/6 440/3/6 446/3/6
f 441/3/6 442/3/6 447/3/6
f 447/3/6 442/3/6 448/3/6
f 443/3/6 444/3/6 449/3/6
f 449/3/6 444/3/6 450/3/6
f 451/9/6 452/9/6 453/9/6
f 453/9/6 452/9/6 454/9/6
f 454/9/6 452/9/6 456/9/6
f 455/9/6 456/9/6 457/9/6
f 456/9/6 452/9/6 458/9/6
f 457/9/6 456/9/6 458/9/6
f 459/4/6 460/4/6 461/4/6
f 461/4/6 460/4/6 462/4/6
