# MagicaVoxel @ Ephtracy

# group
o 

# material
mtllib truck_openroof_empty.mtl
usemtl palette

# normals
vn -1 0 0
vn 1 0 0
vn 0 0 1
vn 0 0 -1
vn 0 -1 0
vn 0 1 0

# texcoords
vt 0.908203 0.5
vt 0.912109 0.5
vt 0.939453 0.5
vt 0.943359 0.5
vt 0.970703 0.5
vt 0.974609 0.5
vt 0.978516 0.5
vt 0.982422 0.5

# verts
v -1.3 0.2 0.4
v -1.3 0.2 -0.4
v -1.3 0.3 0.4
v -1.3 0.3 -0.4
v -1.3 0.4 0.4
v -1.3 0.4 -0.4
v -1.3 0.5 0.4
v -1.3 0.5 -0.4
v -1.2 0.1 0.3
v -1.2 0.1 -0.3
v -1.2 0.2 0.3
v -1.2 0.2 -0.3
v -1.1 0 0.3
v -1.1 0 0.2
v -1.1 0 -0.2
v -1.1 0 -0.3
v -1.1 0.1 0.3
v -1.1 0.1 0.2
v -1.1 0.1 -0.2
v -1.1 0.1 -0.3
v 0.1 0 0.3
v 0.1 0 0.2
v 0.1 0 -0.2
v 0.1 0 -0.3
v 0.1 0.1 0.3
v 0.1 0.1 0.2
v 0.1 0.1 -0.2
v 0.1 0.1 -0.3
v 0.6 0.3 0.3
v 0.6 0.3 -0.3
v 0.6 0.4 0.3
v 0.6 0.4 -0.3
v 0.6 0.5 0.3
v 0.6 0.5 -0.3
v 0.8 0.1 0.3
v 0.8 0.1 0.2
v 0.8 0.1 -0.2
v 0.8 0.1 -0.3
v 0.8 0.2 0.3
v 0.8 0.2 0.2
v 0.8 0.2 -0.2
v 0.8 0.2 -0.3
v 0.8 0.8 0.3
v 0.8 0.8 0.2
v 0.8 0.8 -0.2
v 0.8 0.8 -0.3
v 0.8 0.9 0.2
v 0.8 0.9 -0.2
v 0.9 0 0.3
v 0.9 0 0.2
v 0.9 0 -0.2
v 0.9 0 -0.3
v 0.9 0.1 0.3
v 0.9 0.1 0.2
v 0.9 0.1 -0.2
v 0.9 0.1 -0.3
v -1.2 0.3 0.3
v -1.2 0.3 -0.3
v -1.2 0.4 0.3
v -1.2 0.4 -0.3
v -1.2 0.5 0.3
v -1.2 0.5 -0.3
v -0.8 0 0.3
v -0.8 0 0.2
v -0.8 0 -0.2
v -0.8 0 -0.3
v -0.8 0.1 0.3
v -0.8 0.1 0.2
v -0.8 0.1 -0.2
v -0.8 0.1 -0.3
v 0.4 0 0.3
v 0.4 0 0.2
v 0.4 0 -0.2
v 0.4 0 -0.3
v 0.4 0.1 0.3
v 0.4 0.1 0.2
v 0.4 0.1 -0.2
v 0.4 0.1 -0.3
v 0.7 0.1 0.3
v 0.7 0.1 0.2
v 0.7 0.1 -0.2
v 0.7 0.1 -0.3
v 0.7 0.2 0.4
v 0.7 0.2 0.3
v 0.7 0.2 0.2
v 0.7 0.2 -0.2
v 0.7 0.2 -0.3
v 0.7 0.2 -0.4
v 0.7 0.3 0.4
v 0.7 0.3 -0.4
v 0.7 0.4 0.4
v 0.7 0.4 -0.4
v 0.7 0.5 0.4
v 0.7 0.5 -0.4
v 1.1 0.8 0.2
v 1.1 0.8 -0.2
v 1.1 0.9 0.2
v 1.1 0.9 -0.2
v 1.2 0 0.3
v 1.2 0 0.2
v 1.2 0 -0.2
v 1.2 0 -0.3
v 1.2 0.1 0.3
v 1.2 0.1 0.2
v 1.2 0.1 -0.2
v 1.2 0.1 -0.3
v 1.4 0.1 0.3
v 1.4 0.1 -0.3
v 1.4 0.2 0.3
v 1.4 0.2 -0.3
v 1.4 0.5 0.3
v 1.4 0.5 -0.3
v 1.4 0.7 0.3
v 1.4 0.7 -0.3
v 1.4 0.8 0.3
v 1.4 0.8 -0.3
v -1.3 0.2 0.4
v -1.3 0.3 0.4
v -1.3 0.4 0.4
v -1.3 0.5 0.4
v 0.7 0.2 0.4
v 0.7 0.3 0.4
v 0.7 0.4 0.4
v 0.7 0.5 0.4
v -1.2 0.1 0.3
v -1.2 0.2 0.3
v -1.1 0 0.3
v -1.1 0.1 0.3
v -1.1 0.2 0.3
v -1 0.1 0.3
v -1 0.2 0.3
v -0.9 0.1 0.3
v -0.9 0.2 0.3
v -0.8 0 0.3
v -0.8 0.1 0.3
v -0.8 0.2 0.3
v 0.1 0 0.3
v 0.1 0.1 0.3
v 0.1 0.2 0.3
v 0.2 0.1 0.3
v 0.2 0.2 0.3
v 0.3 0.1 0.3
v 0.3 0.2 0.3
v 0.4 0 0.3
v 0.4 0.1 0.3
v 0.4 0.2 0.3
v 0.7 0.1 0.3
v 0.7 0.2 0.3
v 0.8 0.1 0.3
v 0.8 0.2 0.3
v 0.8 0.8 0.3
v 0.9 0 0.3
v 0.9 0.1 0.3
v 0.9 0.2 0.3
v 0.9 0.3 0.3
v 1 0.1 0.3
v 1 0.2 0.3
v 1 0.5 0.3
v 1 0.7 0.3
v 1.1 0.1 0.3
v 1.1 0.2 0.3
v 1.2 0 0.3
v 1.2 0.1 0.3
v 1.2 0.2 0.3
v 1.2 0.3 0.3
v 1.4 0.1 0.3
v 1.4 0.2 0.3
v 1.4 0.5 0.3
v 1.4 0.7 0.3
v 1.4 0.8 0.3
v 0.7 0.1 0.2
v 0.7 0.2 0.2
v 0.8 0.1 0.2
v 0.8 0.2 0.2
v 0.8 0.8 0.2
v 0.8 0.9 0.2
v 1.1 0.8 0.2
v 1.1 0.9 0.2
v -1.1 0 -0.2
v -1.1 0.1 -0.2
v -0.8 0 -0.2
v -0.8 0.1 -0.2
v 0.1 0 -0.2
v 0.1 0.1 -0.2
v 0.4 0 -0.2
v 0.4 0.1 -0.2
v 0.9 0 -0.2
v 0.9 0.1 -0.2
v 1.2 0 -0.2
v 1.2 0.1 -0.2
v -1.2 0.3 -0.3
v -1.2 0.4 -0.3
v -1.2 0.5 -0.3
v 0.6 0.3 -0.3
v 0.6 0.4 -0.3
v 0.6 0.5 -0.3
v -1.2 0.3 0.3
v -1.2 0.4 0.3
v -1.2 0.5 0.3
v 0.6 0.3 0.3
v 0.6 0.4 0.3
v 0.6 0.5 0.3
v -1.1 0 0.2
v -1.1 0.1 0.2
v -0.8 0 0.2
v -0.8 0.1 0.2
v 0.1 0 0.2
v 0.1 0.1 0.2
v 0.4 0 0.2
v 0.4 0.1 0.2
v 0.9 0 0.2
v 0.9 0.1 0.2
v 1.2 0 0.2
v 1.2 0.1 0.2
v 0.7 0.1 -0.2
v 0.7 0.2 -0.2
v 0.8 0.1 -0.2
v 0.8 0.2 -0.2
v 0.8 0.8 -0.2
v 0.8 0.9 -0.2
v 1.1 0.8 -0.2
v 1.1 0.9 -0.2
v -1.2 0.1 -0.3
v -1.2 0.2 -0.3
v -1.1 0 -0.3
v -1.1 0.1 -0.3
v -1.1 0.2 -0.3
v -1 0.1 -0.3
v -1 0.2 -0.3
v -0.9 0.1 -0.3
v -0.9 0.2 -0.3
v -0.8 0 -0.3
v -0.8 0.1 -0.3
v -0.8 0.2 -0.3
v 0.1 0 -0.3
v 0.1 0.1 -0.3
v 0.1 0.2 -0.3
v 0.2 0.1 -0.3
v 0.2 0.2 -0.3
v 0.3 0.1 -0.3
v 0.3 0.2 -0.3
v 0.4 0 -0.3
v 0.4 0.1 -0.3
v 0.4 0.2 -0.3
v 0.7 0.1 -0.3
v 0.7 0.2 -0.3
v 0.8 0.1 -0.3
v 0.8 0.2 -0.3
v 0.8 0.8 -0.3
v 0.9 0 -0.3
v 0.9 0.1 -0.3
v 0.9 0.2 -0.3
v 0.9 0.3 -0.3
v 1 0.1 -0.3
v 1 0.2 -0.3
v 1 0.5 -0.3
v 1 0.7 -0.3
v 1.1 0.1 -0.3
v 1.1 0.2 -0.3
v 1.2 0 -0.3
v 1.2 0.1 -0.3
v 1.2 0.2 -0.3
v 1.2 0.3 -0.3
v 1.4 0.1 -0.3
v 1.4 0.2 -0.3
v 1.4 0.5 -0.3
v 1.4 0.7 -0.3
v 1.4 0.8 -0.3
v -1.3 0.2 -0.4
v -1.3 0.3 -0.4
v -1.3 0.4 -0.4
v -1.3 0.5 -0.4
v 0.7 0.2 -0.4
v 0.7 0.3 -0.4
v 0.7 0.4 -0.4
v 0.7 0.5 -0.4
v -1.1 0 0.3
v -0.8 0 0.3
v 0.1 0 0.3
v 0.4 0 0.3
v 0.9 0 0.3
v 1.2 0 0.3
v -1.1 0 0.2
v -0.8 0 0.2
v 0.1 0 0.2
v 0.4 0 0.2
v 0.9 0 0.2
v 1.2 0 0.2
v -1.1 0 -0.2
v -0.8 0 -0.2
v 0.1 0 -0.2
v 0.4 0 -0.2
v 0.9 0 -0.2
v 1.2 0 -0.2
v -1.1 0 -0.3
v -0.8 0 -0.3
v 0.1 0 -0.3
v 0.4 0 -0.3
v 0.9 0 -0.3
v 1.2 0 -0.3
v -1.2 0.1 0.3
v -1.1 0.1 0.3
v -0.8 0.1 0.3
v 0.1 0.1 0.3
v 0.4 0.1 0.3
v 0.7 0.1 0.3
v 0.8 0.1 0.3
v 0.9 0.1 0.3
v 1.2 0.1 0.3
v 1.4 0.1 0.3
v -1.1 0.1 0.2
v -0.8 0.1 0.2
v 0.1 0.1 0.2
v 0.4 0.1 0.2
v 0.6 0.1 0.2
v 0.7 0.1 0.2
v 0.8 0.1 0.2
v 0.9 0.1 0.2
v 1.2 0.1 0.2
v -1.1 0.1 -0.2
v -0.8 0.1 -0.2
v 0.1 0.1 -0.2
v 0.4 0.1 -0.2
v 0.6 0.1 -0.2
v 0.7 0.1 -0.2
v 0.8 0.1 -0.2
v 0.9 0.1 -0.2
v 1.2 0.1 -0.2
v -1.2 0.1 -0.3
v -1.1 0.1 -0.3
v -0.8 0.1 -0.3
v 0.1 0.1 -0.3
v 0.4 0.1 -0.3
v 0.7 0.1 -0.3
v 0.8 0.1 -0.3
v 0.9 0.1 -0.3
v 1.2 0.1 -0.3
v 1.4 0.1 -0.3
v -1.3 0.2 0.4
v 0.7 0.2 0.4
v -1.2 0.2 0.3
v -1.1 0.2 0.3
v -1 0.2 0.3
v -0.9 0.2 0.3
v -0.8 0.2 0.3
v 0.1 0.2 0.3
v 0.2 0.2 0.3
v 0.3 0.2 0.3
v 0.4 0.2 0.3
v 0.7 0.2 0.3
v -1.2 0.2 -0.3
v -1.1 0.2 -0.3
v -1 0.2 -0.3
v -0.9 0.2 -0.3
v -0.8 0.2 -0.3
v 0.1 0.2 -0.3
v 0.2 0.2 -0.3
v 0.3 0.2 -0.3
v 0.4 0.2 -0.3
v 0.7 0.2 -0.3
v -1.3 0.2 -0.4
v 0.7 0.2 -0.4
v 0.7 0.2 0.2
v 0.8 0.2 0.2
v 0.7 0.2 -0.2
v 0.8 0.2 -0.2
v -1.2 0.3 0.3
v 0.6 0.3 0.3
v -1.2 0.3 -0.3
v 0.6 0.3 -0.3
v -1.3 0.5 0.4
v 0.7 0.5 0.4
v -1.2 0.5 0.3
v 0.6 0.5 0.3
v -1.2 0.5 -0.3
v 0.6 0.5 -0.3
v -1.3 0.5 -0.4
v 0.7 0.5 -0.4
v 0.8 0.8 0.3
v 1.4 0.8 0.3
v 0.8 0.8 0.2
v 1.1 0.8 0.2
v 0.8 0.8 -0.2
v 1.1 0.8 -0.2
v 0.8 0.8 -0.3
v 1.4 0.8 -0.3
v 0.8 0.9 0.2
v 1.1 0.9 0.2
v 0.8 0.9 -0.2
v 1.1 0.9 -0.2

# faces
f 3/1/1 2/1/1 1/1/1
f 4/1/1 2/1/1 3/1/1
f 5/2/1 4/2/1 3/2/1
f 6/2/1 4/2/1 5/2/1
f 7/1/1 6/1/1 5/1/1
f 8/1/1 6/1/1 7/1/1
f 11/7/1 10/7/1 9/7/1
f 12/7/1 10/7/1 11/7/1
f 17/5/1 14/5/1 13/5/1
f 18/5/1 14/5/1 17/5/1
f 19/5/1 16/5/1 15/5/1
f 20/5/1 16/5/1 19/5/1
f 25/5/1 22/5/1 21/5/1
f 26/5/1 22/5/1 25/5/1
f 27/5/1 24/5/1 23/5/1
f 28/5/1 24/5/1 27/5/1
f 31/2/1 30/2/1 29/2/1
f 32/2/1 30/2/1 31/2/1
f 33/1/1 32/1/1 31/1/1
f 34/1/1 32/1/1 33/1/1
f 39/7/1 36/7/1 35/7/1
f 40/7/1 36/7/1 39/7/1
f 41/7/1 38/7/1 37/7/1
f 42/7/1 38/7/1 41/7/1
f 43/8/1 40/8/1 39/8/1
f 43/8/1 41/8/1 40/8/1
f 43/8/1 42/8/1 41/8/1
f 44/8/1 42/8/1 43/8/1
f 45/8/1 42/8/1 44/8/1
f 46/8/1 42/8/1 45/8/1
f 47/3/1 45/3/1 44/3/1
f 48/3/1 45/3/1 47/3/1
f 53/5/1 50/5/1 49/5/1
f 54/5/1 50/5/1 53/5/1
f 55/5/1 52/5/1 51/5/1
f 56/5/1 52/5/1 55/5/1
f 57/2/2 58/2/2 59/2/2
f 59/2/2 58/2/2 60/2/2
f 59/1/2 60/1/2 61/1/2
f 61/1/2 60/1/2 62/1/2
f 63/5/2 64/5/2 67/5/2
f 67/5/2 64/5/2 68/5/2
f 65/5/2 66/5/2 69/5/2
f 69/5/2 66/5/2 70/5/2
f 71/5/2 72/5/2 75/5/2
f 75/5/2 72/5/2 76/5/2
f 73/5/2 74/5/2 77/5/2
f 77/5/2 74/5/2 78/5/2
f 79/7/2 80/7/2 84/7/2
f 84/7/2 80/7/2 85/7/2
f 81/7/2 82/7/2 86/7/2
f 86/7/2 82/7/2 87/7/2
f 84/1/2 85/1/2 89/1/2
f 87/1/2 88/1/2 89/1/2
f 86/1/2 87/1/2 89/1/2
f 85/1/2 86/1/2 89/1/2
f 83/1/2 84/1/2 89/1/2
f 89/1/2 88/1/2 90/1/2
f 89/2/2 90/2/2 91/2/2
f 91/2/2 90/2/2 92/2/2
f 91/1/2 92/1/2 93/1/2
f 93/1/2 92/1/2 94/1/2
f 95/3/2 96/3/2 97/3/2
f 97/3/2 96/3/2 98/3/2
f 99/5/2 100/5/2 103/5/2
f 103/5/2 100/5/2 104/5/2
f 101/5/2 102/5/2 105/5/2
f 105/5/2 102/5/2 106/5/2
f 107/7/2 108/7/2 109/7/2
f 109/7/2 108/7/2 110/7/2
f 109/8/2 110/8/2 111/8/2
f 111/8/2 110/8/2 112/8/2
f 111/5/2 112/5/2 113/5/2
f 113/5/2 112/5/2 114/5/2
f 113/8/2 114/8/2 115/8/2
f 115/8/2 114/8/2 116/8/2
f 121/1/3 118/1/3 117/1/3
f 122/2/3 119/2/3 118/2/3
f 122/1/3 118/1/3 121/1/3
f 123/1/3 120/1/3 119/1/3
f 123/2/3 119/2/3 122/2/3
f 124/1/3 120/1/3 123/1/3
f 128/7/3 126/7/3 125/7/3
f 129/7/3 126/7/3 128/7/3
f 130/5/3 128/5/3 127/5/3
f 130/5/3 129/5/3 128/5/3
f 131/5/3 129/5/3 130/5/3
f 132/5/3 130/5/3 127/5/3
f 132/6/3 131/6/3 130/6/3
f 133/6/3 131/6/3 132/6/3
f 134/5/3 132/5/3 127/5/3
f 134/5/3 133/5/3 132/5/3
f 135/5/3 133/5/3 134/5/3
f 136/5/3 133/5/3 135/5/3
f 138/7/3 136/7/3 135/7/3
f 139/7/3 136/7/3 138/7/3
f 140/5/3 138/5/3 137/5/3
f 140/5/3 139/5/3 138/5/3
f 141/5/3 139/5/3 140/5/3
f 142/5/3 140/5/3 137/5/3
f 142/6/3 141/6/3 140/6/3
f 143/6/3 141/6/3 142/6/3
f 144/5/3 142/5/3 137/5/3
f 144/5/3 143/5/3 142/5/3
f 145/5/3 143/5/3 144/5/3
f 146/5/3 143/5/3 145/5/3
f 147/7/3 146/7/3 145/7/3
f 148/7/3 146/7/3 147/7/3
f 153/7/3 150/7/3 149/7/3
f 154/8/3 151/8/3 150/8/3
f 154/7/3 150/7/3 153/7/3
f 155/8/3 151/8/3 154/8/3
f 156/5/3 153/5/3 152/5/3
f 156/5/3 154/5/3 153/5/3
f 156/5/3 155/5/3 154/5/3
f 157/5/3 155/5/3 156/5/3
f 158/8/3 151/8/3 155/8/3
f 159/8/3 151/8/3 158/8/3
f 160/5/3 156/5/3 152/5/3
f 160/6/3 157/6/3 156/6/3
f 161/5/3 155/5/3 157/5/3
f 161/6/3 157/6/3 160/6/3
f 162/5/3 160/5/3 152/5/3
f 162/5/3 161/5/3 160/5/3
f 163/5/3 161/5/3 162/5/3
f 164/5/3 155/5/3 161/5/3
f 164/5/3 161/5/3 163/5/3
f 165/8/3 158/8/3 155/8/3
f 165/5/3 155/5/3 164/5/3
f 166/7/3 164/7/3 163/7/3
f 167/8/3 165/8/3 164/8/3
f 167/7/3 164/7/3 166/7/3
f 168/8/3 158/8/3 165/8/3
f 168/8/3 165/8/3 167/8/3
f 168/5/3 159/5/3 158/5/3
f 169/8/3 151/8/3 159/8/3
f 169/5/3 159/5/3 168/5/3
f 170/8/3 151/8/3 169/8/3
f 173/7/3 172/7/3 171/7/3
f 174/7/3 172/7/3 173/7/3
f 177/3/3 176/3/3 175/3/3
f 178/3/3 176/3/3 177/3/3
f 181/5/3 180/5/3 179/5/3
f 182/5/3 180/5/3 181/5/3
f 185/5/3 184/5/3 183/5/3
f 186/5/3 184/5/3 185/5/3
f 189/5/3 188/5/3 187/5/3
f 190/5/3 188/5/3 189/5/3
f 194/2/3 192/2/3 191/2/3
f 195/1/3 193/1/3 192/1/3
f 195/2/3 192/2/3 194/2/3
f 196/1/3 193/1/3 195/1/3
f 197/2/4 198/2/4 200/2/4
f 198/1/4 199/1/4 201/1/4
f 200/2/4 198/2/4 201/2/4
f 201/1/4 199/1/4 202/1/4
f 203/5/4 204/5/4 205/5/4
f 205/5/4 204/5/4 206/5/4
f 207/5/4 208/5/4 209/5/4
f 209/5/4 208/5/4 210/5/4
f 211/5/4 212/5/4 213/5/4
f 213/5/4 212/5/4 214/5/4
f 215/7/4 216/7/4 217/7/4
f 217/7/4 216/7/4 218/7/4
f 219/3/4 220/3/4 221/3/4
f 221/3/4 220/3/4 222/3/4
f 223/7/4 224/7/4 226/7/4
f 226/7/4 224/7/4 227/7/4
f 225/5/4 226/5/4 228/5/4
f 226/5/4 227/5/4 228/5/4
f 228/5/4 227/5/4 229/5/4
f 225/5/4 228/5/4 230/5/4
f 228/6/4 229/6/4 230/6/4
f 230/6/4 229/6/4 231/6/4
f 225/5/4 230/5/4 232/5/4
f 230/5/4 231/5/4 232/5/4
f 232/5/4 231/5/4 233/5/4
f 233/5/4 231/5/4 234/5/4
f 233/7/4 234/7/4 236/7/4
f 236/7/4 234/7/4 237/7/4
f 235/5/4 236/5/4 238/5/4
f 236/5/4 237/5/4 238/5/4
f 238/5/4 237/5/4 239/5/4
f 235/5/4 238/5/4 240/5/4
f 238/6/4 239/6/4 240/6/4
f 240/6/4 239/6/4 241/6/4
f 235/5/4 240/5/4 242/5/4
f 240/5/4 241/5/4 242/5/4
f 242/5/4 241/5/4 243/5/4
f 243/5/4 241/5/4 244/5/4
f 243/7/4 244/7/4 245/7/4
f 245/7/4 244/7/4 246/7/4
f 247/7/4 248/7/4 251/7/4
f 248/8/4 249/8/4 252/8/4
f 251/7/4 248/7/4 252/7/4
f 252/8/4 249/8/4 253/8/4
f 250/5/4 251/5/4 254/5/4
f 251/5/4 252/5/4 254/5/4
f 252/5/4 253/5/4 254/5/4
f 254/5/4 253/5/4 255/5/4
f 253/8/4 249/8/4 256/8/4
f 256/8/4 249/8/4 257/8/4
f 250/5/4 254/5/4 258/5/4
f 254/6/4 255/6/4 258/6/4
f 255/5/4 253/5/4 259/5/4
f 258/6/4 255/6/4 259/6/4
f 250/5/4 258/5/4 260/5/4
f 258/5/4 259/5/4 260/5/4
f 260/5/4 259/5/4 261/5/4
f 259/5/4 253/5/4 262/5/4
f 261/5/4 259/5/4 262/5/4
f 253/8/4 256/8/4 263/8/4
f 262/5/4 253/5/4 263/5/4
f 261/7/4 262/7/4 264/7/4
f 262/8/4 263/8/4 265/8/4
f 264/7/4 262/7/4 265/7/4
f 263/8/4 256/8/4 266/8/4
f 265/8/4 263/8/4 266/8/4
f 256/5/4 257/5/4 266/5/4
f 257/8/4 249/8/4 267/8/4
f 266/5/4 257/5/4 267/5/4
f 267/8/4 249/8/4 268/8/4
f 269/1/4 270/1/4 273/1/4
f 270/2/4 271/2/4 274/2/4
f 273/1/4 270/1/4 274/1/4
f 271/1/4 272/1/4 275/1/4
f 274/2/4 271/2/4 275/2/4
f 275/1/4 272/1/4 276/1/4
f 283/5/5 278/5/5 277/5/5
f 284/5/5 278/5/5 283/5/5
f 285/5/5 280/5/5 279/5/5
f 286/5/5 280/5/5 285/5/5
f 287/5/5 282/5/5 281/5/5
f 288/5/5 282/5/5 287/5/5
f 295/5/5 290/5/5 289/5/5
f 296/5/5 290/5/5 295/5/5
f 297/5/5 292/5/5 291/5/5
f 298/5/5 292/5/5 297/5/5
f 299/5/5 294/5/5 293/5/5
f 300/5/5 294/5/5 299/5/5
f 311/7/5 302/7/5 301/7/5
f 312/7/5 304/7/5 303/7/5
f 313/7/5 304/7/5 312/7/5
f 314/7/5 306/7/5 305/7/5
f 315/7/5 306/7/5 314/7/5
f 316/7/5 306/7/5 315/7/5
f 317/7/5 308/7/5 307/7/5
f 318/7/5 308/7/5 317/7/5
f 319/7/5 310/7/5 309/7/5
f 320/7/5 311/7/5 301/7/5
f 320/4/5 313/4/5 312/4/5
f 320/4/5 312/4/5 311/4/5
f 320/4/5 314/4/5 313/4/5
f 320/4/5 315/4/5 314/4/5
f 321/4/5 315/4/5 320/4/5
f 322/4/5 315/4/5 321/4/5
f 323/4/5 315/4/5 322/4/5
f 324/7/5 318/7/5 317/7/5
f 324/4/5 315/4/5 323/4/5
f 324/7/5 319/7/5 318/7/5
f 324/7/5 316/7/5 315/7/5
f 324/7/5 317/7/5 316/7/5
f 325/7/5 319/7/5 324/7/5
f 326/7/5 319/7/5 325/7/5
f 327/7/5 319/7/5 326/7/5
f 328/7/5 310/7/5 319/7/5
f 328/7/5 319/7/5 327/7/5
f 329/7/5 320/7/5 301/7/5
f 330/7/5 320/7/5 329/7/5
f 331/7/5 322/7/5 321/7/5
f 332/7/5 322/7/5 331/7/5
f 333/7/5 325/7/5 324/7/5
f 333/7/5 324/7/5 323/7/5
f 334/7/5 325/7/5 333/7/5
f 335/7/5 327/7/5 326/7/5
f 336/7/5 327/7/5 335/7/5
f 337/7/5 310/7/5 328/7/5
f 338/7/5 310/7/5 337/7/5
f 341/1/5 340/1/5 339/1/5
f 342/1/5 340/1/5 341/1/5
f 343/1/5 340/1/5 342/1/5
f 344/1/5 340/1/5 343/1/5
f 345/1/5 340/1/5 344/1/5
f 346/1/5 340/1/5 345/1/5
f 347/1/5 340/1/5 346/1/5
f 348/1/5 340/1/5 347/1/5
f 349/1/5 340/1/5 348/1/5
f 350/1/5 340/1/5 349/1/5
f 351/1/5 341/1/5 339/1/5
f 361/1/5 351/1/5 339/1/5
f 361/1/5 360/1/5 359/1/5
f 361/1/5 359/1/5 358/1/5
f 361/1/5 358/1/5 357/1/5
f 361/1/5 357/1/5 356/1/5
f 361/1/5 356/1/5 355/1/5
f 361/1/5 355/1/5 354/1/5
f 361/1/5 354/1/5 353/1/5
f 361/1/5 353/1/5 352/1/5
f 361/1/5 352/1/5 351/1/5
f 362/1/5 360/1/5 361/1/5
f 363/7/6 364/7/6 365/7/6
f 365/7/6 364/7/6 366/7/6
f 367/1/6 368/1/6 369/1/6
f 369/1/6 368/1/6 370/1/6
f 371/1/6 372/1/6 373/1/6
f 373/1/6 372/1/6 374/1/6
f 371/1/6 373/1/6 375/1/6
f 374/1/6 372/1/6 376/1/6
f 371/1/6 375/1/6 377/1/6
f 375/1/6 376/1/6 377/1/6
f 376/1/6 372/1/6 378/1/6
f 377/1/6 376/1/6 378/1/6
f 379/8/6 380/8/6 381/8/6
f 381/8/6 380/8/6 382/8/6
f 382/8/6 380/8/6 384/8/6
f 383/8/6 384/8/6 385/8/6
f 384/8/6 380/8/6 386/8/6
f 385/8/6 384/8/6 386/8/6
f 387/3/6 388/3/6 389/3/6
f 389/3/6 388/3/6 390/3/6
